STARTFONT 2.1
FONT -FontForge-Bitstream Vera Sans-Book-R-Normal-Sans--62-600-75-75-P-372-ISO8859-1
SIZE 60 75 75
FONTBOUNDINGBOX 90 73 -11 -15
COMMENT "Generated by fontforge, http://fontforge.sourceforge.net"
COMMENT "Copyright (c) 2003 by Bitstream, Inc. All Rights Reserved."
STARTPROPERTIES 40
FOUNDRY "FontForge"
FAMILY_NAME "Bitstream Vera Sans"
WEIGHT_NAME "Book"
SLANT "R"
SETWIDTH_NAME "Normal"
ADD_STYLE_NAME "Sans"
PIXEL_SIZE 62
POINT_SIZE 600
RESOLUTION_X 75
RESOLUTION_Y 75
SPACING "P"
AVERAGE_WIDTH 372
CHARSET_REGISTRY "ISO8859"
CHARSET_ENCODING "1"
FONTNAME_REGISTRY ""
CHARSET_COLLECTIONS "ISO8859-9 ISOLatin1Encoding"
FONT_NAME "BitstreamVeraSans-Roman"
FACE_NAME "Bitstream Vera Sans"
COPYRIGHT "Copyright (c) 2003 by Bitstream, Inc. All Rights Reserved."
FONT_VERSION "Release 1.10"
FONT_ASCENT 47
FONT_DESCENT 15
UNDERLINE_POSITION -9
UNDERLINE_THICKNESS 5
X_HEIGHT 33
CAP_HEIGHT 44
RAW_ASCENT 759
RAW_DESCENT 240
NORM_SPACE 20
RELATIVE_WEIGHT 40
RELATIVE_SETWIDTH 50
SUPERSCRIPT_X 0
SUPERSCRIPT_Y 18
SUPERSCRIPT_SIZE 37
SUBSCRIPT_X 0
SUBSCRIPT_Y -13
SUBSCRIPT_SIZE 37
FIGURE_WIDTH 39
AVG_LOWERCASE_WIDTH 353
AVG_UPPERCASE_WIDTH 413
ENDPROPERTIES
CHARS 268
STARTCHAR space
ENCODING 32
SWIDTH 317 0
DWIDTH 20 0
BBX 1 1 0 0
BITMAP
00
ENDCHAR
STARTCHAR exclam
ENCODING 33
SWIDTH 400 0
DWIDTH 25 0
BBX 6 45 9 0
BITMAP
FC
FC
FC
FC
FC
FC
FC
FC
FC
FC
FC
FC
FC
FC
FC
FC
FC
FC
FC
FC
FC
FC
FC
FC
FC
FC
FC
FC
7C
78
00
00
00
00
00
00
00
FC
FC
FC
FC
FC
FC
FC
FC
ENDCHAR
STARTCHAR quotedbl
ENCODING 34
SWIDTH 459 0
DWIDTH 29 0
BBX 16 17 6 28
BITMAP
F81F
F81F
F81F
F81F
F81F
F81F
F81F
F81F
F81F
F81F
F81F
F81F
F81F
F81F
F81F
F81F
F81F
ENDCHAR
STARTCHAR numbersign
ENCODING 35
SWIDTH 837 0
DWIDTH 52 0
BBX 42 46 5 0
BITMAP
00007C01F000
00007C01E000
00007C03E000
0000F803E000
0000F803E000
0000F803C000
0000F807C000
0000F007C000
0001F007C000
0001F0078000
0001F00F8000
0001E00F8000
0003E00F8000
1FFFFFFFFFC0
1FFFFFFFFFC0
1FFFFFFFFFC0
1FFFFFFFFFC0
1FFFFFFFFFC0
0007C01E0000
0007C03E0000
000F803E0000
000F803E0000
000F803C0000
000F807C0000
001F007C0000
001F007C0000
001F00780000
001F00F80000
FFFFFFFFFE00
FFFFFFFFFE00
FFFFFFFFFE00
FFFFFFFFFE00
FFFFFFFFFE00
007C01F00000
007C01E00000
007C03E00000
007803E00000
00F803E00000
00F803E00000
00F807C00000
00F007C00000
01F007C00000
01F007C00000
01F007800000
01F00F800000
03E00F800000
ENDCHAR
STARTCHAR dollar
ENCODING 36
SWIDTH 636 0
DWIDTH 39 0
BBX 29 56 5 -9
BITMAP
00070000
00070000
00070000
00070000
00070000
00070000
00070000
007FF800
03FFFF80
0FFFFFC0
1FFFFFC0
3FFFFFC0
7FC707C0
7F070040
FE070000
FE070000
FC070000
FC070000
FC070000
FC070000
FE070000
FE070000
7F070000
7FE70000
3FFF0000
1FFFF000
07FFFE00
01FFFF80
003FFFC0
0007FFE0
00071FF0
000707F0
000703F8
000701F8
000701F8
000701F8
000701F8
000701F8
000703F8
800703F0
F0070FF0
FE073FE0
FFFFFFE0
FFFFFFC0
7FFFFF00
0FFFFC00
00FFE000
00070000
00070000
00070000
00070000
00070000
00070000
00070000
00070000
00070000
ENDCHAR
STARTCHAR percent
ENCODING 37
SWIDTH 950 0
DWIDTH 59 0
BBX 52 47 3 -1
BITMAP
01FC000007C000
07FF000007C000
0FFF80000F8000
1FFFC0000F0000
3F07E0001F0000
7E03F0003E0000
7C01F0003E0000
7C01F0007C0000
F801F800780000
F800F800F80000
F800F801F00000
F800F801F00000
F800F803E00000
F800F803C00000
F800F807C00000
F800F80F800000
FC01F80F800000
7C01F01F000000
7C01F01E000000
7E03F03E000000
3F07E07C000000
1FFFC07C000000
0FFF80F803F800
07FF00F00FFE00
01FC01F01FFF00
000003E03FFF80
000003E07E0FC0
000007C0FC07E0
00000780F803E0
00000F80F803E0
00001F01F003F0
00001F01F001F0
00003E01F001F0
00003C01F001F0
00007C01F001F0
0000F801F001F0
0000F801F001F0
0001F001F001F0
0001E001F003F0
0003E000F803E0
0007C000F803E0
0007C000FC07E0
000F80007E0FC0
000F00003FFF80
001F00001FFF00
003E00000FFE00
003E000003F800
ENDCHAR
STARTCHAR ampersand
ENCODING 38
SWIDTH 779 0
DWIDTH 48 0
BBX 42 47 4 -1
BITMAP
0007FC000000
003FFFC00000
007FFFE00000
00FFFFE00000
01FFFFE00000
03FE07E00000
03F800E00000
07F000200000
07F000000000
07E000000000
07E000000000
07E000000000
07E000000000
07F000000000
07F000000000
07F800000000
03FC00000000
03FC00000000
01FE00000000
03FF00000000
07FF80000000
0FFFC0000000
0FDFE0001F80
1F8FF0001F80
3F87F8001F80
3F03FC003F00
7E01FE003F00
7E00FF003F00
7C007F803E00
FC003FC07E00
FC001FE07E00
FC000FF0FC00
FC0007F8FC00
FC0003FDF800
FC0001FFF000
FE0000FFF000
7E00007FE000
7F00003FC000
7F80003FE000
3FC0007FF000
3FE001FFF800
1FF80FFFFC00
0FFFFFF9FE00
07FFFFF0FF00
01FFFFC07F80
007FFF003FC0
000FF8000000
ENDCHAR
STARTCHAR quotesingle
ENCODING 39
SWIDTH 274 0
DWIDTH 17 0
BBX 5 17 6 28
BITMAP
F8
F8
F8
F8
F8
F8
F8
F8
F8
F8
F8
F8
F8
F8
F8
F8
F8
ENDCHAR
STARTCHAR parenleft
ENCODING 40
SWIDTH 390 0
DWIDTH 24 0
BBX 14 55 5 -8
BITMAP
007C
00F8
00F8
01F0
03F0
03E0
07E0
07C0
0FC0
0F80
0F80
1F80
1F00
3F00
3F00
3E00
7E00
7E00
7E00
7E00
7E00
FC00
FC00
FC00
FC00
FC00
FC00
FC00
FC00
FC00
FC00
FC00
FC00
FC00
7E00
7E00
7E00
7E00
7E00
3F00
3F00
3F00
1F00
1F80
0F80
0F80
0FC0
07C0
07E0
03E0
03F0
01F0
00F8
00F8
007C
ENDCHAR
STARTCHAR parenright
ENCODING 41
SWIDTH 390 0
DWIDTH 24 0
BBX 14 55 5 -8
BITMAP
F800
7C00
7C00
3E00
3F00
1F00
1F80
0F80
0FC0
07C0
07C0
07E0
03E0
03F0
03F0
03F0
01F0
01F8
01F8
01F8
01F8
00FC
00FC
00FC
00FC
00FC
00FC
00FC
00FC
00FC
00FC
00FC
00FC
00FC
01F8
01F8
01F8
01F8
01F0
03F0
03F0
03F0
03E0
07E0
07C0
07C0
0FC0
0F80
1F80
1F00
3F00
3E00
7C00
7C00
F800
ENDCHAR
STARTCHAR asterisk
ENCODING 42
SWIDTH 500 0
DWIDTH 31 0
BBX 27 28 2 18
BITMAP
000E0000
000E0000
000E0000
000E0000
000E0000
600E00C0
700E01C0
FC0E07E0
7F0E1FC0
1F8E3F00
0FEEFE00
03FFF800
00FFE000
003F8000
003F8000
00FFE000
03FFF800
07EEFC00
1F8E3F00
7F0E1FC0
FC0E07E0
700E01C0
600E00C0
000E0000
000E0000
000E0000
000E0000
000E0000
ENDCHAR
STARTCHAR plus
ENCODING 43
SWIDTH 837 0
DWIDTH 52 0
BBX 39 39 7 0
BITMAP
00007C0000
00007C0000
00007C0000
00007C0000
00007C0000
00007C0000
00007C0000
00007C0000
00007C0000
00007C0000
00007C0000
00007C0000
00007C0000
00007C0000
00007C0000
00007C0000
00007C0000
FFFFFFFFFE
FFFFFFFFFE
FFFFFFFFFE
FFFFFFFFFE
FFFFFFFFFE
00007C0000
00007C0000
00007C0000
00007C0000
00007C0000
00007C0000
00007C0000
00007C0000
00007C0000
00007C0000
00007C0000
00007C0000
00007C0000
00007C0000
00007C0000
00007C0000
00007C0000
ENDCHAR
STARTCHAR comma
ENCODING 44
SWIDTH 317 0
DWIDTH 20 0
BBX 8 15 5 -7
BITMAP
3F
3F
3F
3F
3F
3F
3E
3E
7E
7C
7C
78
78
F8
F0
ENDCHAR
STARTCHAR hyphen
ENCODING 45
SWIDTH 360 0
DWIDTH 22 0
BBX 16 5 3 15
BITMAP
FFFF
FFFF
FFFF
FFFF
FFFF
ENDCHAR
STARTCHAR period
ENCODING 46
SWIDTH 317 0
DWIDTH 20 0
BBX 6 8 7 0
BITMAP
FC
FC
FC
FC
FC
FC
FC
FC
ENDCHAR
STARTCHAR slash
ENCODING 47
SWIDTH 336 0
DWIDTH 21 0
BBX 21 51 0 -6
BITMAP
0000F8
0001F8
0001F0
0001F0
0003F0
0003E0
0003E0
0007E0
0007C0
0007C0
0007C0
000F80
000F80
000F80
001F80
001F00
001F00
003F00
003E00
003E00
007E00
007C00
007C00
00FC00
00F800
00F800
00F800
01F800
01F000
01F000
03F000
03E000
03E000
07E000
07C000
07C000
0FC000
0F8000
0F8000
0F8000
1F0000
1F0000
1F0000
3F0000
3E0000
3E0000
7E0000
7C0000
7C0000
FC0000
F80000
ENDCHAR
STARTCHAR zero
ENCODING 48
SWIDTH 636 0
DWIDTH 39 0
BBX 31 47 4 -1
BITMAP
000FE000
007FFC00
01FFFF00
03FFFF80
07FFFFC0
0FF83FE0
0FE00FE0
1FC007F0
1F8003F0
3F0001F8
3F0001F8
7F0001F8
7E0000FC
7E0000FC
7E0000FC
7E0000FC
FC00007E
FC00007E
FC00007E
FC00007E
FC00007E
FC00007E
FC00007E
FC00007E
FC00007E
FC00007E
FC00007E
FC00007E
FC00007E
FC00007E
FC00007E
7E0000FC
7E0000FC
7E0000FC
7E0000FC
7F0001F8
3F0001F8
3F0001F8
1F8003F0
1FC007F0
0FE00FE0
0FF83FE0
07FFFFC0
03FFFF80
01FFFF00
007FFC00
000FE000
ENDCHAR
STARTCHAR one
ENCODING 49
SWIDTH 636 0
DWIDTH 39 0
BBX 27 45 7 0
BITMAP
00FF8000
1FFF8000
FFFF8000
FFFF8000
FFFF8000
FF1F8000
E01F8000
001F8000
001F8000
001F8000
001F8000
001F8000
001F8000
001F8000
001F8000
001F8000
001F8000
001F8000
001F8000
001F8000
001F8000
001F8000
001F8000
001F8000
001F8000
001F8000
001F8000
001F8000
001F8000
001F8000
001F8000
001F8000
001F8000
001F8000
001F8000
001F8000
001F8000
001F8000
001F8000
001F8000
7FFFFFE0
7FFFFFE0
7FFFFFE0
7FFFFFE0
7FFFFFE0
ENDCHAR
STARTCHAR two
ENCODING 50
SWIDTH 636 0
DWIDTH 39 0
BBX 28 46 5 0
BITMAP
00FFC000
0FFFF800
7FFFFC00
FFFFFF00
FFFFFF80
FF80FFC0
F8003FC0
E0000FE0
800007E0
000007F0
000003F0
000003F0
000003F0
000003F0
000003F0
000003F0
000007F0
000007F0
00000FE0
00000FE0
00001FE0
00003FC0
00003FC0
00007F80
0000FF00
0001FE00
0003FC00
0007F800
000FF000
001FE000
003FC000
007F8000
00FF0000
01FE0000
03FC0000
07F80000
0FF80000
1FF00000
3FE00000
7FC00000
FF800000
FFFFFFF0
FFFFFFF0
FFFFFFF0
FFFFFFF0
FFFFFFF0
ENDCHAR
STARTCHAR three
ENCODING 51
SWIDTH 636 0
DWIDTH 39 0
BBX 30 47 5 -1
BITMAP
01FFC000
1FFFF800
7FFFFE00
7FFFFF00
7FFFFF80
7E007FC0
60001FE0
00000FE0
000007F0
000003F0
000003F0
000003F0
000003F0
000003F0
000003F0
000007E0
00000FE0
00001FC0
00007F80
00FFFF00
00FFFC00
00FFF800
00FFFF00
00FFFF80
00007FE0
00000FF0
000007F0
000003F8
000001F8
000001FC
000000FC
000000FC
000000FC
000000FC
000000FC
000000FC
000001FC
000001F8
000003F8
800007F0
E0000FF0
FE007FE0
FFFFFFC0
FFFFFF80
FFFFFF00
3FFFFC00
03FFC000
ENDCHAR
STARTCHAR four
ENCODING 52
SWIDTH 636 0
DWIDTH 39 0
BBX 32 45 3 0
BITMAP
00003FC0
00007FC0
00007FC0
0000FFC0
0001FFC0
0001FFC0
0003EFC0
0003EFC0
0007CFC0
000F8FC0
000F8FC0
001F0FC0
003F0FC0
003E0FC0
007C0FC0
00FC0FC0
00F80FC0
01F00FC0
03F00FC0
03E00FC0
07C00FC0
0FC00FC0
0F800FC0
1F000FC0
3F000FC0
3E000FC0
7E000FC0
FC000FC0
F8000FC0
FFFFFFFF
FFFFFFFF
FFFFFFFF
FFFFFFFF
FFFFFFFF
00000FC0
00000FC0
00000FC0
00000FC0
00000FC0
00000FC0
00000FC0
00000FC0
00000FC0
00000FC0
00000FC0
ENDCHAR
STARTCHAR five
ENCODING 53
SWIDTH 636 0
DWIDTH 39 0
BBX 29 46 5 -1
BITMAP
3FFFFFC0
3FFFFFC0
3FFFFFC0
3FFFFFC0
3FFFFFC0
3F000000
3F000000
3F000000
3F000000
3F000000
3F000000
3F000000
3F000000
3F000000
3F000000
3F7FC000
3FFFF800
3FFFFE00
3FFFFF00
3FFFFF80
3E00FFC0
20003FE0
00000FE0
000007F0
000007F0
000003F0
000003F8
000001F8
000001F8
000001F8
000001F8
000001F8
000001F8
000001F8
000003F8
000003F0
000007F0
000007F0
80000FE0
E0003FE0
FE00FFC0
FFFFFF80
FFFFFF00
FFFFFC00
3FFFF000
03FF8000
ENDCHAR
STARTCHAR six
ENCODING 54
SWIDTH 636 0
DWIDTH 39 0
BBX 31 47 4 -1
BITMAP
0003FE00
001FFFE0
007FFFF0
00FFFFF0
01FFFFF0
03FE03F0
07F80070
0FE00010
0FC00000
1F800000
3F800000
3F000000
3F000000
7E000000
7E000000
7E000000
7E07F800
FC3FFE00
FC7FFF80
FCFFFFC0
FDFFFFE0
FFF81FF0
FFE007F8
FFC003F8
FF8001FC
FF0000FC
FF0000FC
FE0000FE
FE00007E
FE00007E
FE00007E
7E00007E
7E00007E
7E00007E
7E00007E
3E0000FE
3F0000FC
3F0000FC
1F8001FC
1FC003F8
0FE007F8
0FF81FF0
07FFFFE0
03FFFFC0
01FFFF80
007FFE00
000FF800
ENDCHAR
STARTCHAR seven
ENCODING 55
SWIDTH 636 0
DWIDTH 39 0
BBX 29 45 5 0
BITMAP
FFFFFFF8
FFFFFFF8
FFFFFFF8
FFFFFFF8
FFFFFFF0
000007F0
000007E0
000007E0
00000FE0
00000FC0
00001FC0
00001FC0
00001F80
00003F80
00003F00
00007F00
00007F00
00007E00
0000FE00
0000FC00
0000FC00
0001FC00
0001F800
0003F800
0003F000
0003F000
0007F000
0007E000
000FE000
000FE000
000FC000
001FC000
001F8000
003F8000
003F8000
003F0000
007F0000
007E0000
007E0000
00FE0000
00FC0000
01FC0000
01F80000
01F80000
03F80000
ENDCHAR
STARTCHAR eight
ENCODING 56
SWIDTH 636 0
DWIDTH 39 0
BBX 31 47 4 -1
BITMAP
001FF000
00FFFE00
03FFFF80
07FFFFC0
0FFFFFE0
1FF01FF0
3FC007F8
3F8003F8
7F0001FC
7E0001FC
7E0000FC
7E0000FC
7E0000FC
7E0000FC
7E0000FC
3E0001F8
3F0001F8
3F8003F8
1FC007F0
0FF01FE0
07FFFFC0
01FFFF00
007FFC00
03FFFF80
0FFFFFE0
1FF01FF0
3FC007F8
3F0001F8
7E0000FC
7E0000FC
FC00007E
FC00007E
FC00007E
FC00007E
FC00007E
FC00007E
FC00007E
FE0000FE
7E0000FC
7F0001FC
3FC007F8
3FF01FF8
1FFFFFF0
0FFFFFE0
07FFFFC0
01FFFF00
003FF800
ENDCHAR
STARTCHAR nine
ENCODING 57
SWIDTH 636 0
DWIDTH 39 0
BBX 31 47 4 -1
BITMAP
001FE000
00FFFC00
03FFFE00
07FFFF80
0FFFFFC0
1FF03FE0
3FC00FE0
3F8007F0
7F0003F0
7E0001F8
7E0001F8
FC0001F8
FC0000FC
FC0000FC
FC0000FC
FC0000FC
FC0000FE
FC0000FE
FC0000FE
FC0001FE
7E0001FE
7E0001FE
7F0003FE
3F8007FE
3FC00FFE
1FF03FFE
0FFFFF7E
07FFFE7E
03FFFC7E
01FFF87E
003FC0FC
000000FC
000000FC
000000FC
000001F8
000001F8
000003F0
000003F0
000007E0
10000FE0
1C003FC0
1F80FF80
1FFFFF00
1FFFFE00
1FFFFC00
0FFFF000
00FF8000
ENDCHAR
STARTCHAR colon
ENCODING 58
SWIDTH 336 0
DWIDTH 21 0
BBX 6 32 7 0
BITMAP
FC
FC
FC
FC
FC
FC
FC
FC
00
00
00
00
00
00
00
00
00
00
00
00
00
00
00
00
FC
FC
FC
FC
FC
FC
FC
FC
ENDCHAR
STARTCHAR semicolon
ENCODING 59
SWIDTH 336 0
DWIDTH 21 0
BBX 8 39 5 -7
BITMAP
3F
3F
3F
3F
3F
3F
3F
3F
00
00
00
00
00
00
00
00
00
00
00
00
00
00
00
00
3F
3F
3F
3F
3F
3F
3E
3E
7E
7C
7C
78
78
F8
F0
ENDCHAR
STARTCHAR less
ENCODING 60
SWIDTH 837 0
DWIDTH 52 0
BBX 39 33 7 3
BITMAP
0000000002
000000001E
00000000FE
00000007FE
0000003FFE
000000FFFC
000007FFF0
00003FFF80
0001FFFC00
0007FFE000
003FFF8000
01FFFC0000
0FFFE00000
7FFF000000
FFF8000000
FFE0000000
FF00000000
FFE0000000
FFF8000000
7FFF000000
0FFFE00000
01FFFC0000
003FFF8000
000FFFE000
0001FFFC00
00003FFF80
000007FFF0
000000FFFE
0000003FFE
00000007FE
00000000FE
000000001E
0000000002
ENDCHAR
STARTCHAR equal
ENCODING 61
SWIDTH 837 0
DWIDTH 52 0
BBX 39 17 7 11
BITMAP
FFFFFFFFFE
FFFFFFFFFE
FFFFFFFFFE
FFFFFFFFFE
FFFFFFFFFE
0000000000
0000000000
0000000000
0000000000
0000000000
0000000000
0000000000
FFFFFFFFFE
FFFFFFFFFE
FFFFFFFFFE
FFFFFFFFFE
FFFFFFFFFE
ENDCHAR
STARTCHAR greater
ENCODING 62
SWIDTH 837 0
DWIDTH 52 0
BBX 39 33 7 3
BITMAP
8000000000
F000000000
FE00000000
FFC0000000
FFF8000000
FFFE000000
1FFFC00000
03FFF80000
007FFF0000
000FFFE000
0003FFF800
00007FFF00
00000FFFE0
000001FFFC
0000003FFE
0000000FFE
00000001FE
0000000FFE
0000003FFE
000001FFFC
00000FFFE0
00007FFF00
0003FFF800
000FFFC000
007FFF0000
03FFF80000
1FFFC00000
7FFE000000
FFF8000000
FFC0000000
FE00000000
F000000000
8000000000
ENDCHAR
STARTCHAR question
ENCODING 63
SWIDTH 530 0
DWIDTH 33 0
BBX 24 46 4 0
BITMAP
01FF00
1FFFE0
7FFFF0
FFFFF8
FFFFFC
FE03FE
F000FE
E0007F
80007F
00003F
00003F
00003F
00003F
00007F
00007E
0000FE
0001FC
0003F8
0007F0
000FE0
001FC0
003F80
007F00
00FE00
00FC00
01FC00
01F800
01F800
01F800
01F800
01F800
01F800
01F800
01F800
000000
000000
000000
000000
01F800
01F800
01F800
01F800
01F800
01F800
01F800
01F800
ENDCHAR
STARTCHAR at
ENCODING 64
SWIDTH 1000 0
DWIDTH 62 0
BBX 54 54 4 -10
BITMAP
000003FFC00000
00001FFFF80000
0000FFFFFF0000
0003FFFFFFC000
000FFFFFFFE000
001FFE007FF800
003FE00007FC00
00FF800001FE00
01FE0000007F00
03FC0000003F80
03F80000001FC0
07E00000000FC0
0FE000000007E0
0FC000000003F0
1F8003F80001F0
1F000FFE1F01F8
3F003FFF9F00F8
3E007FFFDF00F8
7E00FFFFFF00F8
7C00FF03FF007C
7C01FC00FF007C
7C01F8007F007C
F801F0003F007C
F803F0003F007C
F803E0001F007C
F803E0001F007C
F803E0001F007C
F803E0001F00FC
F803E0001F00F8
F803E0001F00F8
F803F0003F01F8
F801F0003F03F0
FC01F8007F07E0
7C01FC00FF0FE0
7C00FF03FF3FC0
7E00FFFFDFFF80
3E007FFFDFFF00
3F003FFF9FFC00
3F000FFE1FF000
1F8003F81F0000
1FC00000000000
0FC00000000000
07E00000000000
07F00000000000
03FC0000004000
01FE000000E000
00FF800003F000
007FE0000FF000
003FFE00FFE000
000FFFFFFF8000
0007FFFFFF0000
0001FFFFFC0000
00003FFFF00000
000003FF000000
ENDCHAR
STARTCHAR A
ENCODING 65
SWIDTH 684 0
DWIDTH 42 0
BBX 41 45 0 0
BITMAP
00007F000000
0000FF800000
0000FF800000
0000FF800000
0001FFC00000
0001FFC00000
0001FFC00000
0003FFE00000
0003F7E00000
0007F7F00000
0007F3F00000
0007E3F00000
000FE3F80000
000FC1F80000
000FC1F80000
001FC1FC0000
001F80FC0000
003F80FE0000
003F007E0000
003F007E0000
007F007F0000
007E003F0000
007E003F0000
00FE003F8000
00FC001F8000
01FC001FC000
01F8000FC000
01F8000FC000
03FFFFFFE000
03FFFFFFE000
07FFFFFFF000
07FFFFFFF000
07FFFFFFF000
0FE00003F800
0FC00001F800
0FC00001F800
1FC00001FC00
1F800000FC00
3F800000FE00
3F8000007E00
3F0000007E00
7F0000007F00
7E0000003F00
7E0000003F00
FE0000003F80
ENDCHAR
STARTCHAR B
ENCODING 66
SWIDTH 686 0
DWIDTH 43 0
BBX 32 45 6 0
BITMAP
FFFFF800
FFFFFF00
FFFFFFC0
FFFFFFE0
FFFFFFF0
FC001FF8
FC0003F8
FC0001FC
FC0001FC
FC0000FC
FC0000FC
FC0000FC
FC0000FC
FC0000FC
FC0001FC
FC0001F8
FC0003F8
FC001FF0
FFFFFFE0
FFFFFF80
FFFFFF00
FFFFFFC0
FFFFFFF0
FC000FF8
FC0001FC
FC0000FC
FC00007E
FC00007E
FC00003F
FC00003F
FC00003F
FC00003F
FC00003F
FC00003F
FC00003F
FC00007F
FC00007E
FC0000FE
FC0001FE
FC000FFC
FFFFFFF8
FFFFFFF0
FFFFFFE0
FFFFFF80
FFFFF800
ENDCHAR
STARTCHAR C
ENCODING 67
SWIDTH 698 0
DWIDTH 43 0
BBX 36 47 4 -1
BITMAP
00007FE000
0007FFFE00
001FFFFF80
007FFFFFE0
00FFFFFFF0
01FF801FF0
03FC0003F0
07F80000F0
0FE0000030
1FC0000010
1FC0000000
3F80000000
3F00000000
3F00000000
7E00000000
7E00000000
7E00000000
FE00000000
FC00000000
FC00000000
FC00000000
FC00000000
FC00000000
FC00000000
FC00000000
FC00000000
FC00000000
FC00000000
FC00000000
FE00000000
7E00000000
7E00000000
7E00000000
3F00000000
3F00000000
3F80000000
1FC0000000
1FC0000010
0FE0000030
07F80000F0
03FC0003F0
01FF801FF0
00FFFFFFF0
007FFFFFE0
001FFFFF80
0007FFFE00
0000FFE000
ENDCHAR
STARTCHAR D
ENCODING 68
SWIDTH 770 0
DWIDTH 48 0
BBX 38 45 6 0
BITMAP
FFFFF00000
FFFFFF0000
FFFFFFE000
FFFFFFF800
FFFFFFFE00
FC001FFF00
FC0001FF80
FC00007FC0
FC00001FE0
FC00000FE0
FC000007F0
FC000007F0
FC000003F0
FC000003F8
FC000001F8
FC000001F8
FC000001FC
FC000000FC
FC000000FC
FC000000FC
FC000000FC
FC000000FC
FC000000FC
FC000000FC
FC000000FC
FC000000FC
FC000000FC
FC000000FC
FC000001F8
FC000001F8
FC000001F8
FC000003F8
FC000003F0
FC000007F0
FC000007F0
FC00000FE0
FC00001FE0
FC00007FC0
FC0001FF80
FC001FFF00
FFFFFFFE00
FFFFFFF800
FFFFFFE000
FFFFFF0000
FFFFF00000
ENDCHAR
STARTCHAR E
ENCODING 69
SWIDTH 631 0
DWIDTH 39 0
BBX 29 45 6 0
BITMAP
FFFFFFF0
FFFFFFF0
FFFFFFF0
FFFFFFF0
FFFFFFF0
FC000000
FC000000
FC000000
FC000000
FC000000
FC000000
FC000000
FC000000
FC000000
FC000000
FC000000
FC000000
FC000000
FFFFFFF0
FFFFFFF0
FFFFFFF0
FFFFFFF0
FFFFFFF0
FC000000
FC000000
FC000000
FC000000
FC000000
FC000000
FC000000
FC000000
FC000000
FC000000
FC000000
FC000000
FC000000
FC000000
FC000000
FC000000
FC000000
FFFFFFF8
FFFFFFF8
FFFFFFF8
FFFFFFF8
FFFFFFF8
ENDCHAR
STARTCHAR F
ENCODING 70
SWIDTH 575 0
DWIDTH 36 0
BBX 26 45 6 0
BITMAP
FFFFFFC0
FFFFFFC0
FFFFFFC0
FFFFFFC0
FFFFFFC0
FC000000
FC000000
FC000000
FC000000
FC000000
FC000000
FC000000
FC000000
FC000000
FC000000
FC000000
FC000000
FC000000
FFFFFF00
FFFFFF00
FFFFFF00
FFFFFF00
FFFFFF00
FC000000
FC000000
FC000000
FC000000
FC000000
FC000000
FC000000
FC000000
FC000000
FC000000
FC000000
FC000000
FC000000
FC000000
FC000000
FC000000
FC000000
FC000000
FC000000
FC000000
FC000000
FC000000
ENDCHAR
STARTCHAR G
ENCODING 71
SWIDTH 774 0
DWIDTH 48 0
BBX 39 47 4 -1
BITMAP
00007FF000
0007FFFF00
001FFFFFE0
007FFFFFF8
00FFFFFFFC
01FFC00FFC
03FE0001FC
07F800003C
0FE000000C
1FC0000004
1FC0000000
3F80000000
3F00000000
7F00000000
7E00000000
7E00000000
7E00000000
FE00000000
FC00000000
FC00000000
FC00000000
FC00000000
FC00000000
FC0001FFFE
FC0001FFFE
FC0001FFFE
FC0001FFFE
FC0001FFFE
FC0000007E
FE0000007E
7E0000007E
7E0000007E
7E0000007E
3F0000007E
3F0000007E
3F8000007E
1F8000007E
1FC000007E
0FE000007E
07F800007E
03FE0001FE
01FFC00FFE
00FFFFFFFC
007FFFFFF8
001FFFFFE0
0007FFFF00
00007FF000
ENDCHAR
STARTCHAR H
ENCODING 72
SWIDTH 751 0
DWIDTH 47 0
BBX 34 45 6 0
BITMAP
FC00000FC0
FC00000FC0
FC00000FC0
FC00000FC0
FC00000FC0
FC00000FC0
FC00000FC0
FC00000FC0
FC00000FC0
FC00000FC0
FC00000FC0
FC00000FC0
FC00000FC0
FC00000FC0
FC00000FC0
FC00000FC0
FC00000FC0
FC00000FC0
FFFFFFFFC0
FFFFFFFFC0
FFFFFFFFC0
FFFFFFFFC0
FFFFFFFFC0
FC00000FC0
FC00000FC0
FC00000FC0
FC00000FC0
FC00000FC0
FC00000FC0
FC00000FC0
FC00000FC0
FC00000FC0
FC00000FC0
FC00000FC0
FC00000FC0
FC00000FC0
FC00000FC0
FC00000FC0
FC00000FC0
FC00000FC0
FC00000FC0
FC00000FC0
FC00000FC0
FC00000FC0
FC00000FC0
ENDCHAR
STARTCHAR I
ENCODING 73
SWIDTH 294 0
DWIDTH 18 0
BBX 6 45 6 0
BITMAP
FC
FC
FC
FC
FC
FC
FC
FC
FC
FC
FC
FC
FC
FC
FC
FC
FC
FC
FC
FC
FC
FC
FC
FC
FC
FC
FC
FC
FC
FC
FC
FC
FC
FC
FC
FC
FC
FC
FC
FC
FC
FC
FC
FC
FC
ENDCHAR
STARTCHAR J
ENCODING 74
SWIDTH 294 0
DWIDTH 18 0
BBX 15 57 -3 -12
BITMAP
007E
007E
007E
007E
007E
007E
007E
007E
007E
007E
007E
007E
007E
007E
007E
007E
007E
007E
007E
007E
007E
007E
007E
007E
007E
007E
007E
007E
007E
007E
007E
007E
007E
007E
007E
007E
007E
007E
007E
007E
007E
007E
007E
007E
007E
007E
007E
00FC
00FC
00FC
01FC
07F8
FFF8
FFF0
FFE0
FF80
FE00
ENDCHAR
STARTCHAR K
ENCODING 75
SWIDTH 655 0
DWIDTH 41 0
BBX 36 45 6 0
BITMAP
FC00007F80
FC0000FF00
FC0001FE00
FC0007FC00
FC000FF800
FC001FF000
FC003FE000
FC007FC000
FC00FF8000
FC01FF0000
FC03FE0000
FC07FC0000
FC0FF80000
FC1FF00000
FC3FE00000
FC7FC00000
FCFF000000
FDFE000000
FFFC000000
FFF8000000
FFF0000000
FFF0000000
FFF8000000
FFFC000000
FDFE000000
FCFF000000
FC7F800000
FC3FC00000
FC1FE00000
FC0FF00000
FC07F80000
FC03FC0000
FC01FE0000
FC00FF0000
FC007F8000
FC003FC000
FC001FE000
FC000FF000
FC0007F800
FC0003FC00
FC0001FE00
FC0000FF00
FC00007F80
FC00003FE0
FC00001FF0
ENDCHAR
STARTCHAR L
ENCODING 76
SWIDTH 557 0
DWIDTH 35 0
BBX 28 45 6 0
BITMAP
FC000000
FC000000
FC000000
FC000000
FC000000
FC000000
FC000000
FC000000
FC000000
FC000000
FC000000
FC000000
FC000000
FC000000
FC000000
FC000000
FC000000
FC000000
FC000000
FC000000
FC000000
FC000000
FC000000
FC000000
FC000000
FC000000
FC000000
FC000000
FC000000
FC000000
FC000000
FC000000
FC000000
FC000000
FC000000
FC000000
FC000000
FC000000
FC000000
FC000000
FFFFFFF0
FFFFFFF0
FFFFFFF0
FFFFFFF0
FFFFFFF0
ENDCHAR
STARTCHAR M
ENCODING 77
SWIDTH 862 0
DWIDTH 54 0
BBX 41 45 6 0
BITMAP
FFE00003FF80
FFE00003FF80
FFE00003FF80
FFF00007FF80
FFF00007FF80
FFF00007FF80
FFF8000FFF80
FDF8000FDF80
FDFC001FDF80
FCFC001F9F80
FCFC001F9F80
FCFE003F9F80
FC7E003F1F80
FC7E003F1F80
FC7F007F1F80
FC3F007E1F80
FC3F80FE1F80
FC1F80FC1F80
FC1F80FC1F80
FC1FC1FC1F80
FC0FC1F81F80
FC0FC1F81F80
FC0FE3F81F80
FC07E3F01F80
FC07F7F01F80
FC03F7E01F80
FC03F7E01F80
FC03FFE01F80
FC01FFC01F80
FC01FFC01F80
FC01FFC01F80
FC00FF801F80
FC00FF801F80
FC007F001F80
FC007F001F80
FC007F001F80
FC0000001F80
FC0000001F80
FC0000001F80
FC0000001F80
FC0000001F80
FC0000001F80
FC0000001F80
FC0000001F80
FC0000001F80
ENDCHAR
STARTCHAR N
ENCODING 78
SWIDTH 748 0
DWIDTH 46 0
BBX 34 45 6 0
BITMAP
FF80000FC0
FF80000FC0
FFC0000FC0
FFC0000FC0
FFE0000FC0
FFE0000FC0
FFF0000FC0
FFF0000FC0
FFF8000FC0
FDF8000FC0
FDFC000FC0
FCFE000FC0
FCFE000FC0
FC7F000FC0
FC7F000FC0
FC3F800FC0
FC3F800FC0
FC1FC00FC0
FC1FC00FC0
FC0FE00FC0
FC07E00FC0
FC07F00FC0
FC03F00FC0
FC03F80FC0
FC01FC0FC0
FC01FC0FC0
FC00FE0FC0
FC00FE0FC0
FC007F0FC0
FC007F0FC0
FC003F8FC0
FC003F8FC0
FC001FCFC0
FC000FCFC0
FC000FEFC0
FC0007FFC0
FC0007FFC0
FC0003FFC0
FC0003FFC0
FC0001FFC0
FC0001FFC0
FC0000FFC0
FC0000FFC0
FC00007FC0
FC00007FC0
ENDCHAR
STARTCHAR O
ENCODING 79
SWIDTH 787 0
DWIDTH 49 0
BBX 42 47 4 -1
BITMAP
0000FFC00000
0007FFF80000
001FFFFE0000
007FFFFF8000
00FFFFFFC000
01FF807FE000
03FC000FF000
07F80007F800
0FE00001FC00
1FC00000FE00
1FC00000FE00
3F8000007F00
3F0000003F00
3F0000003F00
7E0000001F80
7E0000001F80
7E0000001F80
FE0000001F80
FC0000000FC0
FC0000000FC0
FC0000000FC0
FC0000000FC0
FC0000000FC0
FC0000000FC0
FC0000000FC0
FC0000000FC0
FC0000000FC0
FC0000000FC0
FC0000000FC0
FE0000001F80
7E0000001F80
7E0000001F80
7E0000001F80
3F0000003F00
3F0000003F00
3F8000007F00
1FC00000FE00
1FC00000FE00
0FE00001FC00
07F80007F800
03FC000FF000
01FF807FE000
00FFFFFFC000
007FFFFF8000
001FFFFF0000
0007FFF80000
0000FFC00000
ENDCHAR
STARTCHAR P
ENCODING 80
SWIDTH 603 0
DWIDTH 37 0
BBX 29 45 6 0
BITMAP
FFFFE000
FFFFFC00
FFFFFF00
FFFFFF80
FFFFFFC0
FC007FE0
FC000FF0
FC0007F0
FC0003F0
FC0003F8
FC0001F8
FC0001F8
FC0001F8
FC0001F8
FC0001F8
FC0001F8
FC0001F8
FC0003F8
FC0003F0
FC0007F0
FC000FF0
FC003FE0
FFFFFFC0
FFFFFF80
FFFFFF00
FFFFFC00
FFFFE000
FC000000
FC000000
FC000000
FC000000
FC000000
FC000000
FC000000
FC000000
FC000000
FC000000
FC000000
FC000000
FC000000
FC000000
FC000000
FC000000
FC000000
FC000000
ENDCHAR
STARTCHAR Q
ENCODING 81
SWIDTH 787 0
DWIDTH 49 0
BBX 42 54 4 -8
BITMAP
0000FFC00000
0007FFF80000
001FFFFE0000
007FFFFF8000
00FFFFFFC000
01FF807FE000
03FC000FF000
07F80007F800
0FE00001FC00
1FC00000FE00
1FC00000FE00
3F8000007F00
3F0000003F00
3F0000003F00
7E0000001F80
7E0000001F80
7E0000001F80
FE0000001F80
FC0000000FC0
FC0000000FC0
FC0000000FC0
FC0000000FC0
FC0000000FC0
FC0000000FC0
FC0000000FC0
FC0000000FC0
FC0000000FC0
FC0000000FC0
FC0000000FC0
FE0000001F80
7E0000001F80
7E0000001F80
7E0000001F80
3F0000003F00
3F0000003F00
3F8000007F00
1FC00000FE00
1FC00000FE00
0FE00001FC00
07F80007F800
03FC000FF000
01FF807FE000
00FFFFFFC000
007FFFFF8000
001FFFFF0000
0007FFFC0000
0000FFFE0000
0000007F0000
0000003F8000
0000001FC000
0000000FE000
00000007F000
00000003F800
00000001FC00
ENDCHAR
STARTCHAR R
ENCODING 82
SWIDTH 694 0
DWIDTH 43 0
BBX 35 45 6 0
BITMAP
FFFFE00000
FFFFFC0000
FFFFFF0000
FFFFFFC000
FFFFFFC000
FC003FE000
FC000FF000
FC0007F000
FC0003F000
FC0003F800
FC0001F800
FC0001F800
FC0001F800
FC0001F800
FC0001F800
FC0001F800
FC0003F800
FC0003F000
FC0007F000
FC000FE000
FC003FE000
FFFFFFC000
FFFFFF8000
FFFFFE0000
FFFFFE0000
FFFFFF0000
FC00FF8000
FC003FC000
FC001FE000
FC000FE000
FC0007F000
FC0007F000
FC0003F800
FC0001F800
FC0001FC00
FC0000FC00
FC0000FE00
FC00007E00
FC00007F00
FC00003F00
FC00003F80
FC00001F80
FC00001FC0
FC00000FC0
FC00000FE0
ENDCHAR
STARTCHAR S
ENCODING 83
SWIDTH 634 0
DWIDTH 39 0
BBX 32 47 4 -1
BITMAP
001FFC00
01FFFFE0
03FFFFF8
0FFFFFF8
1FFFFFF8
3FF007F8
3F800078
7F000008
7E000000
FE000000
FC000000
FC000000
FC000000
FC000000
FC000000
FE000000
FE000000
7F800000
7FE00000
3FFE0000
1FFFF000
0FFFFE00
07FFFFC0
01FFFFE0
003FFFF0
0003FFF8
00001FFC
000003FE
000001FE
000000FE
0000007F
0000003F
0000003F
0000003F
0000003F
0000003F
0000003F
0000007F
8000007E
E00000FE
FC0003FC
FFC01FFC
FFFFFFF8
FFFFFFF0
7FFFFFC0
0FFFFF00
007FF800
ENDCHAR
STARTCHAR T
ENCODING 84
SWIDTH 610 0
DWIDTH 38 0
BBX 38 45 0 0
BITMAP
FFFFFFFFFC
FFFFFFFFFC
FFFFFFFFFC
FFFFFFFFFC
FFFFFFFFFC
0000FC0000
0000FC0000
0000FC0000
0000FC0000
0000FC0000
0000FC0000
0000FC0000
0000FC0000
0000FC0000
0000FC0000
0000FC0000
0000FC0000
0000FC0000
0000FC0000
0000FC0000
0000FC0000
0000FC0000
0000FC0000
0000FC0000
0000FC0000
0000FC0000
0000FC0000
0000FC0000
0000FC0000
0000FC0000
0000FC0000
0000FC0000
0000FC0000
0000FC0000
0000FC0000
0000FC0000
0000FC0000
0000FC0000
0000FC0000
0000FC0000
0000FC0000
0000FC0000
0000FC0000
0000FC0000
0000FC0000
ENDCHAR
STARTCHAR U
ENCODING 85
SWIDTH 731 0
DWIDTH 45 0
BBX 34 46 6 -1
BITMAP
FC00000FC0
FC00000FC0
FC00000FC0
FC00000FC0
FC00000FC0
FC00000FC0
FC00000FC0
FC00000FC0
FC00000FC0
FC00000FC0
FC00000FC0
FC00000FC0
FC00000FC0
FC00000FC0
FC00000FC0
FC00000FC0
FC00000FC0
FC00000FC0
FC00000FC0
FC00000FC0
FC00000FC0
FC00000FC0
FC00000FC0
FC00000FC0
FC00000FC0
FC00000FC0
FC00000FC0
FC00000FC0
FC00000FC0
FC00000FC0
FC00000FC0
FC00000FC0
FC00000FC0
FE00001FC0
7E00001F80
7E00001F80
7F00003F80
3F00003F00
3F80007F00
1FE001FE00
1FF807FE00
0FFFFFFC00
07FFFFF800
01FFFFE000
007FFF8000
000FFC0000
ENDCHAR
STARTCHAR V
ENCODING 86
SWIDTH 684 0
DWIDTH 42 0
BBX 41 45 0 0
BITMAP
FE0000003F80
7E0000003F00
7E0000003F00
7F0000007F00
3F0000007E00
3F800000FE00
3F800000FE00
1F800000FC00
1FC00001FC00
0FC00001F800
0FC00001F800
0FE00003F800
07E00003F000
07F00007F000
07F00007F000
03F00007E000
03F8000FE000
01F8000FC000
01F8000FC000
01FC001FC000
00FC001F8000
00FE003F8000
007E003F0000
007E003F0000
007F007F0000
003F007E0000
003F007E0000
003F80FE0000
001F80FC0000
001FC1FC0000
000FC1F80000
000FC1F80000
000FE3F80000
0007E3F00000
0007F7F00000
0007F7F00000
0003F7E00000
0003FFE00000
0001FFC00000
0001FFC00000
0001FFC00000
0000FF800000
0000FF800000
00007F800000
00007F000000
ENDCHAR
STARTCHAR W
ENCODING 87
SWIDTH 988 0
DWIDTH 61 0
BBX 57 45 2 0
BITMAP
FC00007F00001F80
FE0000FF80003F80
7E0000FF80003F00
7E0000FF80003F00
7E0000FF80003F00
7F0001FFC0007F00
3F0001F7C0007E00
3F0001F7C0007E00
3F0001F7C0007E00
3F8003F7E000FE00
1F8003E3E000FC00
1F8003E3E000FC00
1F8003E3E000FC00
1FC003E3F001FC00
0FC007C1F001F800
0FC007C1F001F800
0FC007C1F001F800
0FE007C1F003F800
07E00F80F803F000
07E00F80F803F000
07E00F80F803F000
07F00F80F807F000
03F01F007C07E000
03F01F007C07E000
03F01F007C07E000
03F81F007C0FE000
01F83E003E0FC000
01F83E003E0FC000
01F83E003E0FC000
01FC3E003E1FC000
00FC7E001F1F8000
00FC7C001F1F8000
00FC7C001F1F8000
00FE7C001F3F8000
007EFC001FBF0000
007EF8000FBF0000
007EF8000FBF0000
007FF8000FFF0000
003FF8000FFE0000
003FF00007FE0000
003FF00007FE0000
003FF00007FE0000
001FF00007FC0000
001FE00003FC0000
001FE00003FC0000
ENDCHAR
STARTCHAR X
ENCODING 88
SWIDTH 685 0
DWIDTH 42 0
BBX 39 45 2 0
BITMAP
3FC00003FC
1FC00003F8
0FE00007F0
0FF0000FF0
07F0000FE0
03F8001FC0
03FC003FC0
01FC003F80
00FE007F00
00FF00FF00
007F00FE00
003F81FC00
003FC3FC00
001FC3F800
000FE7F000
000FFFE000
0007FFE000
0003FFC000
0001FF8000
0001FF8000
0000FF0000
0000FE0000
0001FF0000
0003FF8000
0003FF8000
0007FFC000
000FFFE000
000FEFE000
001FC7F000
003FC7F800
003F83F800
007F01FC00
00FF01FE00
00FE00FE00
01FC007F00
03FC007F80
03F8003F80
07F0001FC0
0FF0001FE0
0FE0000FE0
1FC00007F0
3FC00007F8
3F800003F8
7F000001FC
FF000001FE
ENDCHAR
STARTCHAR Y
ENCODING 89
SWIDTH 610 0
DWIDTH 38 0
BBX 38 45 0 0
BITMAP
FF000003FC
7F000003F8
3F800007F0
3FC0000FF0
1FC0000FE0
0FE0001FC0
0FF0003FC0
07F0003F80
03F8007F00
03FC00FF00
01FC00FE00
00FE01FC00
00FF03FC00
007F03F800
003F87F000
001FCFE000
001FCFE000
000FFFC000
0007FF8000
0007FF8000
0003FF0000
0001FE0000
0001FE0000
0000FC0000
0000FC0000
0000FC0000
0000FC0000
0000FC0000
0000FC0000
0000FC0000
0000FC0000
0000FC0000
0000FC0000
0000FC0000
0000FC0000
0000FC0000
0000FC0000
0000FC0000
0000FC0000
0000FC0000
0000FC0000
0000FC0000
0000FC0000
0000FC0000
0000FC0000
ENDCHAR
STARTCHAR Z
ENCODING 90
SWIDTH 685 0
DWIDTH 42 0
BBX 37 45 3 0
BITMAP
7FFFFFFFF0
7FFFFFFFF0
7FFFFFFFF0
7FFFFFFFF0
7FFFFFFFF0
0000000FE0
0000001FE0
0000003FC0
0000007F80
000000FF00
000000FE00
000001FE00
000003FC00
000007F800
00000FF000
00000FE000
00001FE000
00003FC000
00007F8000
00007F0000
0000FE0000
0001FE0000
0003FC0000
0007F80000
0007F00000
000FE00000
001FE00000
003FC00000
007F800000
007F000000
00FE000000
01FE000000
03FC000000
07F8000000
07F0000000
0FF0000000
1FE0000000
3FC0000000
7F80000000
7F00000000
FFFFFFFFF8
FFFFFFFFF8
FFFFFFFFF8
FFFFFFFFF8
FFFFFFFFF8
ENDCHAR
STARTCHAR bracketleft
ENCODING 91
SWIDTH 390 0
DWIDTH 24 0
BBX 13 55 5 -8
BITMAP
FFF8
FFF8
FFF8
FFF8
FFF8
FC00
FC00
FC00
FC00
FC00
FC00
FC00
FC00
FC00
FC00
FC00
FC00
FC00
FC00
FC00
FC00
FC00
FC00
FC00
FC00
FC00
FC00
FC00
FC00
FC00
FC00
FC00
FC00
FC00
FC00
FC00
FC00
FC00
FC00
FC00
FC00
FC00
FC00
FC00
FC00
FC00
FC00
FC00
FC00
FC00
FFF8
FFF8
FFF8
FFF8
FFF8
ENDCHAR
STARTCHAR backslash
ENCODING 92
SWIDTH 336 0
DWIDTH 21 0
BBX 21 51 0 -6
BITMAP
F80000
FC0000
7C0000
7C0000
7E0000
3E0000
3E0000
3F0000
1F0000
1F0000
1F0000
0F8000
0F8000
0F8000
0FC000
07C000
07C000
07E000
03E000
03E000
03F000
01F000
01F000
01F800
00F800
00F800
00F800
00FC00
007C00
007C00
007E00
003E00
003E00
003F00
001F00
001F00
001F80
000F80
000F80
000F80
0007C0
0007C0
0007C0
0007E0
0003E0
0003E0
0003F0
0001F0
0001F0
0001F8
0000F8
ENDCHAR
STARTCHAR bracketright
ENCODING 93
SWIDTH 390 0
DWIDTH 24 0
BBX 13 55 6 -8
BITMAP
FFF8
FFF8
FFF8
FFF8
FFF8
01F8
01F8
01F8
01F8
01F8
01F8
01F8
01F8
01F8
01F8
01F8
01F8
01F8
01F8
01F8
01F8
01F8
01F8
01F8
01F8
01F8
01F8
01F8
01F8
01F8
01F8
01F8
01F8
01F8
01F8
01F8
01F8
01F8
01F8
01F8
01F8
01F8
01F8
01F8
01F8
01F8
01F8
01F8
01F8
01F8
FFF8
FFF8
FFF8
FFF8
FFF8
ENDCHAR
STARTCHAR asciicircum
ENCODING 94
SWIDTH 837 0
DWIDTH 52 0
BBX 39 17 7 28
BITMAP
0000FE0000
0001FF0000
0003FF8000
0007FFC000
000FFFE000
001FEFF000
003FC7F800
007F83FC00
00FF01FE00
01FC007F00
03F8003F80
07F0001FC0
0FE0000FE0
1FC00007F0
3F800003F8
7F000001FC
FE000000FE
ENDCHAR
STARTCHAR underscore
ENCODING 95
SWIDTH 500 0
DWIDTH 31 0
BBX 33 5 -1 -15
BITMAP
FFFFFFFF80
FFFFFFFF80
FFFFFFFF80
FFFFFFFF80
FFFFFFFF80
ENDCHAR
STARTCHAR grave
ENCODING 96
SWIDTH 500 0
DWIDTH 31 0
BBX 15 11 5 39
BITMAP
FE00
7E00
3F00
1F80
0FC0
07E0
03E0
01F0
00F8
007C
003E
ENDCHAR
STARTCHAR a
ENCODING 97
SWIDTH 612 0
DWIDTH 38 0
BBX 29 36 3 -1
BITMAP
007FE000
03FFFC00
1FFFFE00
3FFFFF80
3FFFFFC0
3F007FC0
38001FE0
200007E0
000003F0
000003F0
000001F0
000001F8
000001F8
000001F8
003FFFF8
03FFFFF8
0FFFFFF8
1FFFFFF8
3FFFFFF8
7FE001F8
7F0001F8
7E0001F8
FE0001F8
FC0001F8
FC0003F8
FC0003F8
FC0007F8
FC0007F8
FE000FF8
7F001FF8
7FC0FFF8
3FFFFDF8
3FFFF9F8
1FFFF1F8
07FFC1F8
01FF0000
ENDCHAR
STARTCHAR b
ENCODING 98
SWIDTH 634 0
DWIDTH 39 0
BBX 30 48 6 -1
BITMAP
FC000000
FC000000
FC000000
FC000000
FC000000
FC000000
FC000000
FC000000
FC000000
FC000000
FC000000
FC000000
FC07F000
FC3FFC00
FC7FFF00
FCFFFF80
FDFFFFC0
FFF03FE0
FFC00FE0
FF8007F0
FF0003F0
FF0003F8
FE0001F8
FE0001F8
FE0001F8
FC0000FC
FC0000FC
FC0000FC
FC0000FC
FC0000FC
FC0000FC
FC0000FC
FC0000FC
FC0000FC
FC0000FC
FE0001FC
FE0001F8
FE0001F8
FF0003F8
FF0003F0
FF8007F0
FFC00FE0
FFF03FE0
FDFFFFC0
FCFFFF80
FC7FFF00
FC3FFC00
0007F000
ENDCHAR
STARTCHAR c
ENCODING 99
SWIDTH 549 0
DWIDTH 34 0
BBX 27 36 3 -1
BITMAP
000FF800
007FFF00
01FFFFC0
03FFFFE0
07FFFFE0
0FFC07E0
1FE000E0
1FC00020
3F800000
3F000000
7F000000
7E000000
7E000000
FC000000
FC000000
FC000000
FC000000
FC000000
FC000000
FC000000
FC000000
FC000000
FC000000
7E000000
7E000000
7F000000
3F000000
3F800000
1FC00020
1FE000E0
0FFC07E0
07FFFFE0
03FFFFE0
01FFFFC0
007FFF00
000FF800
ENDCHAR
STARTCHAR d
ENCODING 100
SWIDTH 634 0
DWIDTH 39 0
BBX 30 48 3 -1
BITMAP
000000FC
000000FC
000000FC
000000FC
000000FC
000000FC
000000FC
000000FC
000000FC
000000FC
000000FC
000000FC
003F80FC
00FFF0FC
03FFF8FC
07FFFCFC
0FFFFEFC
1FF03FFC
1FC00FFC
3F8007FC
3F0003FC
7F0003FC
7E0001FC
7E0001FC
FE0001FC
FC0000FC
FC0000FC
FC0000FC
FC0000FC
FC0000FC
FC0000FC
FC0000FC
FC0000FC
FC0000FC
FC0000FC
FE0001FC
7E0001FC
7E0001FC
7F0003FC
3F0003FC
3F8007FC
1FC00FFC
1FF03FFC
0FFFFEFC
07FFFCFC
03FFF8FC
00FFF0FC
003F8000
ENDCHAR
STARTCHAR e
ENCODING 101
SWIDTH 615 0
DWIDTH 38 0
BBX 31 36 3 -1
BITMAP
000FF800
007FFE00
01FFFF80
03FFFFC0
07FFFFE0
0FF81FF0
1FC007F8
1F8001F8
3F0001FC
3F0000FC
7E0000FC
7E00007E
7C00007E
FC00007E
FFFFFFFE
FFFFFFFE
FFFFFFFE
FFFFFFFE
FFFFFFFE
FC000000
FC000000
FC000000
FE000000
7E000000
7E000000
7F000000
3F000000
3F800000
1FC00004
1FE0001C
0FFC01FC
07FFFFFC
03FFFFFC
00FFFFF8
007FFFC0
0007FE00
ENDCHAR
STARTCHAR f
ENCODING 102
SWIDTH 352 0
DWIDTH 22 0
BBX 22 47 2 0
BITMAP
000FFC
007FFC
00FFFC
01FFFC
03FFFC
03F800
07F000
07E000
07E000
07E000
07E000
07E000
07E000
FFFFF0
FFFFF0
FFFFF0
FFFFF0
FFFFF0
07E000
07E000
07E000
07E000
07E000
07E000
07E000
07E000
07E000
07E000
07E000
07E000
07E000
07E000
07E000
07E000
07E000
07E000
07E000
07E000
07E000
07E000
07E000
07E000
07E000
07E000
07E000
07E000
07E000
ENDCHAR
STARTCHAR g
ENCODING 103
SWIDTH 634 0
DWIDTH 39 0
BBX 30 48 3 -13
BITMAP
003F8000
01FFF0FC
03FFF8FC
07FFFCFC
0FFFFEFC
1FF03FFC
1FC00FFC
3F8007FC
3F0003FC
7F0003FC
7E0001FC
7E0001FC
FE0001FC
FC0000FC
FC0000FC
FC0000FC
FC0000FC
FC0000FC
FC0000FC
FC0000FC
FC0000FC
FC0000FC
FE0001FC
7E0001FC
7E0001FC
7F0003FC
3F0003FC
3F8007FC
1FC00FFC
1FF03FFC
0FFFFEFC
07FFFCFC
03FFF8FC
01FFF0FC
003F80FC
000000FC
000001F8
000001F8
000001F8
000003F8
080007F0
0E000FF0
0FC07FE0
0FFFFFC0
0FFFFF80
07FFFF00
01FFFC00
003FF000
ENDCHAR
STARTCHAR h
ENCODING 104
SWIDTH 633 0
DWIDTH 39 0
BBX 28 47 6 0
BITMAP
FC000000
FC000000
FC000000
FC000000
FC000000
FC000000
FC000000
FC000000
FC000000
FC000000
FC000000
FC000000
FC07F000
FC1FFE00
FC7FFF00
FCFFFF80
FDFFFFC0
FFF03FC0
FFC01FE0
FF800FE0
FF0007E0
FE0007F0
FE0003F0
FE0003F0
FC0003F0
FC0003F0
FC0003F0
FC0003F0
FC0003F0
FC0003F0
FC0003F0
FC0003F0
FC0003F0
FC0003F0
FC0003F0
FC0003F0
FC0003F0
FC0003F0
FC0003F0
FC0003F0
FC0003F0
FC0003F0
FC0003F0
FC0003F0
FC0003F0
FC0003F0
FC0003F0
ENDCHAR
STARTCHAR i
ENCODING 105
SWIDTH 277 0
DWIDTH 17 0
BBX 6 47 6 0
BITMAP
FC
FC
FC
FC
FC
FC
FC
00
00
00
00
00
00
FC
FC
FC
FC
FC
FC
FC
FC
FC
FC
FC
FC
FC
FC
FC
FC
FC
FC
FC
FC
FC
FC
FC
FC
FC
FC
FC
FC
FC
FC
FC
FC
FC
FC
ENDCHAR
STARTCHAR j
ENCODING 106
SWIDTH 277 0
DWIDTH 17 0
BBX 13 60 -1 -13
BITMAP
01F8
01F8
01F8
01F8
01F8
01F8
01F8
0000
0000
0000
0000
0000
0000
01F8
01F8
01F8
01F8
01F8
01F8
01F8
01F8
01F8
01F8
01F8
01F8
01F8
01F8
01F8
01F8
01F8
01F8
01F8
01F8
01F8
01F8
01F8
01F8
01F8
01F8
01F8
01F8
01F8
01F8
01F8
01F8
01F8
01F8
01F8
01F8
01F8
01F8
01F8
03F8
03F0
0FF0
FFE0
FFE0
FFC0
FF80
FC00
ENDCHAR
STARTCHAR k
ENCODING 107
SWIDTH 579 0
DWIDTH 36 0
BBX 30 47 6 0
BITMAP
FC000000
FC000000
FC000000
FC000000
FC000000
FC000000
FC000000
FC000000
FC000000
FC000000
FC000000
FC000000
FC000000
FC000FF0
FC003FE0
FC007FC0
FC00FF80
FC01FF00
FC03FE00
FC07FC00
FC0FF800
FC1FF000
FC3FE000
FC7FC000
FDFF0000
FFFE0000
FFFC0000
FFF80000
FFF00000
FFF00000
FFF80000
FFFC0000
FDFE0000
FCFF0000
FC7F8000
FC3FC000
FC1FE000
FC0FF000
FC07F800
FC03FC00
FC01FE00
FC00FF00
FC007F80
FC003FC0
FC001FE0
FC000FF0
FC0007FC
ENDCHAR
STARTCHAR l
ENCODING 108
SWIDTH 277 0
DWIDTH 17 0
BBX 6 47 6 0
BITMAP
FC
FC
FC
FC
FC
FC
FC
FC
FC
FC
FC
FC
FC
FC
FC
FC
FC
FC
FC
FC
FC
FC
FC
FC
FC
FC
FC
FC
FC
FC
FC
FC
FC
FC
FC
FC
FC
FC
FC
FC
FC
FC
FC
FC
FC
FC
FC
ENDCHAR
STARTCHAR m
ENCODING 109
SWIDTH 974 0
DWIDTH 60 0
BBX 50 35 6 0
BITMAP
0007F0001FE000
FC3FFE00FFF800
FC7FFF01FFFC00
FCFFFF83FFFE00
FDFFFFC7FFFF00
FFF03FCFC0FF00
FFC00FFF003F80
FF800FFE003F80
FF0007FC001F80
FE0007F8001FC0
FE0003F8000FC0
FE0003F8000FC0
FC0003F0000FC0
FC0003F0000FC0
FC0003F0000FC0
FC0003F0000FC0
FC0003F0000FC0
FC0003F0000FC0
FC0003F0000FC0
FC0003F0000FC0
FC0003F0000FC0
FC0003F0000FC0
FC0003F0000FC0
FC0003F0000FC0
FC0003F0000FC0
FC0003F0000FC0
FC0003F0000FC0
FC0003F0000FC0
FC0003F0000FC0
FC0003F0000FC0
FC0003F0000FC0
FC0003F0000FC0
FC0003F0000FC0
FC0003F0000FC0
FC0003F0000FC0
ENDCHAR
STARTCHAR n
ENCODING 110
SWIDTH 633 0
DWIDTH 39 0
BBX 28 35 6 0
BITMAP
0007F000
FC1FFE00
FC7FFF00
FCFFFF80
FDFFFFC0
FFF03FC0
FFC01FE0
FF800FE0
FF0007E0
FE0007F0
FE0003F0
FE0003F0
FC0003F0
FC0003F0
FC0003F0
FC0003F0
FC0003F0
FC0003F0
FC0003F0
FC0003F0
FC0003F0
FC0003F0
FC0003F0
FC0003F0
FC0003F0
FC0003F0
FC0003F0
FC0003F0
FC0003F0
FC0003F0
FC0003F0
FC0003F0
FC0003F0
FC0003F0
FC0003F0
ENDCHAR
STARTCHAR o
ENCODING 111
SWIDTH 611 0
DWIDTH 38 0
BBX 31 36 3 -1
BITMAP
001FF000
00FFFE00
01FFFF00
07FFFFC0
0FFFFFE0
0FF03FE0
1FE00FF0
3F8003F8
3F8003F8
7F0001FC
7E0000FC
7E0000FC
FE0000FC
FC00007E
FC00007E
FC00007E
FC00007E
FC00007E
FC00007E
FC00007E
FC00007E
FC00007E
FC00007E
FE0000FC
7E0000FC
7E0000FC
7F0001FC
3F8003F8
3F8003F8
1FE00FF0
0FF01FE0
0FFFFFE0
07FFFFC0
01FFFF00
00FFFE00
001FF000
ENDCHAR
STARTCHAR p
ENCODING 112
SWIDTH 634 0
DWIDTH 39 0
BBX 30 48 6 -13
BITMAP
0007F000
FC3FFC00
FC7FFF00
FCFFFF80
FDFFFFC0
FFF03FE0
FFC00FE0
FF8007F0
FF0003F0
FF0003F8
FE0001F8
FE0001F8
FE0001F8
FC0000FC
FC0000FC
FC0000FC
FC0000FC
FC0000FC
FC0000FC
FC0000FC
FC0000FC
FC0000FC
FC0000FC
FE0001FC
FE0001F8
FE0001F8
FF0003F8
FF0003F0
FF8007F0
FFC00FE0
FFF03FE0
FDFFFFC0
FCFFFF80
FC7FFF00
FC3FFC00
FC07F000
FC000000
FC000000
FC000000
FC000000
FC000000
FC000000
FC000000
FC000000
FC000000
FC000000
FC000000
FC000000
ENDCHAR
STARTCHAR q
ENCODING 113
SWIDTH 634 0
DWIDTH 39 0
BBX 30 48 3 -13
BITMAP
003F8000
00FFF0FC
03FFF8FC
07FFFCFC
0FFFFEFC
1FF03FFC
1FC00FFC
3F8007FC
3F0003FC
7F0003FC
7E0001FC
7E0001FC
FE0001FC
FC0000FC
FC0000FC
FC0000FC
FC0000FC
FC0000FC
FC0000FC
FC0000FC
FC0000FC
FC0000FC
FC0000FC
FE0001FC
7E0001FC
7E0001FC
7F0003FC
3F0003FC
3F8007FC
1FC00FFC
1FF03FFC
0FFFFEFC
07FFFCFC
03FFF8FC
00FFF0FC
003F80FC
000000FC
000000FC
000000FC
000000FC
000000FC
000000FC
000000FC
000000FC
000000FC
000000FC
000000FC
000000FC
ENDCHAR
STARTCHAR r
ENCODING 114
SWIDTH 411 0
DWIDTH 25 0
BBX 20 35 6 0
BITMAP
0007F0
FC3FF0
FC7FF0
FCFFF0
FDFFF0
FFF010
FFC000
FF8000
FF0000
FF0000
FE0000
FE0000
FC0000
FC0000
FC0000
FC0000
FC0000
FC0000
FC0000
FC0000
FC0000
FC0000
FC0000
FC0000
FC0000
FC0000
FC0000
FC0000
FC0000
FC0000
FC0000
FC0000
FC0000
FC0000
FC0000
ENDCHAR
STARTCHAR s
ENCODING 115
SWIDTH 520 0
DWIDTH 32 0
BBX 26 36 3 -1
BITMAP
00FFE000
07FFFE00
0FFFFF00
3FFFFF00
3FFFFF00
7FC01F00
7F000100
FE000000
FC000000
FC000000
FC000000
FC000000
FE000000
7F000000
7FC00000
3FFC0000
1FFFC000
0FFFF800
03FFFC00
007FFF00
0003FF80
00007F80
00001FC0
00001FC0
00000FC0
00000FC0
00000FC0
00000FC0
80001FC0
F0003F80
FE00FF80
FFFFFF00
FFFFFE00
FFFFFC00
3FFFF000
03FF8000
ENDCHAR
STARTCHAR t
ENCODING 116
SWIDTH 392 0
DWIDTH 24 0
BBX 21 44 2 0
BITMAP
0FC000
0FC000
0FC000
0FC000
0FC000
0FC000
0FC000
0FC000
0FC000
0FC000
FFFFF8
FFFFF8
FFFFF8
FFFFF8
FFFFF8
0FC000
0FC000
0FC000
0FC000
0FC000
0FC000
0FC000
0FC000
0FC000
0FC000
0FC000
0FC000
0FC000
0FC000
0FC000
0FC000
0FC000
0FC000
0FC000
0FC000
0FC000
0FC000
0FE000
07F000
07FFF8
03FFF8
03FFF8
00FFF8
001FF8
ENDCHAR
STARTCHAR u
ENCODING 117
SWIDTH 633 0
DWIDTH 39 0
BBX 28 35 6 -1
BITMAP
FC0003F0
FC0003F0
FC0003F0
FC0003F0
FC0003F0
FC0003F0
FC0003F0
FC0003F0
FC0003F0
FC0003F0
FC0003F0
FC0003F0
FC0003F0
FC0003F0
FC0003F0
FC0003F0
FC0003F0
FC0003F0
FC0003F0
FC0003F0
FC0003F0
FC0003F0
FC0003F0
FC0007F0
FC0007F0
FE0007F0
7E000FF0
7F001FF0
7F803FF0
3FC0FFF0
3FFFFBF0
1FFFF3F0
0FFFE3F0
07FFC3F0
00FE0000
ENDCHAR
STARTCHAR v
ENCODING 118
SWIDTH 591 0
DWIDTH 37 0
BBX 33 34 2 0
BITMAP
FE00003F80
7E00003F00
7E00003F00
7F00007F00
3F00007E00
3F00007E00
3F8000FE00
1F8000FC00
1FC001FC00
0FC001F800
0FC001F800
0FE003F800
07E003F000
07E003F000
07F007F000
03F007E000
03F80FE000
01F80FC000
01F80FC000
01FC1FC000
00FC1F8000
00FC1F8000
00FE3F8000
007E3F0000
007F7F0000
003F7E0000
003F7E0000
003FFE0000
001FFC0000
001FFC0000
001FFC0000
000FF80000
000FF80000
0007F00000
ENDCHAR
STARTCHAR w
ENCODING 119
SWIDTH 817 0
DWIDTH 51 0
BBX 46 34 3 0
BITMAP
FC001FE000FC
FE001FE001FC
7E001FE001F8
7E001FF001F8
7E003FF001F8
7F003FF003F8
3F003FF003F0
3F007FF803F0
3F007CF803F0
1F807CF807F0
1F807CF807E0
1F80FCFC07E0
1FC0F87C0FE0
0FC0F87C0FC0
0FC0F87C0FC0
0FC1F83E0FC0
0FE1F03E1FC0
07E1F03E1F80
07E1F03E1F80
07E3E01F1F80
07F3E01F3F80
03F3E01F3F00
03F7E01FBF00
03F7C00FBF00
03FFC00FFF00
01FFC00FFE00
01FFC00FFE00
01FF8007FE00
00FF8007FE00
00FF8007FC00
00FF8007FC00
00FF0003FC00
007F0003F800
007F0003F800
ENDCHAR
STARTCHAR x
ENCODING 120
SWIDTH 591 0
DWIDTH 37 0
BBX 33 34 2 0
BITMAP
7F8000FF00
3FC001FE00
1FC001FC00
0FE003F800
0FF007F800
07F80FF000
03F80FE000
01FC1FC000
01FE3FC000
00FF3F8000
007F7F0000
003FFF0000
003FFE0000
001FFC0000
000FF80000
000FF80000
0007F00000
000FF80000
001FF80000
001FFC0000
003FFE0000
007FFF0000
00FF7F0000
00FE3F8000
01FC3FC000
03FC1FE000
07F80FE000
07F007F000
0FE007F800
1FE003FC00
1FC001FC00
3F8000FE00
7F8000FF00
FF00007F80
ENDCHAR
STARTCHAR y
ENCODING 121
SWIDTH 591 0
DWIDTH 37 0
BBX 33 47 2 -13
BITMAP
FE00003F80
7E00003F00
7F00007F00
7F00007F00
3F00007E00
3F8000FE00
1F8000FC00
1FC001FC00
1FC001FC00
0FC001F800
0FE003F800
07E003F000
07F007F000
03F007F000
03F007E000
03F80FE000
01F80FC000
01FC1FC000
00FC1FC000
00FC1F8000
00FE3F8000
007E3F0000
007F7F0000
003F7F0000
003FFE0000
003FFE0000
001FFC0000
001FFC0000
000FFC0000
000FF80000
000FF80000
0007F00000
0007F00000
0007E00000
0007E00000
000FE00000
000FC00000
001FC00000
001F800000
003F800000
003F800000
00FF000000
1FFF000000
1FFE000000
1FFC000000
1FF8000000
1FE0000000
ENDCHAR
STARTCHAR z
ENCODING 122
SWIDTH 524 0
DWIDTH 33 0
BBX 27 34 3 0
BITMAP
7FFFFFE0
7FFFFFE0
7FFFFFE0
7FFFFFE0
7FFFFFE0
00001FE0
00003FC0
00007F80
00007F00
0000FE00
0001FE00
0003FC00
0007F800
000FF000
000FE000
001FE000
003FC000
007F8000
00FF0000
00FF0000
01FE0000
03FC0000
07F80000
0FF00000
0FF00000
1FE00000
3FC00000
7F800000
FF000000
FFFFFFE0
FFFFFFE0
FFFFFFE0
FFFFFFE0
FFFFFFE0
ENDCHAR
STARTCHAR braceleft
ENCODING 123
SWIDTH 636 0
DWIDTH 39 0
BBX 24 57 8 -10
BITMAP
0000FF
0007FF
001FFF
001FFF
003FFF
003FC0
007F00
007F00
007E00
007E00
007E00
007E00
007E00
007E00
007E00
007E00
007E00
007E00
007E00
007E00
007E00
007E00
00FE00
00FC00
01FC00
03FC00
FFF800
FFE000
FF8000
FFE000
FFF800
07FC00
01FC00
00FC00
00FE00
007E00
007E00
007E00
007E00
007E00
007E00
007E00
007E00
007E00
007E00
007E00
007E00
007E00
007E00
007F00
007F00
003FC0
003FFF
001FFF
001FFF
0007FF
0000FF
ENDCHAR
STARTCHAR bar
ENCODING 124
SWIDTH 336 0
DWIDTH 21 0
BBX 5 62 8 -15
BITMAP
F8
F8
F8
F8
F8
F8
F8
F8
F8
F8
F8
F8
F8
F8
F8
F8
F8
F8
F8
F8
F8
F8
F8
F8
F8
F8
F8
F8
F8
F8
F8
F8
F8
F8
F8
F8
F8
F8
F8
F8
F8
F8
F8
F8
F8
F8
F8
F8
F8
F8
F8
F8
F8
F8
F8
F8
F8
F8
F8
F8
F8
F8
ENDCHAR
STARTCHAR braceright
ENCODING 125
SWIDTH 636 0
DWIDTH 39 0
BBX 24 57 8 -10
BITMAP
FF0000
FFE000
FFF800
FFF800
FFFC00
03FC00
00FE00
00FE00
007E00
007E00
007E00
007E00
007E00
007E00
007E00
007E00
007E00
007E00
007E00
007E00
007E00
007E00
007F00
003F00
003F80
003FE0
001FFF
0007FF
0001FF
0007FF
001FFF
003FE0
003F80
003F00
007F00
007E00
007E00
007E00
007E00
007E00
007E00
007E00
007E00
007E00
007E00
007E00
007E00
007E00
007E00
00FE00
00FE00
03FC00
FFFC00
FFF800
FFF800
FFE000
FF0000
ENDCHAR
STARTCHAR asciitilde
ENCODING 126
SWIDTH 837 0
DWIDTH 52 0
BBX 39 9 7 15
BITMAP
00FE000006
07FFE0000E
1FFFF8003E
7FFFFF80FE
FFFFFFFFFE
FE03FFFFFC
F8007FFFF0
E0000FFFC0
C00001FE00
ENDCHAR
STARTCHAR nonbreakingspace
ENCODING 160
SWIDTH 636 0
DWIDTH 39 0
BBX 1 1 0 0
BITMAP
00
ENDCHAR
STARTCHAR exclamdown
ENCODING 161
SWIDTH 400 0
DWIDTH 25 0
BBX 6 45 9 0
BITMAP
FC
FC
FC
FC
FC
FC
FC
FC
00
00
00
00
00
00
00
78
78
FC
FC
FC
FC
FC
FC
FC
FC
FC
FC
FC
FC
FC
FC
FC
FC
FC
FC
FC
FC
FC
FC
FC
FC
FC
FC
FC
FC
ENDCHAR
STARTCHAR cent
ENCODING 162
SWIDTH 636 0
DWIDTH 39 0
BBX 27 54 5 -10
BITMAP
0000E000
0000E000
0000E000
0000E000
0000E000
0000E000
0000E000
0000E000
0000E000
0007FC00
003FFF00
00FFFFC0
03FFFFE0
07FFFFE0
0FFCE3E0
1FF0E0E0
1FC0E020
3F80E000
3F00E000
7F00E000
7E00E000
7E00E000
FE00E000
FC00E000
FC00E000
FC00E000
FC00E000
FC00E000
FC00E000
FC00E000
FC00E000
FE00E000
7E00E000
7E00E000
7F00E000
3F00E000
3F80E000
1FC0E020
1FF0E0E0
0FFCE3E0
07FFFFE0
03FFFFE0
00FFFFC0
007FFF80
0007FC00
0000E000
0000E000
0000E000
0000E000
0000E000
0000E000
0000E000
0000E000
0000E000
ENDCHAR
STARTCHAR sterling
ENCODING 163
SWIDTH 636 0
DWIDTH 39 0
BBX 30 46 4 0
BITMAP
0000FF00
0007FFF0
000FFFF8
003FFFF8
003FFFF8
007FC0F8
007F0038
00FE0008
00FC0000
00FC0000
01FC0000
01F80000
01F80000
01F80000
01F80000
01F80000
01F80000
01F80000
01F80000
01F80000
01F80000
01F80000
01F80000
7FFFFF80
7FFFFF80
7FFFFF80
7FFFFF80
7FFFFF80
01F80000
01F80000
01F80000
01F80000
01F80000
01F80000
01F80000
01F80000
01F80000
01F80000
01F80000
01F80000
01F80000
FFFFFFFC
FFFFFFFC
FFFFFFFC
FFFFFFFC
FFFFFFFC
ENDCHAR
STARTCHAR currency
ENCODING 164
SWIDTH 636 0
DWIDTH 39 0
BBX 34 34 3 2
BITMAP
1000000200
3800000700
7C00000F80
FE00001FC0
7F03F03F80
3F9FFE7F00
1FFFFFFE00
0FFFFFFC00
07FFFFF800
03FC0FF000
03F003F000
07E001F800
07C000F800
07C000F800
0F80007C00
0F80007C00
0F80007C00
0F80007C00
0F80007C00
0F80007C00
07C000F800
07C000F800
07E001F800
03F003F000
03FC0FF000
07FFFFF800
0FFFFFFC00
1FFFFFFE00
3F9FFC7F00
7F03F03F80
FE00001FC0
7C00000F80
3800000700
1000000200
ENDCHAR
STARTCHAR yen
ENCODING 165
SWIDTH 636 0
DWIDTH 39 0
BBX 34 45 3 0
BITMAP
FC00000FC0
7E00001F80
7E00001F80
3F00003F00
3F00003F00
1F80007E00
0F80007C00
0FC000FC00
07C000F800
07E001F800
03E003F000
03F003F000
01F807E000
01F807E000
00FC0FC000
00FC0FC000
007E1F8000
7FFE1FFF80
7FFF3FFF80
7FFF3FFF80
7FFFFFFF80
000FFC0000
000FFC0000
0007F80000
0007F80000
0003F00000
0003F00000
7FFFFFFF80
7FFFFFFF80
7FFFFFFF80
7FFFFFFF80
0003F00000
0003F00000
0003F00000
0003F00000
0003F00000
0003F00000
0003F00000
0003F00000
0003F00000
0003F00000
0003F00000
0003F00000
0003F00000
0003F00000
ENDCHAR
STARTCHAR brokenbar
ENCODING 166
SWIDTH 336 0
DWIDTH 21 0
BBX 5 54 8 -11
BITMAP
F8
F8
F8
F8
F8
F8
F8
F8
F8
F8
F8
F8
F8
F8
F8
F8
F8
F8
F8
F8
F8
F8
F8
00
00
00
00
00
00
00
00
F8
F8
F8
F8
F8
F8
F8
F8
F8
F8
F8
F8
F8
F8
F8
F8
F8
F8
F8
F8
F8
F8
F8
ENDCHAR
STARTCHAR section
ENCODING 167
SWIDTH 500 0
DWIDTH 31 0
BBX 25 52 3 -6
BITMAP
007F8000
03FFF800
07FFFC00
0FFFFC00
1FE07C00
1F801C00
3F800400
3F000000
3F000000
3F000000
3F000000
3F800000
1FC00000
1FE00000
0FF00000
07FC0000
0FFE0000
1FFF8000
3F3FE000
7E0FF000
7C07FC00
F801FE00
F800FF00
F8003F00
F8001F80
FC001F80
FC000F80
7E000F80
7F000F80
3F800F80
1FE01F00
0FF83F00
03FC7E00
01FFFC00
007FF800
001FF000
000FF000
0007F800
0003FC00
0001FC00
0000FE00
00007E00
00007E00
00007E00
00007E00
2000FE00
3800FC00
3F03FC00
3FFFF800
3FFFF000
1FFFC000
01FF0000
ENDCHAR
STARTCHAR dieresis
ENCODING 168
SWIDTH 500 0
DWIDTH 31 0
BBX 18 6 7 41
BITMAP
FC0FC0
FC0FC0
FC0FC0
FC0FC0
FC0FC0
FC0FC0
ENDCHAR
STARTCHAR copyright
ENCODING 169
SWIDTH 1000 0
DWIDTH 62 0
BBX 45 45 9 0
BITMAP
00003FE00000
0003FFFE0000
000FFFFF8000
003FC01FE000
007E0003F000
00F80000F800
01E000003C00
03C000001E00
078000000F00
0F001FF00780
1E00FFFE03C0
1C03FFFF01C0
3C07FFFF01E0
380FF00F00E0
781FC00100F0
701F80000070
703F00000070
F03E00000070
E07E00000038
E07C00000038
E07C00000038
E07C00000038
E07C00000038
E07C00000038
E07C00000038
E07C00000038
E07E00000038
F03E00000070
703F00000070
701F80000070
781FC00100F0
380FF00F00E0
3C07FFFF01E0
1C03FFFF01C0
1E00FFFE03C0
0F001FF00780
078000000F00
03C000001E00
01E000003C00
00F80000F800
007E0003F000
003FC01FE000
000FFFFF8000
0003FFFE0000
00007FF00000
ENDCHAR
STARTCHAR ordfeminine
ENCODING 170
SWIDTH 471 0
DWIDTH 29 0
BBX 21 32 3 14
BITMAP
07FE00
3FFF80
3FFFC0
3C07E0
2003F0
0001F0
0000F8
0000F8
0000F8
03FFF8
0FFFF8
3FFFF8
7F00F8
7C00F8
FC00F8
F800F8
F800F8
F801F8
F801F8
F803F8
7C07F8
7F0FF8
3FFEF8
1FFCF8
07F000
000000
000000
000000
7FFFF8
7FFFF8
7FFFF8
7FFFF8
ENDCHAR
STARTCHAR guillemotleft
ENCODING 171
SWIDTH 611 0
DWIDTH 38 0
BBX 27 28 5 4
BITMAP
00040020
000C0060
001C00E0
003C01E0
007C03E0
00FC07E0
01F80FC0
03F01F80
07E03F00
0FC07E00
3F01F800
7E03F000
FC07E000
F807C000
F807C000
FC07E000
7E03F000
3F01F800
0FC07E00
07E03F00
03F01F80
01F80FC0
00FC07E0
007C03E0
003C01E0
001C00E0
000C0060
00040020
ENDCHAR
STARTCHAR logicalnot
ENCODING 172
SWIDTH 837 0
DWIDTH 52 0
BBX 39 17 7 9
BITMAP
FFFFFFFFFE
FFFFFFFFFE
FFFFFFFFFE
FFFFFFFFFE
FFFFFFFFFE
000000003E
000000003E
000000003E
000000003E
000000003E
000000003E
000000003E
000000003E
000000003E
000000003E
000000003E
000000003E
ENDCHAR
STARTCHAR sfthyphen
ENCODING 173
SWIDTH 360 0
DWIDTH 22 0
BBX 16 5 3 15
BITMAP
FFFF
FFFF
FFFF
FFFF
FFFF
ENDCHAR
STARTCHAR registered
ENCODING 174
SWIDTH 1000 0
DWIDTH 62 0
BBX 45 45 9 0
BITMAP
00003FE00000
0003FFFE0000
000FFFFF8000
003FC01FE000
007E0003F000
00F80000F800
01E000003C00
03C000001E00
078000000F00
0F07FFE00780
1E07FFFC03C0
1C07FFFE01C0
3C07C07F01E0
3807C01F00E0
7807C00F80F0
7007C00F8070
7007C00F8070
F007C00F8070
E007C00F8038
E007C01F0038
E007C03F0038
E007FFFE0038
E007FFF80038
E007FFE00038
E007C3F00038
E007C0F80038
E007C0FC0038
F007C07E0070
7007C03E0070
7007C03F0070
7807C01F00F0
3807C00F80E0
3C07C00FC1E0
1C07C007C1C0
1E07C007E3C0
0F0000000780
078000000F00
03C000001E00
01E000003C00
00F80000F800
007E0003F000
003FC01FE000
000FFFFF8000
0003FFFE0000
00007FF00000
ENDCHAR
STARTCHAR macron
ENCODING 175
SWIDTH 500 0
DWIDTH 31 0
BBX 18 5 6 41
BITMAP
FFFFC0
FFFFC0
FFFFC0
FFFFC0
FFFFC0
ENDCHAR
STARTCHAR degree
ENCODING 176
SWIDTH 500 0
DWIDTH 31 0
BBX 19 19 6 27
BITMAP
03F800
0FFE00
1FFF00
3FFF80
7E0FC0
7C07C0
F803E0
F001E0
F001E0
F001E0
F001E0
F001E0
F803E0
7C07C0
7E0FC0
3FFF80
1FFF00
0FFE00
03F800
ENDCHAR
STARTCHAR plusminus
ENCODING 177
SWIDTH 837 0
DWIDTH 52 0
BBX 39 39 6 0
BITMAP
00007C0000
00007C0000
00007C0000
00007C0000
00007C0000
00007C0000
00007C0000
00007C0000
00007C0000
00007C0000
00007C0000
00007C0000
FFFFFFFFFE
FFFFFFFFFE
FFFFFFFFFE
FFFFFFFFFE
FFFFFFFFFE
00007C0000
00007C0000
00007C0000
00007C0000
00007C0000
00007C0000
00007C0000
00007C0000
00007C0000
00007C0000
00007C0000
00007C0000
0000000000
0000000000
0000000000
0000000000
0000000000
FFFFFFFFFE
FFFFFFFFFE
FFFFFFFFFE
FFFFFFFFFE
FFFFFFFFFE
ENDCHAR
STARTCHAR twosuperior
ENCODING 178
SWIDTH 400 0
DWIDTH 25 0
BBX 18 25 3 21
BITMAP
0FF000
7FFE00
FFFF00
F01F80
800780
0007C0
0003C0
0003C0
0003C0
000780
000F80
000F00
001F00
003E00
007C00
00F800
01F000
07E000
0FC000
1F8000
3F0000
7E0000
FFFFC0
FFFFC0
FFFFC0
ENDCHAR
STARTCHAR threesuperior
ENCODING 179
SWIDTH 400 0
DWIDTH 25 0
BBX 19 25 3 21
BITMAP
0FF800
7FFE00
7FFF80
700F80
0007C0
0003C0
0003C0
0007C0
000F80
07FF00
07FC00
07FF00
001F80
0007C0
0003E0
0001E0
0001E0
0001E0
0001E0
0003E0
0007C0
C01FC0
FFFF80
FFFE00
1FF000
ENDCHAR
STARTCHAR acute
ENCODING 180
SWIDTH 500 0
DWIDTH 31 0
BBX 15 11 11 39
BITMAP
00FE
00FC
01F8
03F0
07E0
0FC0
0F80
1F00
3E00
7C00
F800
ENDCHAR
STARTCHAR mu
ENCODING 181
SWIDTH 636 0
DWIDTH 39 0
BBX 32 47 6 -13
BITMAP
FC0003F0
FC0003F0
FC0003F0
FC0003F0
FC0003F0
FC0003F0
FC0003F0
FC0003F0
FC0003F0
FC0003F0
FC0003F0
FC0003F0
FC0003F0
FC0003F0
FC0003F0
FC0003F0
FC0003F0
FC0003F0
FC0003F0
FC0003F0
FC0003F0
FC0003F0
FC0003F0
FC0003F0
FC0007F0
FE0007F0
FE0007F0
FF000FF0
FF801FF0
FFE07FF9
FFFFFFFF
FDFFF9FF
FCFFF1FF
FC7FE0FF
FC1F807C
FC000000
FC000000
FC000000
FC000000
FC000000
FC000000
FC000000
FC000000
FC000000
FC000000
FC000000
FC000000
ENDCHAR
STARTCHAR paragraph
ENCODING 182
SWIDTH 636 0
DWIDTH 39 0
BBX 28 51 5 -6
BITMAP
003FFFF0
01FFFFF0
07FFFFF0
0FFFFFF0
1FFFC0F0
3FFFC0F0
3FFFC0F0
7FFFC0F0
7FFFC0F0
FFFFC0F0
FFFFC0F0
FFFFC0F0
FFFFC0F0
FFFFC0F0
FFFFC0F0
FFFFC0F0
FFFFC0F0
7FFFC0F0
7FFFC0F0
3FFFC0F0
3FFFC0F0
1FFFC0F0
07FFC0F0
03FFC0F0
00FFC0F0
0007C0F0
0003C0F0
0003C0F0
0003C0F0
0003C0F0
0003C0F0
0003C0F0
0003C0F0
0003C0F0
0003C0F0
0003C0F0
0003C0F0
0003C0F0
0003C0F0
0003C0F0
0003C0F0
0003C0F0
0003C0F0
0003C0F0
0003C0F0
0003C0F0
0003C0F0
0003C0F0
0003C0F0
0003C0F0
0003C0F0
ENDCHAR
STARTCHAR periodcentered
ENCODING 183
SWIDTH 317 0
DWIDTH 20 0
BBX 6 8 7 17
BITMAP
FC
FC
FC
FC
FC
FC
FC
FC
ENDCHAR
STARTCHAR cedilla
ENCODING 184
SWIDTH 500 0
DWIDTH 31 0
BBX 13 12 9 -12
BITMAP
03C0
01E0
00F0
00F0
0078
0078
0078
80F8
FFF8
FFF0
FFE0
7F80
ENDCHAR
STARTCHAR onesuperior
ENCODING 185
SWIDTH 400 0
DWIDTH 25 0
BBX 16 25 5 21
BITMAP
1FC0
FFC0
FFC0
E3C0
03C0
03C0
03C0
03C0
03C0
03C0
03C0
03C0
03C0
03C0
03C0
03C0
03C0
03C0
03C0
03C0
03C0
03C0
FFFF
FFFF
FFFF
ENDCHAR
STARTCHAR ordmasculine
ENCODING 186
SWIDTH 471 0
DWIDTH 29 0
BBX 23 32 3 14
BITMAP
00FE00
07FFC0
0FFFE0
1F83F0
3F01F8
3E00F8
7C007C
7C007C
F8003E
F8003E
F8003E
F8003E
F8003E
F8003E
F8003E
F8003E
F8003E
7C007C
7C007C
3E00F8
3F01F8
1F83F0
0FFFE0
07FFC0
00FE00
000000
000000
000000
7FFFFC
7FFFFC
7FFFFC
7FFFFC
ENDCHAR
STARTCHAR guillemotright
ENCODING 187
SWIDTH 611 0
DWIDTH 38 0
BBX 27 28 6 4
BITMAP
80040000
C0060000
E0070000
F0078000
F807C000
FC07E000
7E03F000
3F01F800
1F80FC00
0FC07E00
03F01F80
01F80FC0
00FC07E0
007C03E0
007C03E0
00FC07E0
01F80FC0
03F01F80
0FC07E00
1F80FC00
3F01F800
7E03F000
FC07E000
F807C000
F0078000
E0070000
C0060000
80040000
ENDCHAR
STARTCHAR onequarter
ENCODING 188
SWIDTH 969 0
DWIDTH 60 0
BBX 53 47 5 -1
BITMAP
1FC0000007C000
FFC000000F8000
FFC000000F8000
E3C000001F0000
03C000001E0000
03C000003E0000
03C000007C0000
03C00000780000
03C00000F80000
03C00000F00000
03C00001F00000
03C00003E00000
03C00003C00000
03C00007C00000
03C00007800000
03C0000F800000
03C0001F000000
03C0001E000000
03C0003E000000
03C0003C000000
03C0007C000F80
03C000F8001F80
FFFF00F0003F80
FFFF01F0007F80
FFFF01E000F780
000003E000F780
000007C001E780
0000078003C780
00000F80078780
00000F00070780
00001F000F0780
00003E001E0780
00003C003C0780
00007C00780780
00007800700780
0000F800F00780
0001F000FFFFF8
0001E000FFFFF8
0003E000FFFFF8
0003C000000780
0007C000000780
000F8000000780
000F0000000780
001F0000000780
003E0000000780
003E0000000000
007C0000000000
ENDCHAR
STARTCHAR onehalf
ENCODING 189
SWIDTH 969 0
DWIDTH 60 0
BBX 51 47 5 -1
BITMAP
1FC0000007C000
FFC000000F8000
FFC000000F8000
E3C000001F0000
03C000001E0000
03C000003E0000
03C000007C0000
03C00000780000
03C00000F80000
03C00000F00000
03C00001F00000
03C00003E00000
03C00003C00000
03C00007C00000
03C00007800000
03C0000F800000
03C0001F000000
03C0001E000000
03C0003E000000
03C0003C000000
03C0007C07F800
03C000F83FFF00
FFFF00F07FFF80
FFFF01F0780FC0
FFFF01E04003C0
000003E00003E0
000007C00001E0
000007800001E0
00000F800001E0
00000F000003C0
00001F000007C0
00003E00000780
00003C00000F80
00007C00001F00
00007800003E00
0000F800007C00
0001F00000F800
0001E00003F000
0003E00007E000
0003C0000FC000
0007C0001F8000
000F80003F0000
000F00007FFFE0
001F00007FFFE0
003E00007FFFE0
003E0000000000
007C0000000000
ENDCHAR
STARTCHAR threequarters
ENCODING 190
SWIDTH 969 0
DWIDTH 60 0
BBX 55 47 3 -1
BITMAP
0FF8000001F000
7FFE000003E000
7FFF800003E000
700F800007C000
0007C000078000
0003C0000F8000
0003C0001F0000
0007C0001E0000
000F80003E0000
07FF00003C0000
07FC00007C0000
07FF0000F80000
001F8000F00000
0007C001F00000
0003E001E00000
0001E003E00000
0001E007C00000
0001E007800000
0001E00F800000
0003E00F000000
0007C01F0003E0
C01FC03E0007E0
FFFF803C000FE0
FFFE007C001FE0
3FF00078003DE0
000000F8003DE0
000001F00079E0
000001E000F1E0
000003E001E1E0
000003C001C1E0
000007C003C1E0
00000F800781E0
00000F000F01E0
00001F001E01E0
00001E001C01E0
00003E003C01E0
00007C003FFFFE
000078003FFFFE
0000F8003FFFFE
0000F0000001E0
0001F0000001E0
0003E0000001E0
0003C0000001E0
0007C0000001E0
000F80000001E0
000F8000000000
001F0000000000
ENDCHAR
STARTCHAR questiondown
ENCODING 191
SWIDTH 530 0
DWIDTH 33 0
BBX 24 46 4 -1
BITMAP
001F80
001F80
001F80
001F80
001F80
001F80
001F80
001F80
000000
000000
000000
000000
001F80
001F80
001F80
001F80
001F80
001F80
001F80
001F80
003F80
003F00
007F00
00FE00
01FC00
03F800
07F000
0FE000
1FC000
3F8000
7F0000
7E0000
FE0000
FC0000
FC0000
FC0000
FC0000
FE0001
FE0003
7F000F
7FC07F
3FFFFF
1FFFFF
0FFFFE
07FFF8
00FF80
ENDCHAR
STARTCHAR Agrave
ENCODING 192
SWIDTH 684 0
DWIDTH 42 0
BBX 41 57 0 0
BITMAP
0003F0000000
0001F8000000
0000FC000000
00007C000000
00003E000000
00001F000000
00000F000000
000007800000
000000000000
000000000000
000000000000
000000000000
00007F000000
0000FF800000
0000FF800000
0000FF800000
0001FFC00000
0001FFC00000
0001FFC00000
0003FFE00000
0003F7E00000
0007F7F00000
0007F3F00000
0007E3F00000
000FE3F80000
000FC1F80000
000FC1F80000
001FC1FC0000
001F80FC0000
003F80FE0000
003F007E0000
003F007E0000
007F007F0000
007E003F0000
007E003F0000
00FE003F8000
00FC001F8000
01FC001FC000
01F8000FC000
01F8000FC000
03FFFFFFE000
03FFFFFFE000
07FFFFFFF000
07FFFFFFF000
07FFFFFFF000
0FE00003F800
0FC00001F800
0FC00001F800
1FC00001FC00
1F800000FC00
3F800000FE00
3F8000007E00
3F0000007E00
7F0000007F00
7E0000003F00
7E0000003F00
FE0000003F80
ENDCHAR
STARTCHAR Aacute
ENCODING 193
SWIDTH 684 0
DWIDTH 42 0
BBX 41 57 0 0
BITMAP
000001F00000
000003E00000
000007C00000
00000FC00000
00000F800000
00001F000000
00003E000000
00007C000000
000000000000
000000000000
000000000000
000000000000
00007F000000
0000FF800000
0000FF800000
0000FF800000
0001FFC00000
0001FFC00000
0001FFC00000
0003FFE00000
0003F7E00000
0007F7F00000
0007F3F00000
0007E3F00000
000FE3F80000
000FC1F80000
000FC1F80000
001FC1FC0000
001F80FC0000
003F80FE0000
003F007E0000
003F007E0000
007F007F0000
007E003F0000
007E003F0000
00FE003F8000
00FC001F8000
01FC001FC000
01F8000FC000
01F8000FC000
03FFFFFFE000
03FFFFFFE000
07FFFFFFF000
07FFFFFFF000
07FFFFFFF000
0FE00003F800
0FC00001F800
0FC00001F800
1FC00001FC00
1F800000FC00
3F800000FE00
3F8000007E00
3F0000007E00
7F0000007F00
7E0000003F00
7E0000003F00
FE0000003F80
ENDCHAR
STARTCHAR Acircumflex
ENCODING 194
SWIDTH 684 0
DWIDTH 42 0
BBX 41 57 0 0
BITMAP
00003F000000
00007F800000
0000FFC00000
0001F3E00000
0001E1E00000
0003C0F00000
000780780000
000F807C0000
000000000000
000000000000
000000000000
000000000000
00007F000000
0000FF800000
0000FF800000
0000FF800000
0001FFC00000
0001FFC00000
0001FFC00000
0003FFE00000
0003F7E00000
0007F7F00000
0007F3F00000
0007E3F00000
000FE3F80000
000FC1F80000
000FC1F80000
001FC1FC0000
001F80FC0000
003F80FE0000
003F007E0000
003F007E0000
007F007F0000
007E003F0000
007E003F0000
00FE003F8000
00FC001F8000
01FC001FC000
01F8000FC000
01F8000FC000
03FFFFFFE000
03FFFFFFE000
07FFFFFFF000
07FFFFFFF000
07FFFFFFF000
0FE00003F800
0FC00001F800
0FC00001F800
1FC00001FC00
1F800000FC00
3F800000FE00
3F8000007E00
3F0000007E00
7F0000007F00
7E0000003F00
7E0000003F00
FE0000003F80
ENDCHAR
STARTCHAR Atilde
ENCODING 195
SWIDTH 684 0
DWIDTH 42 0
BBX 41 57 0 0
BITMAP
0001F00F0000
0003FC0F0000
0007FF1F0000
0007FFFE0000
000F8FFE0000
000F07FC0000
000F00F80000
000000000000
000000000000
000000000000
000000000000
000000000000
00007F000000
0000FF800000
0000FF800000
0000FF800000
0001FFC00000
0001FFC00000
0001FFC00000
0003FFE00000
0003F7E00000
0007F7F00000
0007F3F00000
0007E3F00000
000FE3F80000
000FC1F80000
000FC1F80000
001FC1FC0000
001F80FC0000
003F80FE0000
003F007E0000
003F007E0000
007F007F0000
007E003F0000
007E003F0000
00FE003F8000
00FC001F8000
01FC001FC000
01F8000FC000
01F8000FC000
03FFFFFFE000
03FFFFFFE000
07FFFFFFF000
07FFFFFFF000
07FFFFFFF000
0FE00003F800
0FC00001F800
0FC00001F800
1FC00001FC00
1F800000FC00
3F800000FE00
3F8000007E00
3F0000007E00
7F0000007F00
7E0000003F00
7E0000003F00
FE0000003F80
ENDCHAR
STARTCHAR Adieresis
ENCODING 196
SWIDTH 684 0
DWIDTH 42 0
BBX 41 56 0 0
BITMAP
0007E07E0000
0007E07E0000
0007E07E0000
0007E07E0000
0007E07E0000
0007E07E0000
000000000000
000000000000
000000000000
000000000000
000000000000
00007F000000
0000FF800000
0000FF800000
0000FF800000
0001FFC00000
0001FFC00000
0001FFC00000
0003FFE00000
0003F7E00000
0007F7F00000
0007F3F00000
0007E3F00000
000FE3F80000
000FC1F80000
000FC1F80000
001FC1FC0000
001F80FC0000
003F80FE0000
003F007E0000
003F007E0000
007F007F0000
007E003F0000
007E003F0000
00FE003F8000
00FC001F8000
01FC001FC000
01F8000FC000
01F8000FC000
03FFFFFFE000
03FFFFFFE000
07FFFFFFF000
07FFFFFFF000
07FFFFFFF000
0FE00003F800
0FC00001F800
0FC00001F800
1FC00001FC00
1F800000FC00
3F800000FE00
3F8000007E00
3F0000007E00
7F0000007F00
7E0000003F00
7E0000003F00
FE0000003F80
ENDCHAR
STARTCHAR Aring
ENCODING 197
SWIDTH 684 0
DWIDTH 42 0
BBX 41 58 0 0
BITMAP
00003E000000
0000FF800000
0003FFE00000
0003FFE00000
0007C3F00000
000F80F80000
000F00780000
000F00780000
000F00780000
000F00780000
000F00780000
000780F00000
0007C1F00000
0003FFE00000
0001FFC00000
0000FF800000
0000FF800000
0001FFC00000
0001FFC00000
0003FFE00000
0003F7E00000
0003F7E00000
0007F7F00000
0007E3F00000
0007E3F00000
000FE3F80000
000FC1F80000
001FC1FC0000
001F80FC0000
001F80FC0000
003F80FE0000
003F007E0000
003F007E0000
007F007F0000
007E003F0000
00FE003F8000
00FC001F8000
00FC001F8000
01FC001FC000
01F8000FC000
01F8000FC000
03FFFFFFE000
03FFFFFFE000
07FFFFFFF000
07FFFFFFF000
07FFFFFFF000
0FE00003F800
0FC00001F800
0FC00001F800
1FC00001FC00
1F800000FC00
3F800000FE00
3F0000007E00
3F0000007E00
7F0000007F00
7E0000003F00
7E0000003F00
FE0000003F80
ENDCHAR
STARTCHAR AE
ENCODING 198
SWIDTH 974 0
DWIDTH 60 0
BBX 56 45 0 0
BITMAP
00001FFFFFFFFE
00003FFFFFFFFE
00003FFFFFFFFE
00007FFFFFFFFE
00007FFFFFFFFE
00007E1F800000
0000FE1F800000
0000FC1F800000
0001FC1F800000
0001F81F800000
0003F81F800000
0003F81F800000
0003F01F800000
0007F01F800000
0007E01F800000
000FE01F800000
000FC01F800000
000FC01F800000
001FC01FFFFFFE
001F801FFFFFFE
003F801FFFFFFE
003F001FFFFFFE
007F001FFFFFFE
007F001F800000
007E001F800000
00FE001F800000
00FC001F800000
01FC001F800000
01FFFFFF800000
03FFFFFF800000
03FFFFFF800000
03FFFFFF800000
07FFFFFF800000
07E0001F800000
0FE0001F800000
0FE0001F800000
0FC0001F800000
1FC0001F800000
1F80001F800000
3F80001F800000
3F00001FFFFFFF
7F00001FFFFFFF
7F00001FFFFFFF
7E00001FFFFFFF
FE00001FFFFFFF
ENDCHAR
STARTCHAR Ccedilla
ENCODING 199
SWIDTH 698 0
DWIDTH 43 0
BBX 36 58 4 -12
BITMAP
00007FE000
0007FFFE00
001FFFFF80
007FFFFFE0
00FFFFFFF0
01FF801FF0
03FC0003F0
07F80000F0
0FE0000030
1FC0000010
1FC0000000
3F80000000
3F00000000
3F00000000
7E00000000
7E00000000
7E00000000
FE00000000
FC00000000
FC00000000
FC00000000
FC00000000
FC00000000
FC00000000
FC00000000
FC00000000
FC00000000
FC00000000
FC00000000
FE00000000
7E00000000
7E00000000
7E00000000
3F00000000
3F00000000
3F80000000
1FC0000000
1FC0000010
0FE0000030
07F80000F0
03FC0003F0
01FF801FF0
00FFFFFFF0
007FFFFFE0
001FFFFF80
0007FFFE00
0000FFE000
0000078000
000003C000
000003C000
000001E000
000001E000
000001E000
000203E000
0003FFE000
0003FFC000
0003FF8000
0001FE0000
ENDCHAR
STARTCHAR Egrave
ENCODING 200
SWIDTH 631 0
DWIDTH 39 0
BBX 29 57 6 0
BITMAP
01F80000
00FC0000
007E0000
003E0000
001F0000
000F8000
00078000
0003C000
00000000
00000000
00000000
00000000
FFFFFFF0
FFFFFFF0
FFFFFFF0
FFFFFFF0
FFFFFFF0
FC000000
FC000000
FC000000
FC000000
FC000000
FC000000
FC000000
FC000000
FC000000
FC000000
FC000000
FC000000
FC000000
FFFFFFF0
FFFFFFF0
FFFFFFF0
FFFFFFF0
FFFFFFF0
FC000000
FC000000
FC000000
FC000000
FC000000
FC000000
FC000000
FC000000
FC000000
FC000000
FC000000
FC000000
FC000000
FC000000
FC000000
FC000000
FC000000
FFFFFFF8
FFFFFFF8
FFFFFFF8
FFFFFFF8
FFFFFFF8
ENDCHAR
STARTCHAR Eacute
ENCODING 201
SWIDTH 631 0
DWIDTH 39 0
BBX 29 57 6 0
BITMAP
0000F800
0001F000
0003E000
0007E000
0007C000
000F8000
001F0000
003E0000
00000000
00000000
00000000
00000000
FFFFFFF0
FFFFFFF0
FFFFFFF0
FFFFFFF0
FFFFFFF0
FC000000
FC000000
FC000000
FC000000
FC000000
FC000000
FC000000
FC000000
FC000000
FC000000
FC000000
FC000000
FC000000
FFFFFFF0
FFFFFFF0
FFFFFFF0
FFFFFFF0
FFFFFFF0
FC000000
FC000000
FC000000
FC000000
FC000000
FC000000
FC000000
FC000000
FC000000
FC000000
FC000000
FC000000
FC000000
FC000000
FC000000
FC000000
FC000000
FFFFFFF8
FFFFFFF8
FFFFFFF8
FFFFFFF8
FFFFFFF8
ENDCHAR
STARTCHAR Ecircumflex
ENCODING 202
SWIDTH 631 0
DWIDTH 39 0
BBX 29 57 6 0
BITMAP
001F8000
003FC000
007FE000
00F9F000
00F0F000
01E07800
03C03C00
07C03E00
00000000
00000000
00000000
00000000
FFFFFFF0
FFFFFFF0
FFFFFFF0
FFFFFFF0
FFFFFFF0
FC000000
FC000000
FC000000
FC000000
FC000000
FC000000
FC000000
FC000000
FC000000
FC000000
FC000000
FC000000
FC000000
FFFFFFF0
FFFFFFF0
FFFFFFF0
FFFFFFF0
FFFFFFF0
FC000000
FC000000
FC000000
FC000000
FC000000
FC000000
FC000000
FC000000
FC000000
FC000000
FC000000
FC000000
FC000000
FC000000
FC000000
FC000000
FC000000
FFFFFFF8
FFFFFFF8
FFFFFFF8
FFFFFFF8
FFFFFFF8
ENDCHAR
STARTCHAR Edieresis
ENCODING 203
SWIDTH 631 0
DWIDTH 39 0
BBX 29 56 6 0
BITMAP
03F03F00
03F03F00
03F03F00
03F03F00
03F03F00
03F03F00
00000000
00000000
00000000
00000000
00000000
FFFFFFF0
FFFFFFF0
FFFFFFF0
FFFFFFF0
FFFFFFF0
FC000000
FC000000
FC000000
FC000000
FC000000
FC000000
FC000000
FC000000
FC000000
FC000000
FC000000
FC000000
FC000000
FFFFFFF0
FFFFFFF0
FFFFFFF0
FFFFFFF0
FFFFFFF0
FC000000
FC000000
FC000000
FC000000
FC000000
FC000000
FC000000
FC000000
FC000000
FC000000
FC000000
FC000000
FC000000
FC000000
FC000000
FC000000
FC000000
FFFFFFF8
FFFFFFF8
FFFFFFF8
FFFFFFF8
FFFFFFF8
ENDCHAR
STARTCHAR Igrave
ENCODING 204
SWIDTH 294 0
DWIDTH 18 0
BBX 11 57 2 0
BITMAP
FC00
7E00
3F00
1F00
0F80
07C0
03C0
01E0
0000
0000
0000
0000
0FC0
0FC0
0FC0
0FC0
0FC0
0FC0
0FC0
0FC0
0FC0
0FC0
0FC0
0FC0
0FC0
0FC0
0FC0
0FC0
0FC0
0FC0
0FC0
0FC0
0FC0
0FC0
0FC0
0FC0
0FC0
0FC0
0FC0
0FC0
0FC0
0FC0
0FC0
0FC0
0FC0
0FC0
0FC0
0FC0
0FC0
0FC0
0FC0
0FC0
0FC0
0FC0
0FC0
0FC0
0FC0
ENDCHAR
STARTCHAR Iacute
ENCODING 205
SWIDTH 294 0
DWIDTH 18 0
BBX 11 57 5 0
BITMAP
03E0
07C0
0F80
1F80
1F00
3E00
7C00
F800
0000
0000
0000
0000
7E00
7E00
7E00
7E00
7E00
7E00
7E00
7E00
7E00
7E00
7E00
7E00
7E00
7E00
7E00
7E00
7E00
7E00
7E00
7E00
7E00
7E00
7E00
7E00
7E00
7E00
7E00
7E00
7E00
7E00
7E00
7E00
7E00
7E00
7E00
7E00
7E00
7E00
7E00
7E00
7E00
7E00
7E00
7E00
7E00
ENDCHAR
STARTCHAR Icircumflex
ENCODING 206
SWIDTH 294 0
DWIDTH 18 0
BBX 18 57 0 0
BITMAP
03F000
07F800
0FFC00
1F3E00
1E1E00
3C0F00
780780
F807C0
000000
000000
000000
000000
03F000
03F000
03F000
03F000
03F000
03F000
03F000
03F000
03F000
03F000
03F000
03F000
03F000
03F000
03F000
03F000
03F000
03F000
03F000
03F000
03F000
03F000
03F000
03F000
03F000
03F000
03F000
03F000
03F000
03F000
03F000
03F000
03F000
03F000
03F000
03F000
03F000
03F000
03F000
03F000
03F000
03F000
03F000
03F000
03F000
ENDCHAR
STARTCHAR Idieresis
ENCODING 207
SWIDTH 294 0
DWIDTH 18 0
BBX 18 56 1 0
BITMAP
FC0FC0
FC0FC0
FC0FC0
FC0FC0
FC0FC0
FC0FC0
000000
000000
000000
000000
000000
07E000
07E000
07E000
07E000
07E000
07E000
07E000
07E000
07E000
07E000
07E000
07E000
07E000
07E000
07E000
07E000
07E000
07E000
07E000
07E000
07E000
07E000
07E000
07E000
07E000
07E000
07E000
07E000
07E000
07E000
07E000
07E000
07E000
07E000
07E000
07E000
07E000
07E000
07E000
07E000
07E000
07E000
07E000
07E000
07E000
ENDCHAR
STARTCHAR Eth
ENCODING 208
SWIDTH 774 0
DWIDTH 48 0
BBX 44 45 0 0
BITMAP
03FFFFC00000
03FFFFFC0000
03FFFFFF8000
03FFFFFFE000
03FFFFFFF800
03F0007FFC00
03F00007FE00
03F00001FF00
03F000007F00
03F000003F80
03F000001FC0
03F000001FC0
03F000000FC0
03F000000FE0
03F0000007E0
03F0000007E0
03F0000007F0
03F0000003F0
03F0000003F0
FFFFFC0003F0
FFFFFC0003F0
FFFFFC0003F0
FFFFFC0003F0
FFFFFC0003F0
03F0000003F0
03F0000003F0
03F0000003F0
03F0000003F0
03F0000007E0
03F0000007E0
03F0000007E0
03F000000FE0
03F000000FC0
03F000001FC0
03F000001FC0
03F000003F80
03F000007F00
03F00001FF00
03F00007FE00
03F0007FFC00
03FFFFFFF800
03FFFFFFE000
03FFFFFF8000
03FFFFFC0000
03FFFF800000
ENDCHAR
STARTCHAR Ntilde
ENCODING 209
SWIDTH 748 0
DWIDTH 46 0
BBX 34 57 6 0
BITMAP
001F00F000
003FC0F000
007FF1F000
007FFFE000
00F8FFE000
00F07FC000
00F00F8000
0000000000
0000000000
0000000000
0000000000
0000000000
FF80000FC0
FF80000FC0
FFC0000FC0
FFC0000FC0
FFE0000FC0
FFE0000FC0
FFF0000FC0
FFF0000FC0
FFF8000FC0
FDF8000FC0
FDFC000FC0
FCFE000FC0
FCFE000FC0
FC7F000FC0
FC7F000FC0
FC3F800FC0
FC3F800FC0
FC1FC00FC0
FC1FC00FC0
FC0FE00FC0
FC07E00FC0
FC07F00FC0
FC03F00FC0
FC03F80FC0
FC01FC0FC0
FC01FC0FC0
FC00FE0FC0
FC00FE0FC0
FC007F0FC0
FC007F0FC0
FC003F8FC0
FC003F8FC0
FC001FCFC0
FC000FCFC0
FC000FEFC0
FC0007FFC0
FC0007FFC0
FC0003FFC0
FC0003FFC0
FC0001FFC0
FC0001FFC0
FC0000FFC0
FC0000FFC0
FC00007FC0
FC00007FC0
ENDCHAR
STARTCHAR Ograve
ENCODING 210
SWIDTH 787 0
DWIDTH 49 0
BBX 42 58 4 -1
BITMAP
0007E0000000
0003F0000000
0001F8000000
0000F8000000
00007C000000
00003E000000
00001E000000
00000F000000
000000000000
000000000000
000000000000
0000FFC00000
0007FFF80000
001FFFFE0000
007FFFFF8000
00FFFFFFC000
01FF807FE000
03FC000FF000
07F80007F800
0FE00001FC00
1FC00000FE00
1FC00000FE00
3F8000007F00
3F0000003F00
3F0000003F00
7E0000001F80
7E0000001F80
7E0000001F80
FE0000001F80
FC0000000FC0
FC0000000FC0
FC0000000FC0
FC0000000FC0
FC0000000FC0
FC0000000FC0
FC0000000FC0
FC0000000FC0
FC0000000FC0
FC0000000FC0
FC0000000FC0
FE0000001F80
7E0000001F80
7E0000001F80
7E0000001F80
3F0000003F00
3F0000003F00
3F8000007F00
1FC00000FE00
1FC00000FE00
0FE00001FC00
07F80007F800
03FC000FF000
01FF807FE000
00FFFFFFC000
007FFFFF8000
001FFFFF0000
0007FFF80000
0000FFC00000
ENDCHAR
STARTCHAR Oacute
ENCODING 211
SWIDTH 787 0
DWIDTH 49 0
BBX 42 58 4 -1
BITMAP
000003E00000
000007C00000
00000F800000
00001F800000
00001F000000
00003E000000
00007C000000
0000F8000000
000000000000
000000000000
000000000000
0000FFC00000
0007FFF80000
001FFFFE0000
007FFFFF8000
00FFFFFFC000
01FF807FE000
03FC000FF000
07F80007F800
0FE00001FC00
1FC00000FE00
1FC00000FE00
3F8000007F00
3F0000003F00
3F0000003F00
7E0000001F80
7E0000001F80
7E0000001F80
FE0000001F80
FC0000000FC0
FC0000000FC0
FC0000000FC0
FC0000000FC0
FC0000000FC0
FC0000000FC0
FC0000000FC0
FC0000000FC0
FC0000000FC0
FC0000000FC0
FC0000000FC0
FE0000001F80
7E0000001F80
7E0000001F80
7E0000001F80
3F0000003F00
3F0000003F00
3F8000007F00
1FC00000FE00
1FC00000FE00
0FE00001FC00
07F80007F800
03FC000FF000
01FF807FE000
00FFFFFFC000
007FFFFF8000
001FFFFF0000
0007FFF80000
0000FFC00000
ENDCHAR
STARTCHAR Ocircumflex
ENCODING 212
SWIDTH 787 0
DWIDTH 49 0
BBX 42 58 4 -1
BITMAP
00007E000000
0000FF000000
0001FF800000
0003E7C00000
0003C3C00000
000781E00000
000F00F00000
001F00F80000
000000000000
000000000000
000000000000
0000FFC00000
0007FFF80000
001FFFFE0000
007FFFFF8000
00FFFFFFC000
01FF807FE000
03FC000FF000
07F80007F800
0FE00001FC00
1FC00000FE00
1FC00000FE00
3F8000007F00
3F0000003F00
3F0000003F00
7E0000001F80
7E0000001F80
7E0000001F80
FE0000001F80
FC0000000FC0
FC0000000FC0
FC0000000FC0
FC0000000FC0
FC0000000FC0
FC0000000FC0
FC0000000FC0
FC0000000FC0
FC0000000FC0
FC0000000FC0
FC0000000FC0
FE0000001F80
7E0000001F80
7E0000001F80
7E0000001F80
3F0000003F00
3F0000003F00
3F8000007F00
1FC00000FE00
1FC00000FE00
0FE00001FC00
07F80007F800
03FC000FF000
01FF807FE000
00FFFFFFC000
007FFFFF8000
001FFFFF0000
0007FFF80000
0000FFC00000
ENDCHAR
STARTCHAR Otilde
ENCODING 213
SWIDTH 787 0
DWIDTH 49 0
BBX 42 58 4 -1
BITMAP
0003E01E0000
0007F81E0000
000FFE3E0000
000FFFFC0000
001F1FFC0000
001E0FF80000
001E01F00000
000000000000
000000000000
000000000000
000000000000
0000FFC00000
0007FFF80000
001FFFFE0000
007FFFFF8000
00FFFFFFC000
01FF807FE000
03FC000FF000
07F80007F800
0FE00001FC00
1FC00000FE00
1FC00000FE00
3F8000007F00
3F0000003F00
3F0000003F00
7E0000001F80
7E0000001F80
7E0000001F80
FE0000001F80
FC0000000FC0
FC0000000FC0
FC0000000FC0
FC0000000FC0
FC0000000FC0
FC0000000FC0
FC0000000FC0
FC0000000FC0
FC0000000FC0
FC0000000FC0
FC0000000FC0
FE0000001F80
7E0000001F80
7E0000001F80
7E0000001F80
3F0000003F00
3F0000003F00
3F8000007F00
1FC00000FE00
1FC00000FE00
0FE00001FC00
07F80007F800
03FC000FF000
01FF807FE000
00FFFFFFC000
007FFFFF8000
001FFFFF0000
0007FFF80000
0000FFC00000
ENDCHAR
STARTCHAR Odieresis
ENCODING 214
SWIDTH 787 0
DWIDTH 49 0
BBX 42 57 4 -1
BITMAP
000FC0FC0000
000FC0FC0000
000FC0FC0000
000FC0FC0000
000FC0FC0000
000FC0FC0000
000000000000
000000000000
000000000000
000000000000
0000FFC00000
0007FFF80000
001FFFFE0000
007FFFFF8000
00FFFFFFC000
01FF807FE000
03FC000FF000
07F80007F800
0FE00001FC00
1FC00000FE00
1FC00000FE00
3F8000007F00
3F0000003F00
3F0000003F00
7E0000001F80
7E0000001F80
7E0000001F80
FE0000001F80
FC0000000FC0
FC0000000FC0
FC0000000FC0
FC0000000FC0
FC0000000FC0
FC0000000FC0
FC0000000FC0
FC0000000FC0
FC0000000FC0
FC0000000FC0
FC0000000FC0
FE0000001F80
7E0000001F80
7E0000001F80
7E0000001F80
3F0000003F00
3F0000003F00
3F8000007F00
1FC00000FE00
1FC00000FE00
0FE00001FC00
07F80007F800
03FC000FF000
01FF807FE000
00FFFFFFC000
007FFFFF8000
001FFFFF0000
0007FFF80000
0000FFC00000
ENDCHAR
STARTCHAR multiply
ENCODING 215
SWIDTH 837 0
DWIDTH 52 0
BBX 35 35 9 2
BITMAP
1000000100
3800000380
7C000007C0
FE00000FE0
7F00001FC0
3F80003F80
1FC0007F00
0FE000FE00
07F001FC00
03F803F800
01FC07F000
00FE0FE000
007F1FC000
003FBF8000
001FFF0000
000FFE0000
0007FC0000
0003F80000
0007FC0000
000FFE0000
001FFF0000
003FBF8000
007F1FC000
00FE0FE000
01FC07F000
03F803F800
07F001FC00
0FE000FE00
1FC0007F00
3F80003F80
7F00001FC0
FE00000FE0
7C000007C0
3800000380
1000000100
ENDCHAR
STARTCHAR Oslash
ENCODING 216
SWIDTH 787 0
DWIDTH 49 0
BBX 42 49 4 -2
BITMAP
000000000100
0000FFC00380
0007FFFC07C0
001FFFFF0FC0
007FFFFF8F80
00FFFFFFFF00
01FF807FFE00
03FC000FFC00
07F80007FC00
0FE00003FC00
1FC00001FE00
1FC00003FE00
3F800007FF00
3F00000FBF00
3F00001FBF00
7E00003F1F80
7E00007E1F80
7E0000FC1F80
FE0001F81F80
FC0001F00FC0
FC0003E00FC0
FC0007C00FC0
FC000FC00FC0
FC001F800FC0
FC003F000FC0
FC007E000FC0
FC00FC000FC0
FC00F8000FC0
FC01F0000FC0
FC03E0000FC0
FE07E0001F80
7E0FC0001F80
7E1F80001F80
7E3F00001F80
7F7E00003F00
3F7C00003F00
3FF800007F00
1FF00000FE00
1FF00000FE00
0FF00001FC00
0FF80007F800
0FFC000FF000
1FFF807FE000
3FFFFFFFC000
7C7FFFFF8000
FC3FFFFE0000
F80FFFF80000
7000FFC00000
200000000000
ENDCHAR
STARTCHAR Ugrave
ENCODING 217
SWIDTH 731 0
DWIDTH 45 0
BBX 34 58 6 -1
BITMAP
007E000000
003F000000
001F800000
000F800000
0007C00000
0003E00000
0001E00000
0000F00000
0000000000
0000000000
0000000000
0000000000
FC00000FC0
FC00000FC0
FC00000FC0
FC00000FC0
FC00000FC0
FC00000FC0
FC00000FC0
FC00000FC0
FC00000FC0
FC00000FC0
FC00000FC0
FC00000FC0
FC00000FC0
FC00000FC0
FC00000FC0
FC00000FC0
FC00000FC0
FC00000FC0
FC00000FC0
FC00000FC0
FC00000FC0
FC00000FC0
FC00000FC0
FC00000FC0
FC00000FC0
FC00000FC0
FC00000FC0
FC00000FC0
FC00000FC0
FC00000FC0
FC00000FC0
FC00000FC0
FC00000FC0
FE00001FC0
7E00001F80
7E00001F80
7F00003F80
3F00003F00
3F80007F00
1FE001FE00
1FF807FE00
0FFFFFFC00
07FFFFF800
01FFFFE000
007FFF8000
000FFC0000
ENDCHAR
STARTCHAR Uacute
ENCODING 218
SWIDTH 731 0
DWIDTH 45 0
BBX 34 58 6 -1
BITMAP
00003E0000
00007C0000
0000F80000
0001F80000
0001F00000
0003E00000
0007C00000
000F800000
0000000000
0000000000
0000000000
0000000000
FC00000FC0
FC00000FC0
FC00000FC0
FC00000FC0
FC00000FC0
FC00000FC0
FC00000FC0
FC00000FC0
FC00000FC0
FC00000FC0
FC00000FC0
FC00000FC0
FC00000FC0
FC00000FC0
FC00000FC0
FC00000FC0
FC00000FC0
FC00000FC0
FC00000FC0
FC00000FC0
FC00000FC0
FC00000FC0
FC00000FC0
FC00000FC0
FC00000FC0
FC00000FC0
FC00000FC0
FC00000FC0
FC00000FC0
FC00000FC0
FC00000FC0
FC00000FC0
FC00000FC0
FE00001FC0
7E00001F80
7E00001F80
7F00003F80
3F00003F00
3F80007F00
1FE001FE00
1FF807FE00
0FFFFFFC00
07FFFFF800
01FFFFE000
007FFF8000
000FFC0000
ENDCHAR
STARTCHAR Ucircumflex
ENCODING 219
SWIDTH 731 0
DWIDTH 45 0
BBX 34 58 6 -1
BITMAP
0007E00000
000FF00000
001FF80000
003E7C0000
003C3C0000
00781E0000
00F00F0000
01F00F8000
0000000000
0000000000
0000000000
0000000000
FC00000FC0
FC00000FC0
FC00000FC0
FC00000FC0
FC00000FC0
FC00000FC0
FC00000FC0
FC00000FC0
FC00000FC0
FC00000FC0
FC00000FC0
FC00000FC0
FC00000FC0
FC00000FC0
FC00000FC0
FC00000FC0
FC00000FC0
FC00000FC0
FC00000FC0
FC00000FC0
FC00000FC0
FC00000FC0
FC00000FC0
FC00000FC0
FC00000FC0
FC00000FC0
FC00000FC0
FC00000FC0
FC00000FC0
FC00000FC0
FC00000FC0
FC00000FC0
FC00000FC0
FE00001FC0
7E00001F80
7E00001F80
7F00003F80
3F00003F00
3F80007F00
1FE001FE00
1FF807FE00
0FFFFFFC00
07FFFFF800
01FFFFE000
007FFF8000
000FFC0000
ENDCHAR
STARTCHAR Udieresis
ENCODING 220
SWIDTH 731 0
DWIDTH 45 0
BBX 34 57 6 -1
BITMAP
00FC0FC000
00FC0FC000
00FC0FC000
00FC0FC000
00FC0FC000
00FC0FC000
0000000000
0000000000
0000000000
0000000000
0000000000
FC00000FC0
FC00000FC0
FC00000FC0
FC00000FC0
FC00000FC0
FC00000FC0
FC00000FC0
FC00000FC0
FC00000FC0
FC00000FC0
FC00000FC0
FC00000FC0
FC00000FC0
FC00000FC0
FC00000FC0
FC00000FC0
FC00000FC0
FC00000FC0
FC00000FC0
FC00000FC0
FC00000FC0
FC00000FC0
FC00000FC0
FC00000FC0
FC00000FC0
FC00000FC0
FC00000FC0
FC00000FC0
FC00000FC0
FC00000FC0
FC00000FC0
FC00000FC0
FC00000FC0
FE00001FC0
7E00001F80
7E00001F80
7F00003F80
3F00003F00
3F80007F00
1FE001FE00
1FF807FE00
0FFFFFFC00
07FFFFF800
01FFFFE000
007FFF8000
000FFC0000
ENDCHAR
STARTCHAR Yacute
ENCODING 221
SWIDTH 610 0
DWIDTH 38 0
BBX 38 57 0 0
BITMAP
00000F8000
00001F0000
00003E0000
00007E0000
00007C0000
0000F80000
0001F00000
0003E00000
0000000000
0000000000
0000000000
0000000000
FF000003FC
7F000003F8
3F800007F0
3FC0000FF0
1FC0000FE0
0FE0001FC0
0FF0003FC0
07F0003F80
03F8007F00
03FC00FF00
01FC00FE00
00FE01FC00
00FF03FC00
007F03F800
003F87F000
001FCFE000
001FCFE000
000FFFC000
0007FF8000
0007FF8000
0003FF0000
0001FE0000
0001FE0000
0000FC0000
0000FC0000
0000FC0000
0000FC0000
0000FC0000
0000FC0000
0000FC0000
0000FC0000
0000FC0000
0000FC0000
0000FC0000
0000FC0000
0000FC0000
0000FC0000
0000FC0000
0000FC0000
0000FC0000
0000FC0000
0000FC0000
0000FC0000
0000FC0000
0000FC0000
ENDCHAR
STARTCHAR Thorn
ENCODING 222
SWIDTH 604 0
DWIDTH 38 0
BBX 29 45 6 0
BITMAP
FC000000
FC000000
FC000000
FC000000
FC000000
FC000000
FC000000
FC000000
FFFFE000
FFFFFC00
FFFFFF00
FFFFFF80
FFFFFFC0
FC007FE0
FC000FF0
FC0007F0
FC0003F0
FC0003F8
FC0001F8
FC0001F8
FC0001F8
FC0001F8
FC0001F8
FC0001F8
FC0001F8
FC0003F8
FC0003F0
FC0007F0
FC000FF0
FC003FE0
FFFFFFC0
FFFFFF80
FFFFFF00
FFFFFC00
FFFFE000
FC000000
FC000000
FC000000
FC000000
FC000000
FC000000
FC000000
FC000000
FC000000
FC000000
ENDCHAR
STARTCHAR germandbls
ENCODING 223
SWIDTH 629 0
DWIDTH 39 0
BBX 31 48 6 -1
BITMAP
007FC000
03FFF800
07FFFC00
1FFFFF00
1FFFFF00
3FC07F80
7F801FC0
7F000FC0
7E000FC0
FE0007E0
FC0007E0
FC000FE0
FC007FE0
FC00FFE0
FC01FF00
FC03F800
FC07F000
FC07E000
FC0FC000
FC0FC000
FC0FC000
FC0FC000
FC0FC000
FC0FE000
FC07F000
FC07F800
FC03FC00
FC01FF00
FC00FFC0
FC003FE0
FC001FF0
FC0007F8
FC0003FC
FC0001FC
FC0000FE
FC00007E
FC00007E
FC00007E
FC00007E
FC00007E
FC0000FE
FC4001FC
FC7C07FC
FC7FFFF8
FC7FFFF0
FC7FFFE0
FC3FFF80
0007FE00
ENDCHAR
STARTCHAR agrave
ENCODING 224
SWIDTH 612 0
DWIDTH 38 0
BBX 29 51 3 -1
BITMAP
0FE00000
07E00000
03F00000
01F80000
00FC0000
007E0000
003E0000
001F0000
000F8000
0007C000
0003E000
00000000
00000000
00000000
00000000
007FE000
03FFFC00
1FFFFE00
3FFFFF80
3FFFFFC0
3F007FC0
38001FE0
200007E0
000003F0
000003F0
000001F0
000001F8
000001F8
000001F8
003FFFF8
03FFFFF8
0FFFFFF8
1FFFFFF8
3FFFFFF8
7FE001F8
7F0001F8
7E0001F8
FE0001F8
FC0001F8
FC0003F8
FC0003F8
FC0007F8
FC0007F8
FE000FF8
7F001FF8
7FC0FFF8
3FFFFDF8
3FFFF9F8
1FFFF1F8
07FFC1F8
01FF0000
ENDCHAR
STARTCHAR aacute
ENCODING 225
SWIDTH 612 0
DWIDTH 38 0
BBX 29 51 3 -1
BITMAP
00003F80
00003F00
00007E00
0000FC00
0001F800
0003F000
0003E000
0007C000
000F8000
001F0000
003E0000
00000000
00000000
00000000
00000000
007FE000
03FFFC00
1FFFFE00
3FFFFF80
3FFFFFC0
3F007FC0
38001FE0
200007E0
000003F0
000003F0
000001F0
000001F8
000001F8
000001F8
003FFFF8
03FFFFF8
0FFFFFF8
1FFFFFF8
3FFFFFF8
7FE001F8
7F0001F8
7E0001F8
FE0001F8
FC0001F8
FC0003F8
FC0003F8
FC0007F8
FC0007F8
FE000FF8
7F001FF8
7FC0FFF8
3FFFFDF8
3FFFF9F8
1FFFF1F8
07FFC1F8
01FF0000
ENDCHAR
STARTCHAR acircumflex
ENCODING 226
SWIDTH 612 0
DWIDTH 38 0
BBX 29 51 3 -1
BITMAP
000F8000
001FC000
001FC000
003FE000
007DF000
0078F000
00F8F800
01F07C00
01E03C00
03C01E00
07C01F00
00000000
00000000
00000000
00000000
007FE000
03FFFC00
1FFFFE00
3FFFFF80
3FFFFFC0
3F007FC0
38001FE0
200007E0
000003F0
000003F0
000001F0
000001F8
000001F8
000001F8
003FFFF8
03FFFFF8
0FFFFFF8
1FFFFFF8
3FFFFFF8
7FE001F8
7F0001F8
7E0001F8
FE0001F8
FC0001F8
FC0003F8
FC0003F8
FC0007F8
FC0007F8
FE000FF8
7F001FF8
7FC0FFF8
3FFFFDF8
3FFFF9F8
1FFFF1F8
07FFC1F8
01FF0000
ENDCHAR
STARTCHAR atilde
ENCODING 227
SWIDTH 612 0
DWIDTH 38 0
BBX 29 49 3 -1
BITMAP
00780780
01FE0780
03FF0780
03FF8780
03CFCF00
0787FF00
0783FE00
0781FE00
07807800
00000000
00000000
00000000
00000000
007FE000
03FFFC00
1FFFFE00
3FFFFF80
3FFFFFC0
3F007FC0
38001FE0
200007E0
000003F0
000003F0
000001F0
000001F8
000001F8
000001F8
003FFFF8
03FFFFF8
0FFFFFF8
1FFFFFF8
3FFFFFF8
7FE001F8
7F0001F8
7E0001F8
FE0001F8
FC0001F8
FC0003F8
FC0003F8
FC0007F8
FC0007F8
FE000FF8
7F001FF8
7FC0FFF8
3FFFFDF8
3FFFF9F8
1FFFF1F8
07FFC1F8
01FF0000
ENDCHAR
STARTCHAR adieresis
ENCODING 228
SWIDTH 612 0
DWIDTH 38 0
BBX 29 48 3 -1
BITMAP
03F03F00
03F03F00
03F03F00
03F03F00
03F03F00
03F03F00
00000000
00000000
00000000
00000000
00000000
00000000
007FE000
03FFFC00
1FFFFE00
3FFFFF80
3FFFFFC0
3F007FC0
38001FE0
200007E0
000003F0
000003F0
000001F0
000001F8
000001F8
000001F8
003FFFF8
03FFFFF8
0FFFFFF8
1FFFFFF8
3FFFFFF8
7FE001F8
7F0001F8
7E0001F8
FE0001F8
FC0001F8
FC0003F8
FC0003F8
FC0007F8
FC0007F8
FE000FF8
7F001FF8
7FC0FFF8
3FFFFDF8
3FFFF9F8
1FFFF1F8
07FFC1F8
01FF0000
ENDCHAR
STARTCHAR aring
ENCODING 229
SWIDTH 612 0
DWIDTH 38 0
BBX 29 56 3 -1
BITMAP
000F8000
003FE000
00FFF800
00FFF800
01F07C00
03E03C00
03C01E00
03C01E00
03C01E00
03C01E00
03C01E00
03E03C00
01F07C00
00FFF800
00FFF800
003FE000
000FC000
00000000
00000000
00000000
007FE000
03FFFC00
1FFFFE00
3FFFFF80
3FFFFFC0
3F007FC0
38001FE0
200007E0
000003F0
000003F0
000001F0
000001F8
000001F8
000001F8
003FFFF8
03FFFFF8
0FFFFFF8
1FFFFFF8
3FFFFFF8
7FE001F8
7F0001F8
7E0001F8
FE0001F8
FC0001F8
FC0003F8
FC0003F8
FC0007F8
FC0007F8
FE000FF8
7F001FF8
7FC0FFF8
3FFFFDF8
3FFFF9F8
1FFFF1F8
07FFC1F8
01FF0000
ENDCHAR
STARTCHAR ae
ENCODING 230
SWIDTH 981 0
DWIDTH 61 0
BBX 53 36 3 -1
BITMAP
007FC0003FC000
07FFF801FFF800
1FFFFE03FFFE00
3FFFFF0FFFFF00
3FFFFF9FFFFF80
3F00FFFFE07FC0
38001FFF001FC0
20000FFE0007E0
000007FC0007E0
000007FC0003F0
000003F80003F0
000003F80001F0
000003F00001F8
000003F00001F8
007FFFFFFFFFF8
03FFFFFFFFFFF8
0FFFFFFFFFFFF8
1FFFFFFFFFFFF8
3FFFFFFFFFFFF8
7FE003F0000000
7F0003F0000000
7E0003F0000000
FC0003F8000000
FC0007F8000000
FC0007F8000000
FC0007FC000000
FC000FFC000000
FC000FFE000000
FE001FFF000010
7F003F7F8000F0
7FC0FE3FF007F0
3FFFFE3FFFFFF0
3FFFFC0FFFFFF0
1FFFF007FFFFE0
07FFE001FFFF00
01FF00003FF800
ENDCHAR
STARTCHAR ccedilla
ENCODING 231
SWIDTH 549 0
DWIDTH 34 0
BBX 27 47 3 -12
BITMAP
000FF800
007FFF00
01FFFFC0
03FFFFE0
07FFFFE0
0FFC07E0
1FE000E0
1FC00020
3F800000
3F000000
7F000000
7E000000
7E000000
FC000000
FC000000
FC000000
FC000000
FC000000
FC000000
FC000000
FC000000
FC000000
FC000000
7E000000
7E000000
7F000000
3F000000
3F800000
1FC00020
1FE000E0
0FFC07E0
07FFFFE0
03FFFFE0
01FFFFC0
007FFF00
000FF800
00007800
00003C00
00003C00
00001E00
00001E00
00001E00
00203E00
003FFE00
003FFC00
003FF800
001FE000
ENDCHAR
STARTCHAR egrave
ENCODING 232
SWIDTH 615 0
DWIDTH 38 0
BBX 31 51 3 -1
BITMAP
03F80000
01F80000
00FC0000
007E0000
003F0000
001F8000
000F8000
0007C000
0003E000
0001F000
0000F800
00000000
00000000
00000000
00000000
000FF800
007FFE00
01FFFF80
03FFFFC0
07FFFFE0
0FF81FF0
1FC007F8
1F8001F8
3F0001FC
3F0000FC
7E0000FC
7E00007E
7C00007E
FC00007E
FFFFFFFE
FFFFFFFE
FFFFFFFE
FFFFFFFE
FFFFFFFE
FC000000
FC000000
FC000000
FE000000
7E000000
7E000000
7F000000
3F000000
3F800000
1FC00004
1FE0001C
0FFC01FC
07FFFFFC
03FFFFFC
00FFFFF8
007FFFC0
0007FE00
ENDCHAR
STARTCHAR eacute
ENCODING 233
SWIDTH 615 0
DWIDTH 38 0
BBX 31 51 3 -1
BITMAP
00000FE0
00000FC0
00001F80
00003F00
00007E00
0000FC00
0000F800
0001F000
0003E000
0007C000
000F8000
00000000
00000000
00000000
00000000
000FF800
007FFE00
01FFFF80
03FFFFC0
07FFFFE0
0FF81FF0
1FC007F8
1F8001F8
3F0001FC
3F0000FC
7E0000FC
7E00007E
7C00007E
FC00007E
FFFFFFFE
FFFFFFFE
FFFFFFFE
FFFFFFFE
FFFFFFFE
FC000000
FC000000
FC000000
FE000000
7E000000
7E000000
7F000000
3F000000
3F800000
1FC00004
1FE0001C
0FFC01FC
07FFFFFC
03FFFFFC
00FFFFF8
007FFFC0
0007FE00
ENDCHAR
STARTCHAR ecircumflex
ENCODING 234
SWIDTH 615 0
DWIDTH 38 0
BBX 31 51 3 -1
BITMAP
0003E000
0007F000
0007F000
000FF800
001F7C00
001E3C00
003E3E00
007C1F00
00780F00
00F00780
01F007C0
00000000
00000000
00000000
00000000
000FF800
007FFE00
01FFFF80
03FFFFC0
07FFFFE0
0FF81FF0
1FC007F8
1F8001F8
3F0001FC
3F0000FC
7E0000FC
7E00007E
7C00007E
FC00007E
FFFFFFFE
FFFFFFFE
FFFFFFFE
FFFFFFFE
FFFFFFFE
FC000000
FC000000
FC000000
FE000000
7E000000
7E000000
7F000000
3F000000
3F800000
1FC00004
1FE0001C
0FFC01FC
07FFFFFC
03FFFFFC
00FFFFF8
007FFFC0
0007FE00
ENDCHAR
STARTCHAR edieresis
ENCODING 235
SWIDTH 615 0
DWIDTH 38 0
BBX 31 48 3 -1
BITMAP
00FC0FC0
00FC0FC0
00FC0FC0
00FC0FC0
00FC0FC0
00FC0FC0
00000000
00000000
00000000
00000000
00000000
00000000
000FF800
007FFE00
01FFFF80
03FFFFC0
07FFFFE0
0FF81FF0
1FC007F8
1F8001F8
3F0001FC
3F0000FC
7E0000FC
7E00007E
7C00007E
FC00007E
FFFFFFFE
FFFFFFFE
FFFFFFFE
FFFFFFFE
FFFFFFFE
FC000000
FC000000
FC000000
FE000000
7E000000
7E000000
7F000000
3F000000
3F800000
1FC00004
1FE0001C
0FFC01FC
07FFFFFC
03FFFFFC
00FFFFF8
007FFFC0
0007FE00
ENDCHAR
STARTCHAR igrave
ENCODING 236
SWIDTH 277 0
DWIDTH 17 0
BBX 15 50 -2 0
BITMAP
FE00
7E00
3F00
1F80
0FC0
07E0
03E0
01F0
00F8
007C
003E
0000
0000
0000
0000
0000
00FC
00FC
00FC
00FC
00FC
00FC
00FC
00FC
00FC
00FC
00FC
00FC
00FC
00FC
00FC
00FC
00FC
00FC
00FC
00FC
00FC
00FC
00FC
00FC
00FC
00FC
00FC
00FC
00FC
00FC
00FC
00FC
00FC
00FC
ENDCHAR
STARTCHAR iacute
ENCODING 237
SWIDTH 277 0
DWIDTH 17 0
BBX 15 50 4 0
BITMAP
00FE
00FC
01F8
03F0
07E0
0FC0
0F80
1F00
3E00
7C00
F800
0000
0000
0000
0000
0000
3F00
3F00
3F00
3F00
3F00
3F00
3F00
3F00
3F00
3F00
3F00
3F00
3F00
3F00
3F00
3F00
3F00
3F00
3F00
3F00
3F00
3F00
3F00
3F00
3F00
3F00
3F00
3F00
3F00
3F00
3F00
3F00
3F00
3F00
ENDCHAR
STARTCHAR icircumflex
ENCODING 238
SWIDTH 277 0
DWIDTH 17 0
BBX 19 50 -1 0
BITMAP
01F000
03F800
03F800
07FC00
0FBE00
0F1E00
1F1F00
3E0F80
3C0780
7803C0
F803E0
000000
000000
000000
000000
000000
01F800
01F800
01F800
01F800
01F800
01F800
01F800
01F800
01F800
01F800
01F800
01F800
01F800
01F800
01F800
01F800
01F800
01F800
01F800
01F800
01F800
01F800
01F800
01F800
01F800
01F800
01F800
01F800
01F800
01F800
01F800
01F800
01F800
01F800
ENDCHAR
STARTCHAR idieresis
ENCODING 239
SWIDTH 277 0
DWIDTH 17 0
BBX 18 47 0 0
BITMAP
FC0FC0
FC0FC0
FC0FC0
FC0FC0
FC0FC0
FC0FC0
000000
000000
000000
000000
000000
000000
000000
03F000
03F000
03F000
03F000
03F000
03F000
03F000
03F000
03F000
03F000
03F000
03F000
03F000
03F000
03F000
03F000
03F000
03F000
03F000
03F000
03F000
03F000
03F000
03F000
03F000
03F000
03F000
03F000
03F000
03F000
03F000
03F000
03F000
03F000
ENDCHAR
STARTCHAR eth
ENCODING 240
SWIDTH 611 0
DWIDTH 38 0
BBX 31 48 3 -1
BITMAP
01F80000
01FC0060
00FE03E0
007F1FE0
003FFFC0
001FFE00
001FF000
00FFE000
07FFF000
1FF3F800
0F81FC00
0C00FE00
00007E00
00003F00
001FFF80
00FFFFC0
01FFFFE0
07FFFFE0
0FFFFFF0
1FF80FF0
1FE003F8
3F8001F8
3F0001FC
7F0000FC
7E0000FC
7E0000FC
FE00007E
FC00007E
FC00007E
FC00007E
FC00007E
FC00007E
FC00007E
FC00007E
FC00007E
FC0000FE
7E0000FC
7E0000FC
7F0001FC
3F0001F8
3F8003F8
1FC007F0
0FF01FE0
0FFFFFE0
07FFFF80
01FFFF00
00FFFC00
001FF000
ENDCHAR
STARTCHAR ntilde
ENCODING 241
SWIDTH 633 0
DWIDTH 39 0
BBX 28 48 6 0
BITMAP
00780780
01FE0780
03FF0780
03FF8780
03CFCF00
0787FF00
0783FE00
0781FE00
07807800
00000000
00000000
00000000
00000000
0007F000
FC1FFE00
FC7FFF00
FCFFFF80
FDFFFFC0
FFF03FC0
FFC01FE0
FF800FE0
FF0007E0
FE0007F0
FE0003F0
FE0003F0
FC0003F0
FC0003F0
FC0003F0
FC0003F0
FC0003F0
FC0003F0
FC0003F0
FC0003F0
FC0003F0
FC0003F0
FC0003F0
FC0003F0
FC0003F0
FC0003F0
FC0003F0
FC0003F0
FC0003F0
FC0003F0
FC0003F0
FC0003F0
FC0003F0
FC0003F0
FC0003F0
ENDCHAR
STARTCHAR ograve
ENCODING 242
SWIDTH 611 0
DWIDTH 38 0
BBX 31 51 3 -1
BITMAP
07F00000
03F00000
01F80000
00FC0000
007E0000
003F0000
001F0000
000F8000
0007C000
0003E000
0001F000
00000000
00000000
00000000
00000000
001FF000
00FFFE00
01FFFF00
07FFFFC0
0FFFFFE0
0FF03FE0
1FE00FF0
3F8003F8
3F8003F8
7F0001FC
7E0000FC
7E0000FC
FE0000FC
FC00007E
FC00007E
FC00007E
FC00007E
FC00007E
FC00007E
FC00007E
FC00007E
FC00007E
FC00007E
FE0000FC
7E0000FC
7E0000FC
7F0001FC
3F8003F8
3F8003F8
1FE00FF0
0FF01FE0
0FFFFFE0
07FFFFC0
01FFFF00
00FFFE00
001FF000
ENDCHAR
STARTCHAR oacute
ENCODING 243
SWIDTH 611 0
DWIDTH 38 0
BBX 31 51 3 -1
BITMAP
00001FC0
00001F80
00003F00
00007E00
0000FC00
0001F800
0001F000
0003E000
0007C000
000F8000
001F0000
00000000
00000000
00000000
00000000
001FF000
00FFFE00
01FFFF00
07FFFFC0
0FFFFFE0
0FF03FE0
1FE00FF0
3F8003F8
3F8003F8
7F0001FC
7E0000FC
7E0000FC
FE0000FC
FC00007E
FC00007E
FC00007E
FC00007E
FC00007E
FC00007E
FC00007E
FC00007E
FC00007E
FC00007E
FE0000FC
7E0000FC
7E0000FC
7F0001FC
3F8003F8
3F8003F8
1FE00FF0
0FF01FE0
0FFFFFE0
07FFFFC0
01FFFF00
00FFFE00
001FF000
ENDCHAR
STARTCHAR ocircumflex
ENCODING 244
SWIDTH 611 0
DWIDTH 38 0
BBX 31 51 3 -1
BITMAP
0007C000
000FE000
000FE000
001FF000
003EF800
003C7800
007C7C00
00F83E00
00F01E00
01E00F00
03E00F80
00000000
00000000
00000000
00000000
001FF000
00FFFE00
01FFFF00
07FFFFC0
0FFFFFE0
0FF03FE0
1FE00FF0
3F8003F8
3F8003F8
7F0001FC
7E0000FC
7E0000FC
FE0000FC
FC00007E
FC00007E
FC00007E
FC00007E
FC00007E
FC00007E
FC00007E
FC00007E
FC00007E
FC00007E
FE0000FC
7E0000FC
7E0000FC
7F0001FC
3F8003F8
3F8003F8
1FE00FF0
0FF01FE0
0FFFFFE0
07FFFFC0
01FFFF00
00FFFE00
001FF000
ENDCHAR
STARTCHAR otilde
ENCODING 245
SWIDTH 611 0
DWIDTH 38 0
BBX 31 49 3 -1
BITMAP
003C03C0
00FF03C0
01FF83C0
01FFC3C0
01E7E780
03C3FF80
03C1FF00
03C0FF00
03C03C00
00000000
00000000
00000000
00000000
001FF000
00FFFE00
01FFFF00
07FFFFC0
0FFFFFE0
0FF03FE0
1FE00FF0
3F8003F8
3F8003F8
7F0001FC
7E0000FC
7E0000FC
FE0000FC
FC00007E
FC00007E
FC00007E
FC00007E
FC00007E
FC00007E
FC00007E
FC00007E
FC00007E
FC00007E
FE0000FC
7E0000FC
7E0000FC
7F0001FC
3F8003F8
3F8003F8
1FE00FF0
0FF01FE0
0FFFFFE0
07FFFFC0
01FFFF00
00FFFE00
001FF000
ENDCHAR
STARTCHAR odieresis
ENCODING 246
SWIDTH 611 0
DWIDTH 38 0
BBX 31 48 3 -1
BITMAP
01F81F80
01F81F80
01F81F80
01F81F80
01F81F80
01F81F80
00000000
00000000
00000000
00000000
00000000
00000000
001FF000
00FFFE00
01FFFF00
07FFFFC0
0FFFFFE0
0FF03FE0
1FE00FF0
3F8003F8
3F8003F8
7F0001FC
7E0000FC
7E0000FC
FE0000FC
FC00007E
FC00007E
FC00007E
FC00007E
FC00007E
FC00007E
FC00007E
FC00007E
FC00007E
FC00007E
FE0000FC
7E0000FC
7E0000FC
7F0001FC
3F8003F8
3F8003F8
1FE00FF0
0FF01FE0
0FFFFFE0
07FFFFC0
01FFFF00
00FFFE00
001FF000
ENDCHAR
STARTCHAR divide
ENCODING 247
SWIDTH 837 0
DWIDTH 52 0
BBX 39 29 7 5
BITMAP
0000FE0000
0000FE0000
0000FE0000
0000FE0000
0000FE0000
0000FE0000
0000FE0000
0000000000
0000000000
0000000000
0000000000
0000000000
FFFFFFFFFE
FFFFFFFFFE
FFFFFFFFFE
FFFFFFFFFE
FFFFFFFFFE
0000000000
0000000000
0000000000
0000000000
0000000000
0000FE0000
0000FE0000
0000FE0000
0000FE0000
0000FE0000
0000FE0000
0000FE0000
ENDCHAR
STARTCHAR oslash
ENCODING 248
SWIDTH 611 0
DWIDTH 38 0
BBX 33 40 2 -3
BITMAP
0000000200
0000000700
000FF80F80
007FFE1F00
00FFFF9F00
03FFFFFE00
07FFFFFC00
0FF81FF800
0FE007F800
1FC001FC00
1FC003FC00
3F8007FE00
3F000FFE00
3F001F7E00
7F001E7E00
7E003E3F00
7E007C3F00
7E00F83F00
7E01F03F00
7E03E03F00
7E03C03F00
7E07C03F00
7E0F803F00
7E1F003F00
7E3E003F00
3F3C007E00
3F7C007E00
3FF8007E00
3FF000FE00
1FE001FC00
1FC001FC00
0FE007F800
0FF80FF800
1FFFFFF000
3FFFFFE000
7CFFFF8000
7C3FFF0000
F80FF80000
7000000000
2000000000
ENDCHAR
STARTCHAR ugrave
ENCODING 249
SWIDTH 633 0
DWIDTH 39 0
BBX 28 51 6 -1
BITMAP
1FC00000
0FC00000
07E00000
03F00000
01F80000
00FC0000
007C0000
003E0000
001F0000
000F8000
0007C000
00000000
00000000
00000000
00000000
00000000
FC0003F0
FC0003F0
FC0003F0
FC0003F0
FC0003F0
FC0003F0
FC0003F0
FC0003F0
FC0003F0
FC0003F0
FC0003F0
FC0003F0
FC0003F0
FC0003F0
FC0003F0
FC0003F0
FC0003F0
FC0003F0
FC0003F0
FC0003F0
FC0003F0
FC0003F0
FC0003F0
FC0007F0
FC0007F0
FE0007F0
7E000FF0
7F001FF0
7F803FF0
3FC0FFF0
3FFFFBF0
1FFFF3F0
0FFFE3F0
07FFC3F0
00FE0000
ENDCHAR
STARTCHAR uacute
ENCODING 250
SWIDTH 633 0
DWIDTH 39 0
BBX 28 51 6 -1
BITMAP
00007F00
00007E00
0000FC00
0001F800
0003F000
0007E000
0007C000
000F8000
001F0000
003E0000
007C0000
00000000
00000000
00000000
00000000
00000000
FC0003F0
FC0003F0
FC0003F0
FC0003F0
FC0003F0
FC0003F0
FC0003F0
FC0003F0
FC0003F0
FC0003F0
FC0003F0
FC0003F0
FC0003F0
FC0003F0
FC0003F0
FC0003F0
FC0003F0
FC0003F0
FC0003F0
FC0003F0
FC0003F0
FC0003F0
FC0003F0
FC0007F0
FC0007F0
FE0007F0
7E000FF0
7F001FF0
7F803FF0
3FC0FFF0
3FFFFBF0
1FFFF3F0
0FFFE3F0
07FFC3F0
00FE0000
ENDCHAR
STARTCHAR ucircumflex
ENCODING 251
SWIDTH 633 0
DWIDTH 39 0
BBX 28 51 6 -1
BITMAP
001F0000
003F8000
003F8000
007FC000
00FBE000
00F1E000
01F1F000
03E0F800
03C07800
07803C00
0F803E00
00000000
00000000
00000000
00000000
00000000
FC0003F0
FC0003F0
FC0003F0
FC0003F0
FC0003F0
FC0003F0
FC0003F0
FC0003F0
FC0003F0
FC0003F0
FC0003F0
FC0003F0
FC0003F0
FC0003F0
FC0003F0
FC0003F0
FC0003F0
FC0003F0
FC0003F0
FC0003F0
FC0003F0
FC0003F0
FC0003F0
FC0007F0
FC0007F0
FE0007F0
7E000FF0
7F001FF0
7F803FF0
3FC0FFF0
3FFFFBF0
1FFFF3F0
0FFFE3F0
07FFC3F0
00FE0000
ENDCHAR
STARTCHAR udieresis
ENCODING 252
SWIDTH 633 0
DWIDTH 39 0
BBX 28 48 6 -1
BITMAP
07E07E00
07E07E00
07E07E00
07E07E00
07E07E00
07E07E00
00000000
00000000
00000000
00000000
00000000
00000000
00000000
FC0003F0
FC0003F0
FC0003F0
FC0003F0
FC0003F0
FC0003F0
FC0003F0
FC0003F0
FC0003F0
FC0003F0
FC0003F0
FC0003F0
FC0003F0
FC0003F0
FC0003F0
FC0003F0
FC0003F0
FC0003F0
FC0003F0
FC0003F0
FC0003F0
FC0003F0
FC0003F0
FC0007F0
FC0007F0
FE0007F0
7E000FF0
7F001FF0
7F803FF0
3FC0FFF0
3FFFFBF0
1FFFF3F0
0FFFE3F0
07FFC3F0
00FE0000
ENDCHAR
STARTCHAR yacute
ENCODING 253
SWIDTH 591 0
DWIDTH 37 0
BBX 33 63 2 -13
BITMAP
00000FE000
00000FC000
00001F8000
00003F0000
00007E0000
0000FC0000
0000F80000
0001F00000
0003E00000
0007C00000
000F800000
0000000000
0000000000
0000000000
0000000000
0000000000
FE00003F80
7E00003F00
7F00007F00
7F00007F00
3F00007E00
3F8000FE00
1F8000FC00
1FC001FC00
1FC001FC00
0FC001F800
0FE003F800
07E003F000
07F007F000
03F007F000
03F007E000
03F80FE000
01F80FC000
01FC1FC000
00FC1FC000
00FC1F8000
00FE3F8000
007E3F0000
007F7F0000
003F7F0000
003FFE0000
003FFE0000
001FFC0000
001FFC0000
000FFC0000
000FF80000
000FF80000
0007F00000
0007F00000
0007E00000
0007E00000
000FE00000
000FC00000
001FC00000
001F800000
003F800000
003F800000
00FF000000
1FFF000000
1FFE000000
1FFC000000
1FF8000000
1FE0000000
ENDCHAR
STARTCHAR thorn
ENCODING 254
SWIDTH 634 0
DWIDTH 39 0
BBX 30 60 6 -13
BITMAP
FC000000
FC000000
FC000000
FC000000
FC000000
FC000000
FC000000
FC000000
FC000000
FC000000
FC000000
FC000000
FC07F000
FC3FFC00
FC7FFF00
FCFFFF80
FDFFFFC0
FFF03FE0
FFC00FE0
FF8007F0
FF0003F0
FF0003F8
FE0001F8
FE0001F8
FE0001F8
FC0000FC
FC0000FC
FC0000FC
FC0000FC
FC0000FC
FC0000FC
FC0000FC
FC0000FC
FC0000FC
FC0000FC
FE0001FC
FE0001F8
FE0001F8
FF0003F8
FF0003F0
FF8007F0
FFC00FE0
FFF03FE0
FDFFFFC0
FCFFFF80
FC7FFF00
FC3FFC00
FC07F000
FC000000
FC000000
FC000000
FC000000
FC000000
FC000000
FC000000
FC000000
FC000000
FC000000
FC000000
FC000000
ENDCHAR
STARTCHAR ydieresis
ENCODING 255
SWIDTH 591 0
DWIDTH 37 0
BBX 33 60 2 -13
BITMAP
00FC0FC000
00FC0FC000
00FC0FC000
00FC0FC000
00FC0FC000
00FC0FC000
0000000000
0000000000
0000000000
0000000000
0000000000
0000000000
0000000000
FE00003F80
7E00003F00
7F00007F00
7F00007F00
3F00007E00
3F8000FE00
1F8000FC00
1FC001FC00
1FC001FC00
0FC001F800
0FE003F800
07E003F000
07F007F000
03F007F000
03F007E000
03F80FE000
01F80FC000
01FC1FC000
00FC1FC000
00FC1F8000
00FE3F8000
007E3F0000
007F7F0000
003F7F0000
003FFE0000
003FFE0000
001FFC0000
001FFC0000
000FFC0000
000FF80000
000FF80000
0007F00000
0007F00000
0007E00000
0007E00000
000FE00000
000FC00000
001FC00000
001F800000
003F800000
003F800000
00FF000000
1FFF000000
1FFE000000
1FFC000000
1FF8000000
1FE0000000
ENDCHAR
STARTCHAR .notdef
ENCODING -1
SWIDTH 600 0
DWIDTH 37 0
BBX 31 55 3 -11
BITMAP
FFFFFFFE
FFFFFFFE
FFFFFFFE
E000000E
E000000E
E000000E
E000000E
E000000E
E000000E
E000000E
E000000E
E000000E
E000000E
E000000E
E000000E
E000000E
E000000E
E000000E
E000000E
E000000E
E000000E
E000000E
E000000E
E000000E
E000000E
E000000E
E000000E
E000000E
E000000E
E000000E
E000000E
E000000E
E000000E
E000000E
E000000E
E000000E
E000000E
E000000E
E000000E
E000000E
E000000E
E000000E
E000000E
E000000E
E000000E
E000000E
E000000E
E000000E
E000000E
E000000E
E000000E
E000000E
FFFFFFFE
FFFFFFFE
FFFFFFFE
ENDCHAR
STARTCHAR .null
ENCODING -1
SWIDTH 0 0
DWIDTH 0 0
BBX 1 1 0 0
BITMAP
00
ENDCHAR
STARTCHAR nonmarkingreturn
ENCODING -1
SWIDTH 317 0
DWIDTH 20 0
BBX 1 1 0 0
BITMAP
00
ENDCHAR
STARTCHAR dagger
ENCODING -1
SWIDTH 500 0
DWIDTH 31 0
BBX 27 51 2 -6
BITMAP
001F0000
001F0000
001F0000
001F0000
001F0000
001F0000
001F0000
001F0000
001F0000
001F0000
001F0000
001F0000
001F0000
FFFFFFE0
FFFFFFE0
FFFFFFE0
FFFFFFE0
FFFFFFE0
001F0000
001F0000
001F0000
001F0000
001F0000
001F0000
001F0000
001F0000
001F0000
001F0000
001F0000
001F0000
001F0000
001F0000
001F0000
001F0000
001F0000
001F0000
001F0000
001F0000
001F0000
001F0000
001F0000
001F0000
001F0000
001F0000
001F0000
001F0000
001F0000
001F0000
001F0000
001F0000
001F0000
ENDCHAR
STARTCHAR bullet
ENCODING -1
SWIDTH 589 0
DWIDTH 37 0
BBX 18 18 9 14
BITMAP
03F000
0FFC00
1FFE00
3FFF00
7FFF80
7FFF80
FFFFC0
FFFFC0
FFFFC0
FFFFC0
FFFFC0
FFFFC0
7FFF80
7FFF80
3FFF00
1FFE00
0FFC00
03F000
ENDCHAR
STARTCHAR trademark
ENCODING -1
SWIDTH 1000 0
DWIDTH 62 0
BBX 40 18 9 27
BITMAP
FFFE1F803F
FFFE1F803F
FFFE1FC07F
03801FE07F
03801DE0F7
03801CF1E7
03801CF9E7
03801C7BC7
03801C3F87
03801C3F87
03801C1F07
03801C0F07
03801C0E07
03801C0007
03801C0007
03801C0007
03801C0007
03801C0007
ENDCHAR
STARTCHAR notequal
ENCODING -1
SWIDTH 837 0
DWIDTH 52 0
BBX 39 37 7 1
BITMAP
0000000100
0000000380
00000007C0
00000007E0
0000000FC0
0000001F80
0000003F80
0000007F00
0000007E00
000000FC00
FFFFFFFFFE
FFFFFFFFFE
FFFFFFFFFE
FFFFFFFFFE
FFFFFFFFFE
00001F8000
00003F0000
00007F0000
0000FE0000
0001FC0000
0001F80000
0003F00000
FFFFFFFFFE
FFFFFFFFFE
FFFFFFFFFE
FFFFFFFFFE
FFFFFFFFFE
007E000000
00FC000000
01FC000000
03F8000000
03F0000000
07E0000000
0FC0000000
07C0000000
0380000000
0100000000
ENDCHAR
STARTCHAR infinity
ENCODING -1
SWIDTH 833 0
DWIDTH 52 0
BBX 38 24 7 6
BITMAP
03F0007F00
0FFC00FF80
1FFE03FFC0
3FFF03FFE0
3FFF07FFF0
7C0F8FE078
7803CF8038
7001DF0018
E000FF001C
C000FE000C
C0007E000C
C0007C000C
C000FC000C
C000F8000C
C001F8000C
C001FC001C
6003FE0018
7007EF0038
700FC78078
3C1F87F3F0
1FFF83FFF0
0FFF01FFE0
07FC00FFC0
01F8003E00
ENDCHAR
STARTCHAR lessequal
ENCODING -1
SWIDTH 837 0
DWIDTH 52 0
BBX 39 36 7 0
BITMAP
0000000006
000000003E
00000003FE
0000001FFE
000001FFFE
00001FFFFC
0000FFFFC0
000FFFFE00
007FFFE000
07FFFF0000
3FFFF00000
FFFF800000
FFF8000000
FFC0000000
FFF8000000
FFFF800000
3FFFF00000
07FFFF0000
007FFFE000
000FFFFE00
0000FFFFC0
00001FFFFC
000001FFFE
0000001FFE
00000003FE
000000003E
0000000006
0000000000
0000000000
0000000000
0000000000
FFFFFFFFFE
FFFFFFFFFE
FFFFFFFFFE
FFFFFFFFFE
FFFFFFFFFE
ENDCHAR
STARTCHAR greaterequal
ENCODING -1
SWIDTH 837 0
DWIDTH 52 0
BBX 39 36 7 0
BITMAP
C000000000
F800000000
FF80000000
FFF8000000
FFFF000000
7FFFF00000
07FFFE0000
00FFFFE000
000FFFFC00
0001FFFFC0
00001FFFF8
000003FFFE
0000003FFE
00000007FE
0000003FFE
000003FFFE
00001FFFF8
0001FFFFC0
000FFFFC00
00FFFFE000
07FFFE0000
7FFFF00000
FFFF000000
FFF0000000
FF80000000
F800000000
C000000000
0000000000
0000000000
0000000000
0000000000
FFFFFFFFFE
FFFFFFFFFE
FFFFFFFFFE
FFFFFFFFFE
FFFFFFFFFE
ENDCHAR
STARTCHAR partialdiff
ENCODING -1
SWIDTH 517 0
DWIDTH 32 0
BBX 26 40 3 0
BITMAP
001FC000
007FF000
00FFF800
01FFFC00
01FC3E00
01F81E00
01F00F00
00000F00
00000F80
00000F80
00000F80
00000FC0
00000FC0
00000FC0
00000FC0
00000FC0
00FE0FC0
03FF8FC0
07E1CFC0
1FC0EFC0
1F806FC0
3F003FC0
7F003FC0
7E003F80
7E003F80
FE003F80
FC003F80
FC003F00
FC003F00
FC003F00
FC007E00
FC007E00
FC007C00
7C00FC00
7C00F800
3E01F000
1E03E000
0F87C000
07FF8000
01FC0000
ENDCHAR
STARTCHAR summation
ENCODING -1
SWIDTH 673 0
DWIDTH 42 0
BBX 40 57 1 -12
BITMAP
7FFFFFFFFE
7FFFFFFFFE
7FFFFFFFFE
7FFFFFFFFE
7FFFFFFFFE
7FFFFFFFFE
3FC0000000
1FE0000000
0FF0000000
07F8000000
03FC000000
01FE000000
00FF000000
00FF800000
007FC00000
003FE00000
001FF00000
000FF80000
0007FC0000
0003FE0000
0001FF0000
0000FF8000
00007F8000
00003FC000
00001FE000
00000FF000
000007F800
000003FC00
000003FC00
000007F800
00000FF000
00001FE000
00003FC000
00007F8000
0000FF0000
0001FF0000
0003FE0000
0007FC0000
0007F80000
000FF00000
001FE00000
003FC00000
007F800000
00FF000000
01FE000000
03FC000000
07F8000000
0FF8000000
0FF0000000
1FE0000000
3FC0000000
7FFFFFFFFF
FFFFFFFFFF
FFFFFFFFFF
FFFFFFFFFF
FFFFFFFFFF
FFFFFFFFFF
ENDCHAR
STARTCHAR product
ENCODING -1
SWIDTH 756 0
DWIDTH 47 0
BBX 37 56 5 -11
BITMAP
FFFFFFFFF8
FFFFFFFFF8
FFFFFFFFF8
FFFFFFFFF8
FFFFFFFFF8
FC000001F8
FC000001F8
FC000001F8
FC000001F8
FC000001F8
FC000001F8
FC000001F8
FC000001F8
FC000001F8
FC000001F8
FC000001F8
FC000001F8
FC000001F8
FC000001F8
FC000001F8
FC000001F8
FC000001F8
FC000001F8
FC000001F8
FC000001F8
FC000001F8
FC000001F8
FC000001F8
FC000001F8
FC000001F8
FC000001F8
FC000001F8
FC000001F8
FC000001F8
FC000001F8
FC000001F8
FC000001F8
FC000001F8
FC000001F8
FC000001F8
FC000001F8
FC000001F8
FC000001F8
FC000001F8
FC000001F8
FC000001F8
FC000001F8
FC000001F8
FC000001F8
FC000001F8
FC000001F8
FC000001F8
FC000001F8
FC000001F8
FC000001F8
FC000001F8
ENDCHAR
STARTCHAR pi
ENCODING -1
SWIDTH 588 0
DWIDTH 37 0
BBX 37 32 -1 0
BITMAP
07FFFFFFF8
1FFFFFFFF8
3FFFFFFFF0
3FFFFFFFF0
7FFFFFFFF0
7C7C00FC00
F87C00FC00
F87C00FC00
F87C00F800
00FC01F800
00F801F800
00F801F800
00F801F000
00F803F000
01F803F000
01F003F000
01F003E000
01F007E000
01F007E000
03F007E000
03E007E000
03E00FC000
03E00FC000
03E00FC000
07E00FC000
07C00FC000
07C00FE000
07C00FFF00
07C00FFF00
0FC007FF00
0F8003FF00
0F8000FE00
ENDCHAR
STARTCHAR integral
ENCODING -1
SWIDTH 520 0
DWIDTH 32 0
BBX 30 58 1 -11
BITMAP
000007E0
00001FF8
00003FF8
00007BFC
0000F1FC
0000F1FC
0001F1F8
0001E0F0
0001E000
0003E000
0003E000
0003E000
0003E000
0007E000
0007E000
0007C000
0007C000
0007C000
0007C000
0007C000
000FC000
000FC000
000FC000
000FC000
000FC000
000FC000
000FC000
000FC000
000FC000
000FC000
000FC000
000FC000
000FC000
000FC000
000FC000
000FC000
000FC000
000FC000
000FC000
000F8000
000F8000
000F8000
000F8000
001F8000
001F8000
001F0000
001F0000
001F0000
001F0000
001E0000
3C1E0000
7E3E0000
FE3C0000
FE3C0000
FF780000
FFF00000
7FE00000
1F800000
ENDCHAR
STARTCHAR Omega
ENCODING -1
SWIDTH 764 0
DWIDTH 47 0
BBX 44 46 2 0
BITMAP
00007FE00000
0003FFFC0000
001FFFFF8000
003FFFFFC000
007FFFFFE000
01FFC03FF800
03FE0007FC00
03F80001FC00
07F00000FE00
0FE000007F00
0FC000003F00
1FC000003F80
1F8000001F80
3F8000001FC0
3F0000000FC0
3F0000000FC0
7F0000000FE0
7E00000007E0
7E00000007E0
7E00000007E0
7E00000007E0
7E00000007E0
7E00000007E0
7E00000007E0
7E00000007E0
7E00000007E0
7F0000000FE0
3F0000000FC0
3F0000000FC0
3F0000001FC0
3F8000001FC0
1F8000001F80
1FC000003F80
0FE000007F00
0FE000007F00
07F00000FE00
03F80001FC00
01FC0003F800
00FE0007F000
00FF801FF000
003FC03FC000
FFFFE07FFFF0
FFFFE07FFFF0
FFFFE07FFFF0
FFFFE07FFFF0
FFFFE07FFFF0
ENDCHAR
STARTCHAR radical
ENCODING -1
SWIDTH 637 0
DWIDTH 40 0
BBX 38 52 2 -2
BITMAP
00000000FC
00000000FC
00000001FC
00000001C0
00000001C0
00000003C0
0000000380
0000000780
0000000700
0000000700
0000000F00
0000000E00
0000000E00
0000001E00
0000001C00
0000003C00
0000003800
0000003800
0000007800
0000007000
0000007000
038000F000
1F8000E000
FFC001E000
FFC001E000
47C001C000
07E003C000
03E0038000
03F0038000
03F0078000
01F0070000
01F80F0000
01F80F0000
00F80E0000
00FC1E0000
00FC1C0000
007C1C0000
007E3C0000
007E380000
003F780000
003F780000
001F700000
001FF00000
001FF00000
000FE00000
000FE00000
000FC00000
0007C00000
0007C00000
0007800000
0003800000
0003800000
ENDCHAR
STARTCHAR florin
ENCODING -1
SWIDTH 636 0
DWIDTH 39 0
BBX 38 60 1 -13
BITMAP
0000000FF0
0000003FFC
0000007FFC
000000FFFC
000001FFFC
000003FC04
000003F800
000007F000
000007E000
000007E000
00000FC000
00000FC000
00000FC000
00000FC000
00000FC000
00001FC000
00001F8000
00001F8000
00001F8000
00001F8000
00003F8000
003FFFFF80
003FFFFF80
003FFFFF80
003FFFFF80
003FFFFF80
00007F0000
00007E0000
00007E0000
00007E0000
0000FE0000
0000FE0000
0000FC0000
0000FC0000
0000FC0000
0001FC0000
0001F80000
0001F80000
0001F80000
0001F80000
0003F80000
0003F00000
0003F00000
0003F00000
0003F00000
0007F00000
0007E00000
0007E00000
0007E00000
000FE00000
000FC00000
000FC00000
001FC00000
003F800000
C07F800000
FFFF000000
FFFE000000
FFFC000000
FFF8000000
3FE0000000
ENDCHAR
STARTCHAR approxequal
ENCODING -1
SWIDTH 837 0
DWIDTH 52 0
BBX 39 21 7 9
BITMAP
00FF000006
07FFE0000E
1FFFF8003E
7FFFFF80FE
FFFFFFFFFE
FE03FFFFFC
F8003FFFF0
E0000FFFC0
C00001FE00
0000000000
0000000000
0000000000
00FF000006
07FFE0000E
1FFFF8003E
7FFFFF80FE
FFFFFFFFFE
FE03FFFFFC
F8003FFFF0
E0000FFFC0
C00001FE00
ENDCHAR
STARTCHAR Delta
ENCODING -1
SWIDTH 668 0
DWIDTH 41 0
BBX 42 45 0 0
BITMAP
00007F800000
00007F800000
0000FF800000
0000FFC00000
0000FFC00000
0001FFC00000
0001FFE00000
0001FFE00000
0003F3F00000
0003F3F00000
0007E3F00000
0007E1F80000
0007E1F80000
000FC0FC0000
000FC0FC0000
001F80FC0000
001F807E0000
001F807E0000
003F007F0000
003F003F0000
007F003F0000
007E001F8000
007E001F8000
00FC001FC000
00FC000FC000
00FC000FC000
01F8000FE000
01F80007E000
03F80007F000
03F00003F000
03F00003F000
07E00003F800
07E00001F800
0FE00001F800
0FC00000FC00
0FC00000FC00
1F800000FE00
1F8000007E00
1F8000007E00
3F0000007F00
3FFFFFFFFF00
7FFFFFFFFF80
7FFFFFFFFF80
7FFFFFFFFF80
FFFFFFFFFFC0
ENDCHAR
STARTCHAR ellipsis
ENCODING -1
SWIDTH 1000 0
DWIDTH 62 0
BBX 48 8 7 0
BITMAP
FC0007E0003F
FC0007E0003F
FC0007E0003F
FC0007E0003F
FC0007E0003F
FC0007E0003F
FC0007E0003F
FC0007E0003F
ENDCHAR
STARTCHAR OE
ENCODING -1
SWIDTH 1069 0
DWIDTH 66 0
BBX 59 45 4 0
BITMAP
00000FFFFFFFFFC0
0001FFFFFFFFFFC0
000FFFFFFFFFFFC0
003FFFFFFFFFFFC0
00FFFFFFFFFFFFC0
01FFF003F0000000
03FF0003F0000000
07FC0003F0000000
0FF00003F0000000
1FE00003F0000000
1FC00003F0000000
3F800003F0000000
3F000003F0000000
7F000003F0000000
7E000003F0000000
7E000003F0000000
7E000003F0000000
FC000003F0000000
FC000003FFFFFFC0
FC000003FFFFFFC0
FC000003FFFFFFC0
FC000003FFFFFFC0
FC000003FFFFFFC0
FC000003F0000000
FC000003F0000000
FC000003F0000000
FC000003F0000000
FC000003F0000000
7E000003F0000000
7E000003F0000000
7E000003F0000000
7F000003F0000000
3F000003F0000000
3F800003F0000000
1FC00003F0000000
1FE00003F0000000
0FF00003F0000000
07FC0003F0000000
03FF0003F0000000
01FFF003F0000000
00FFFFFFFFFFFFE0
003FFFFFFFFFFFE0
000FFFFFFFFFFFE0
0001FFFFFFFFFFE0
00000FFFFFFFFFE0
ENDCHAR
STARTCHAR oe
ENCODING -1
SWIDTH 1022 0
DWIDTH 63 0
BBX 56 36 3 -1
BITMAP
001FF00007FC00
00FFFC003FFF00
01FFFF007FFFC0
07FFFF81FFFFE0
0FFFFFC3FFFFF0
0FF03FE7FC0FF8
1FE00FFFE003FC
3F8003FFC000FC
3F8003FF8000FE
7F0001FF80007E
7E0000FF00007E
7E0000FF00003F
FE0000FE00003F
FC00007E00003F
FC00007FFFFFFF
FC00007FFFFFFF
FC00007FFFFFFF
FC00007FFFFFFF
FC00007FFFFFFF
FC00007E000000
FC00007E000000
FC00007E000000
FC00007F000000
FE0000FF000000
7E0000FF000000
7E0000FF800000
7F0001FF800000
3F8003FFC00000
3F8003FFE00002
1FE00FFFF0000E
0FF01FE7FE00FE
0FFFFFC3FFFFFE
07FFFF81FFFFFE
01FFFF007FFFFC
00FFFC001FFFE0
001FF00003FF00
ENDCHAR
STARTCHAR endash
ENCODING -1
SWIDTH 500 0
DWIDTH 31 0
BBX 31 5 0 14
BITMAP
FFFFFFFE
FFFFFFFE
FFFFFFFE
FFFFFFFE
FFFFFFFE
ENDCHAR
STARTCHAR emdash
ENCODING -1
SWIDTH 1000 0
DWIDTH 62 0
BBX 62 5 0 14
BITMAP
FFFFFFFFFFFFFFFC
FFFFFFFFFFFFFFFC
FFFFFFFFFFFFFFFC
FFFFFFFFFFFFFFFC
FFFFFFFFFFFFFFFC
ENDCHAR
STARTCHAR quotedblleft
ENCODING -1
SWIDTH 518 0
DWIDTH 32 0
BBX 20 15 5 30
BITMAP
0F00F0
1F01F0
1E01E0
1E01E0
3E03E0
3E03E0
7E07E0
7C07C0
FC0FC0
FC0FC0
FC0FC0
FC0FC0
FC0FC0
FC0FC0
FC0FC0
ENDCHAR
STARTCHAR quotedblright
ENCODING -1
SWIDTH 518 0
DWIDTH 32 0
BBX 20 15 6 30
BITMAP
3F03F0
3F03F0
3F03F0
3F03F0
3F03F0
3F03F0
3E03E0
3E03E0
7E07E0
7C07C0
7C07C0
780780
780780
F80F80
F00F00
ENDCHAR
STARTCHAR quoteleft
ENCODING -1
SWIDTH 317 0
DWIDTH 20 0
BBX 8 15 5 30
BITMAP
0F
1F
1E
1E
3E
3E
7E
7C
FC
FC
FC
FC
FC
FC
FC
ENDCHAR
STARTCHAR quoteright
ENCODING -1
SWIDTH 317 0
DWIDTH 20 0
BBX 8 15 6 30
BITMAP
3F
3F
3F
3F
3F
3F
3E
7E
7E
7C
7C
78
F8
F8
F0
ENDCHAR
STARTCHAR lozenge
ENCODING -1
SWIDTH 494 0
DWIDTH 31 0
BBX 30 62 0 -13
BITMAP
00030000
00030000
00078000
00078000
000FC000
000FC000
001FE000
001CE000
001CE000
003CF000
00387000
00787800
00703800
00F03C00
00E01C00
01E01E00
01C00E00
03C00F00
03800700
07800780
07000380
0F0003C0
0E0001C0
1E0001E0
1E0001E0
1C0000E0
3C0000F0
38000070
78000078
70000038
F000003C
F000003C
70000038
78000078
38000070
3C0000F0
1C0000E0
1C0000E0
0E0001C0
0E0001C0
0F0003C0
07000380
07800780
03800700
03C00F00
01C00E00
01E01E00
00E01C00
00F03C00
00703800
00787800
00387000
00387000
001CE000
001CE000
001FE000
000FC000
000FC000
00078000
00078000
00030000
00030000
ENDCHAR
STARTCHAR Ydieresis
ENCODING -1
SWIDTH 610 0
DWIDTH 38 0
BBX 38 56 0 0
BITMAP
003F03F000
003F03F000
003F03F000
003F03F000
003F03F000
003F03F000
0000000000
0000000000
0000000000
0000000000
0000000000
FF000003FC
7F000003F8
3F800007F0
3FC0000FF0
1FC0000FE0
0FE0001FC0
0FF0003FC0
07F0003F80
03F8007F00
03FC00FF00
01FC00FE00
00FE01FC00
00FF03FC00
007F03F800
003F87F000
001FCFE000
001FCFE000
000FFFC000
0007FF8000
0007FF8000
0003FF0000
0001FE0000
0001FE0000
0000FC0000
0000FC0000
0000FC0000
0000FC0000
0000FC0000
0000FC0000
0000FC0000
0000FC0000
0000FC0000
0000FC0000
0000FC0000
0000FC0000
0000FC0000
0000FC0000
0000FC0000
0000FC0000
0000FC0000
0000FC0000
0000FC0000
0000FC0000
0000FC0000
0000FC0000
ENDCHAR
STARTCHAR fraction
ENCODING -1
SWIDTH 166 0
DWIDTH 10 0
BBX 33 47 -11 -1
BITMAP
0000000F80
0000001F00
0000001F00
0000003E00
0000003C00
0000007C00
000000F800
000000F000
000001F000
000001E000
000003E000
000007C000
0000078000
00000F8000
00000F0000
00001F0000
00003E0000
00003C0000
00007C0000
0000780000
0000F80000
0001F00000
0001E00000
0003E00000
0003C00000
0007C00000
000F800000
000F000000
001F000000
001E000000
003E000000
007C000000
0078000000
00F8000000
00F0000000
01F0000000
03E0000000
03C0000000
07C0000000
0780000000
0F80000000
1F00000000
1E00000000
3E00000000
7C00000000
7C00000000
F800000000
ENDCHAR
STARTCHAR guilsinglleft
ENCODING -1
SWIDTH 399 0
DWIDTH 25 0
BBX 14 28 5 4
BITMAP
0004
000C
001C
003C
007C
00FC
01F8
03F0
07E0
0FC0
3F00
7E00
FC00
F800
F800
FC00
7E00
3F00
0FC0
07E0
03F0
01F8
00FC
007C
003C
001C
000C
0004
ENDCHAR
STARTCHAR guilsinglright
ENCODING -1
SWIDTH 399 0
DWIDTH 25 0
BBX 14 28 6 4
BITMAP
8000
C000
E000
F000
F800
FC00
7E00
3F00
1F80
0FC0
03F0
01F8
00FC
007C
007C
00FC
01F8
03F0
0FC0
1F80
3F00
7E00
FC00
F800
F000
E000
C000
8000
ENDCHAR
STARTCHAR fi
ENCODING -1
SWIDTH 629 0
DWIDTH 39 0
BBX 31 47 2 0
BITMAP
000FFC7E
007FFC7E
00FFFC7E
01FFFC7E
03FFFC7E
03F8007E
07F0007E
07E00000
07E00000
07E00000
07E00000
07E00000
07E00000
FFFFFFFE
FFFFFFFE
FFFFFFFE
FFFFFFFE
FFFFFFFE
07E0007E
07E0007E
07E0007E
07E0007E
07E0007E
07E0007E
07E0007E
07E0007E
07E0007E
07E0007E
07E0007E
07E0007E
07E0007E
07E0007E
07E0007E
07E0007E
07E0007E
07E0007E
07E0007E
07E0007E
07E0007E
07E0007E
07E0007E
07E0007E
07E0007E
07E0007E
07E0007E
07E0007E
07E0007E
ENDCHAR
STARTCHAR fl
ENCODING -1
SWIDTH 629 0
DWIDTH 39 0
BBX 31 47 2 0
BITMAP
000FFFFE
007FFFFE
00FFFFFE
01FFFFFE
03FFFFFE
03F8007E
07F0007E
07E0007E
07E0007E
07E0007E
07E0007E
07E0007E
07E0007E
FFFFF07E
FFFFF07E
FFFFF07E
FFFFF07E
FFFFF07E
07E0007E
07E0007E
07E0007E
07E0007E
07E0007E
07E0007E
07E0007E
07E0007E
07E0007E
07E0007E
07E0007E
07E0007E
07E0007E
07E0007E
07E0007E
07E0007E
07E0007E
07E0007E
07E0007E
07E0007E
07E0007E
07E0007E
07E0007E
07E0007E
07E0007E
07E0007E
07E0007E
07E0007E
07E0007E
ENDCHAR
STARTCHAR daggerdbl
ENCODING -1
SWIDTH 500 0
DWIDTH 31 0
BBX 27 51 2 -6
BITMAP
001F0000
001F0000
001F0000
001F0000
001F0000
001F0000
001F0000
001F0000
001F0000
001F0000
001F0000
001F0000
001F0000
FFFFFFE0
FFFFFFE0
FFFFFFE0
FFFFFFE0
FFFFFFE0
001F0000
001F0000
001F0000
001F0000
001F0000
001F0000
001F0000
001F0000
001F0000
001F0000
001F0000
001F0000
001F0000
001F0000
001F0000
FFFFFFE0
FFFFFFE0
FFFFFFE0
FFFFFFE0
FFFFFFE0
001F0000
001F0000
001F0000
001F0000
001F0000
001F0000
001F0000
001F0000
001F0000
001F0000
001F0000
001F0000
001F0000
ENDCHAR
STARTCHAR quotesinglbase
ENCODING -1
SWIDTH 317 0
DWIDTH 20 0
BBX 8 15 6 -7
BITMAP
3F
3F
3F
3F
3F
3F
3E
3E
7E
7C
7C
78
78
F8
F0
ENDCHAR
STARTCHAR quotedblbase
ENCODING -1
SWIDTH 518 0
DWIDTH 32 0
BBX 20 15 6 -7
BITMAP
3F03F0
3F03F0
3F03F0
3F03F0
3F03F0
3F03F0
3E03E0
3E03E0
7E07E0
7C07C0
7C07C0
780780
780780
F80F80
F00F00
ENDCHAR
STARTCHAR perthousand
ENCODING -1
SWIDTH 1341 0
DWIDTH 83 0
BBX 76 47 3 -1
BITMAP
01FC000007C000000000
07FF000007C000000000
0FFF80000F8000000000
1FFFC0000F0000000000
3F07E0001F0000000000
7E03F0003E0000000000
7C01F0003E0000000000
7C01F0007C0000000000
F801F800780000000000
F800F800F80000000000
F800F801F00000000000
F800F801F00000000000
F800F803E00000000000
F800F803C00000000000
F800F807C00000000000
F800F80F800000000000
FC01F80F800000000000
7C01F01F000000000000
7C01F01E000000000000
7E03F03E000000000000
3F07E07C000000000000
1FFFC07C000000000000
0FFF80F803F80003F800
07FF00F00FFE000FFE00
01FC01F01FFF001FFF00
000003E03FFF803FFF80
000003E07E0FC07E0FC0
000007C0FC07E0FC07E0
00000780F803E0F803E0
00000F80F803E0F803E0
00001F01F003F1F003F0
00001F01F001F1F001F0
00003E01F001F1F001F0
00003C01F001F1F001F0
00007C01F001F1F001F0
0000F801F001F1F001F0
0000F801F001F1F001F0
0001F001F001F1F001F0
0001E001F003F1F003F0
0003E000F803E0F803E0
0007C000F803E0F803E0
0007C000FC07E0FC07E0
000F80007E0FC07E0FC0
000F00003FFF803FFF80
001F00001FFF001FFF00
003E00000FFE000FFE00
003E000003F80003F800
ENDCHAR
STARTCHAR dotlessi
ENCODING -1
SWIDTH 277 0
DWIDTH 17 0
BBX 6 34 6 0
BITMAP
FC
FC
FC
FC
FC
FC
FC
FC
FC
FC
FC
FC
FC
FC
FC
FC
FC
FC
FC
FC
FC
FC
FC
FC
FC
FC
FC
FC
FC
FC
FC
FC
FC
FC
ENDCHAR
STARTCHAR circumflex
ENCODING -1
SWIDTH 500 0
DWIDTH 31 0
BBX 19 11 6 39
BITMAP
01F000
03F800
03F800
07FC00
0FBE00
0F1E00
1F1F00
3E0F80
3C0780
7803C0
F803E0
ENDCHAR
STARTCHAR tilde
ENCODING -1
SWIDTH 500 0
DWIDTH 31 0
BBX 20 9 6 39
BITMAP
0F00F0
3FC0F0
7FE0F0
7FF0F0
79F9E0
F0FFE0
F07FC0
F03FC0
F00F00
ENDCHAR
STARTCHAR breve
ENCODING -1
SWIDTH 500 0
DWIDTH 31 0
BBX 19 9 6 41
BITMAP
F001E0
F001E0
F803E0
7803C0
7E0FC0
3FFF80
3FFF80
0FFE00
03F800
ENDCHAR
STARTCHAR dotaccent
ENCODING -1
SWIDTH 500 0
DWIDTH 31 0
BBX 6 6 12 41
BITMAP
FC
FC
FC
FC
FC
FC
ENDCHAR
STARTCHAR ring
ENCODING -1
SWIDTH 500 0
DWIDTH 31 0
BBX 17 17 7 38
BITMAP
03E000
0FF800
3FFE00
3FFE00
7C1F00
F80F00
F00780
F00780
F00780
F00780
F00780
F80F00
7C1F00
3FFE00
3FFE00
0FF800
03F000
ENDCHAR
STARTCHAR hungarumlaut
ENCODING -1
SWIDTH 500 0
DWIDTH 31 0
BBX 22 11 7 39
BITMAP
03E0FC
07C1F8
0781F0
0F83F0
1F03E0
1F07C0
3E0780
3C0F80
7C1F00
781E00
F83E00
ENDCHAR
STARTCHAR ogonek
ENCODING -1
SWIDTH 500 0
DWIDTH 31 0
BBX 11 12 10 -12
BITMAP
1E00
3C00
7800
7800
F000
F000
F000
F820
FFE0
7FE0
7FE0
1FE0
ENDCHAR
STARTCHAR caron
ENCODING -1
SWIDTH 500 0
DWIDTH 31 0
BBX 19 11 6 39
BITMAP
F803E0
7803C0
3C0780
3E0F80
1F1F00
0F1E00
0FBE00
07FC00
03F800
03F800
01F000
ENDCHAR
STARTCHAR Lslash
ENCODING -1
SWIDTH 562 0
DWIDTH 35 0
BBX 35 45 -1 0
BITMAP
01F8000000
01F8000000
01F8000000
01F8000000
01F8000000
01F8000000
01F8000000
01F8000000
01F8000000
01F8000000
01F8000000
01F8000000
01F8020000
01F80F0000
01F81F0000
01F83F8000
01F8FE0000
01F9FC0000
01FFF00000
01FFE00000
01FFC00000
01FF000000
01FE000000
03F8000000
07F8000000
1FF8000000
3FF8000000
FFF8000000
7DF8000000
79F8000000
31F8000000
01F8000000
01F8000000
01F8000000
01F8000000
01F8000000
01F8000000
01F8000000
01F8000000
01F8000000
01FFFFFFE0
01FFFFFFE0
01FFFFFFE0
01FFFFFFE0
01FFFFFFE0
ENDCHAR
STARTCHAR lslash
ENCODING -1
SWIDTH 284 0
DWIDTH 18 0
BBX 18 47 0 0
BITMAP
03F000
03F000
03F000
03F000
03F000
03F000
03F000
03F000
03F000
03F000
03F000
03F000
03F000
03F000
03F000
03F000
03F300
03F780
03FFC0
03FF80
03FE00
03FC00
07F800
0FF000
1FF000
7FF000
FFF000
7BF000
33F000
03F000
03F000
03F000
03F000
03F000
03F000
03F000
03F000
03F000
03F000
03F000
03F000
03F000
03F000
03F000
03F000
03F000
03F000
ENDCHAR
STARTCHAR Scaron
ENCODING -1
SWIDTH 634 0
DWIDTH 39 0
BBX 32 58 4 -1
BITMAP
03E01F00
01E01E00
00F03C00
00787800
007CF800
003FF000
001FE000
000FC000
00000000
00000000
00000000
001FFC00
01FFFFE0
03FFFFF8
0FFFFFF8
1FFFFFF8
3FF007F8
3F800078
7F000008
7E000000
FE000000
FC000000
FC000000
FC000000
FC000000
FC000000
FE000000
FE000000
7F800000
7FE00000
3FFE0000
1FFFF000
0FFFFE00
07FFFFC0
01FFFFE0
003FFFF0
0003FFF8
00001FFC
000003FE
000001FE
000000FE
0000007F
0000003F
0000003F
0000003F
0000003F
0000003F
0000003F
0000007F
8000007E
E00000FE
FC0003FC
FFC01FFC
FFFFFFF8
FFFFFFF0
7FFFFFC0
0FFFFF00
007FF800
ENDCHAR
STARTCHAR scaron
ENCODING -1
SWIDTH 520 0
DWIDTH 32 0
BBX 26 51 3 -1
BITMAP
0F803E00
07803C00
03C07800
03E0F800
01F1F000
00F1E000
00FBE000
007FC000
003F8000
003F8000
001F0000
00000000
00000000
00000000
00000000
00FFE000
07FFFE00
0FFFFF00
3FFFFF00
3FFFFF00
7FC01F00
7F000100
FE000000
FC000000
FC000000
FC000000
FC000000
FE000000
7F000000
7FC00000
3FFC0000
1FFFC000
0FFFF800
03FFFC00
007FFF00
0003FF80
00007F80
00001FC0
00001FC0
00000FC0
00000FC0
00000FC0
00000FC0
80001FC0
F0003F80
FE00FF80
FFFFFF00
FFFFFE00
FFFFFC00
3FFFF000
03FF8000
ENDCHAR
STARTCHAR Zcaron
ENCODING -1
SWIDTH 685 0
DWIDTH 42 0
BBX 37 57 3 0
BITMAP
007C03E000
003C03C000
001E078000
000F0F0000
000F9F0000
0007FE0000
0003FC0000
0001F80000
0000000000
0000000000
0000000000
0000000000
7FFFFFFFF0
7FFFFFFFF0
7FFFFFFFF0
7FFFFFFFF0
7FFFFFFFF0
0000000FE0
0000001FE0
0000003FC0
0000007F80
000000FF00
000000FE00
000001FE00
000003FC00
000007F800
00000FF000
00000FE000
00001FE000
00003FC000
00007F8000
00007F0000
0000FE0000
0001FE0000
0003FC0000
0007F80000
0007F00000
000FE00000
001FE00000
003FC00000
007F800000
007F000000
00FE000000
01FE000000
03FC000000
07F8000000
07F0000000
0FF0000000
1FE0000000
3FC0000000
7F80000000
7F00000000
FFFFFFFFF8
FFFFFFFFF8
FFFFFFFFF8
FFFFFFFFF8
FFFFFFFFF8
ENDCHAR
STARTCHAR zcaron
ENCODING -1
SWIDTH 524 0
DWIDTH 33 0
BBX 27 50 3 0
BITMAP
0F803E00
07803C00
03C07800
03E0F800
01F1F000
00F1E000
00FBE000
007FC000
003F8000
003F8000
001F0000
00000000
00000000
00000000
00000000
00000000
7FFFFFE0
7FFFFFE0
7FFFFFE0
7FFFFFE0
7FFFFFE0
00001FE0
00003FC0
00007F80
00007F00
0000FE00
0001FE00
0003FC00
0007F800
000FF000
000FE000
001FE000
003FC000
007F8000
00FF0000
00FF0000
01FE0000
03FC0000
07F80000
0FF00000
0FF00000
1FE00000
3FC00000
7F800000
FF000000
FFFFFFE0
FFFFFFE0
FFFFFFE0
FFFFFFE0
FFFFFFE0
ENDCHAR
STARTCHAR minus
ENCODING -1
SWIDTH 837 0
DWIDTH 52 0
BBX 39 5 7 17
BITMAP
FFFFFFFFFE
FFFFFFFFFE
FFFFFFFFFE
FFFFFFFFFE
FFFFFFFFFE
ENDCHAR
STARTCHAR Gbreve
ENCODING -1
SWIDTH 774 0
DWIDTH 48 0
BBX 39 58 4 -1
BITMAP
001E003C00
001F007C00
000F80F800
000FFFF800
0007FFF000
0003FFE000
0000FF8000
0000000000
0000000000
0000000000
0000000000
00007FF000
0007FFFF00
001FFFFFE0
007FFFFFF8
00FFFFFFFC
01FFC00FFC
03FE0001FC
07F800003C
0FE000000C
1FC0000004
1FC0000000
3F80000000
3F00000000
7F00000000
7E00000000
7E00000000
7E00000000
FE00000000
FC00000000
FC00000000
FC00000000
FC00000000
FC00000000
FC0001FFFE
FC0001FFFE
FC0001FFFE
FC0001FFFE
FC0001FFFE
FC0000007E
FE0000007E
7E0000007E
7E0000007E
7E0000007E
3F0000007E
3F0000007E
3F8000007E
1F8000007E
1FC000007E
0FE000007E
07F800007E
03FE0001FE
01FFC00FFE
00FFFFFFFC
007FFFFFF8
001FFFFFE0
0007FFFF00
00007FF000
ENDCHAR
STARTCHAR gbreve
ENCODING -1
SWIDTH 634 0
DWIDTH 39 0
BBX 30 63 3 -13
BITMAP
01E003C0
01E003C0
01F007C0
00F00780
00FC1F80
007FFF00
007FFF00
001FFC00
0007F000
00000000
00000000
00000000
00000000
00000000
00000000
003F8000
01FFF0FC
03FFF8FC
07FFFCFC
0FFFFEFC
1FF03FFC
1FC00FFC
3F8007FC
3F0003FC
7F0003FC
7E0001FC
7E0001FC
FE0001FC
FC0000FC
FC0000FC
FC0000FC
FC0000FC
FC0000FC
FC0000FC
FC0000FC
FC0000FC
FC0000FC
FE0001FC
7E0001FC
7E0001FC
7F0003FC
3F0003FC
3F8007FC
1FC00FFC
1FF03FFC
0FFFFEFC
07FFFCFC
03FFF8FC
01FFF0FC
003F80FC
000000FC
000001F8
000001F8
000001F8
000003F8
080007F0
0E000FF0
0FC07FE0
0FFFFFC0
0FFFFF80
07FFFF00
01FFFC00
003FF000
ENDCHAR
STARTCHAR Idotaccent
ENCODING -1
SWIDTH 294 0
DWIDTH 18 0
BBX 6 56 6 0
BITMAP
FC
FC
FC
FC
FC
FC
00
00
00
00
00
FC
FC
FC
FC
FC
FC
FC
FC
FC
FC
FC
FC
FC
FC
FC
FC
FC
FC
FC
FC
FC
FC
FC
FC
FC
FC
FC
FC
FC
FC
FC
FC
FC
FC
FC
FC
FC
FC
FC
FC
FC
FC
FC
FC
FC
ENDCHAR
STARTCHAR Scedilla
ENCODING -1
SWIDTH 634 0
DWIDTH 39 0
BBX 32 58 4 -12
BITMAP
001FFC00
01FFFFE0
03FFFFF8
0FFFFFF8
1FFFFFF8
3FF007F8
3F800078
7F000008
7E000000
FE000000
FC000000
FC000000
FC000000
FC000000
FC000000
FE000000
FE000000
7F800000
7FE00000
3FFE0000
1FFFF000
0FFFFE00
07FFFFC0
01FFFFE0
003FFFF0
0003FFF8
00001FFC
000003FE
000001FE
000000FE
0000007F
0000003F
0000003F
0000003F
0000003F
0000003F
0000003F
0000007F
8000007E
E00000FE
FC0003FC
FFC01FFC
FFFFFFF8
FFFFFFF0
7FFFFFC0
0FFFFF00
007FF800
0000F000
00007800
00007800
00003C00
00003C00
00003C00
00407C00
007FFC00
007FF800
007FF000
003FC000
ENDCHAR
STARTCHAR scedilla
ENCODING -1
SWIDTH 520 0
DWIDTH 32 0
BBX 26 47 3 -12
BITMAP
00FFE000
07FFFE00
0FFFFF00
3FFFFF00
3FFFFF00
7FC01F00
7F000100
FE000000
FC000000
FC000000
FC000000
FC000000
FE000000
7F000000
7FC00000
3FFC0000
1FFFC000
0FFFF800
03FFFC00
007FFF00
0003FF80
00007F80
00001FC0
00001FC0
00000FC0
00000FC0
00000FC0
00000FC0
80001FC0
F0003F80
FE00FF80
FFFFFF00
FFFFFE00
FFFFFC00
3FFFF000
03FF8000
0003C000
0001E000
0001E000
0000F000
0000F000
0000F000
0101F000
01FFF000
01FFE000
01FFC000
00FF0000
ENDCHAR
STARTCHAR Cacute
ENCODING -1
SWIDTH 698 0
DWIDTH 43 0
BBX 36 58 4 -1
BITMAP
000003E000
000007C000
00000F8000
00001F8000
00001F0000
00003E0000
00007C0000
0000F80000
0000000000
0000000000
0000000000
00007FE000
0007FFFE00
001FFFFF80
007FFFFFE0
00FFFFFFF0
01FF801FF0
03FC0003F0
07F80000F0
0FE0000030
1FC0000010
1FC0000000
3F80000000
3F00000000
3F00000000
7E00000000
7E00000000
7E00000000
FE00000000
FC00000000
FC00000000
FC00000000
FC00000000
FC00000000
FC00000000
FC00000000
FC00000000
FC00000000
FC00000000
FC00000000
FE00000000
7E00000000
7E00000000
7E00000000
3F00000000
3F00000000
3F80000000
1FC0000000
1FC0000010
0FE0000030
07F80000F0
03FC0003F0
01FF801FF0
00FFFFFFF0
007FFFFFE0
001FFFFF80
0007FFFE00
0000FFE000
ENDCHAR
STARTCHAR cacute
ENCODING -1
SWIDTH 549 0
DWIDTH 34 0
BBX 27 51 3 -1
BITMAP
00000FE0
00000FC0
00001F80
00003F00
00007E00
0000FC00
0000F800
0001F000
0003E000
0007C000
000F8000
00000000
00000000
00000000
00000000
000FF800
007FFF00
01FFFFC0
03FFFFE0
07FFFFE0
0FFC07E0
1FE000E0
1FC00020
3F800000
3F000000
7F000000
7E000000
7E000000
FC000000
FC000000
FC000000
FC000000
FC000000
FC000000
FC000000
FC000000
FC000000
FC000000
7E000000
7E000000
7F000000
3F000000
3F800000
1FC00020
1FE000E0
0FFC07E0
07FFFFE0
03FFFFE0
01FFFFC0
007FFF00
000FF800
ENDCHAR
STARTCHAR Ccaron
ENCODING -1
SWIDTH 698 0
DWIDTH 43 0
BBX 36 58 4 -1
BITMAP
001F00F800
000F00F000
000781E000
0003C3C000
0003E7C000
0001FF8000
0000FF0000
00007E0000
0000000000
0000000000
0000000000
00007FE000
0007FFFE00
001FFFFF80
007FFFFFE0
00FFFFFFF0
01FF801FF0
03FC0003F0
07F80000F0
0FE0000030
1FC0000010
1FC0000000
3F80000000
3F00000000
3F00000000
7E00000000
7E00000000
7E00000000
FE00000000
FC00000000
FC00000000
FC00000000
FC00000000
FC00000000
FC00000000
FC00000000
FC00000000
FC00000000
FC00000000
FC00000000
FE00000000
7E00000000
7E00000000
7E00000000
3F00000000
3F00000000
3F80000000
1FC0000000
1FC0000010
0FE0000030
07F80000F0
03FC0003F0
01FF801FF0
00FFFFFFF0
007FFFFFE0
001FFFFF80
0007FFFE00
0000FFE000
ENDCHAR
STARTCHAR ccaron
ENCODING -1
SWIDTH 549 0
DWIDTH 34 0
BBX 27 51 3 -1
BITMAP
01F007C0
00F00780
00780F00
007C1F00
003E3E00
001E3C00
001F7C00
000FF800
0007F000
0007F000
0003E000
00000000
00000000
00000000
00000000
000FF800
007FFF00
01FFFFC0
03FFFFE0
07FFFFE0
0FFC07E0
1FE000E0
1FC00020
3F800000
3F000000
7F000000
7E000000
7E000000
FC000000
FC000000
FC000000
FC000000
FC000000
FC000000
FC000000
FC000000
FC000000
FC000000
7E000000
7E000000
7F000000
3F000000
3F800000
1FC00020
1FE000E0
0FFC07E0
07FFFFE0
03FFFFE0
01FFFFC0
007FFF00
000FF800
ENDCHAR
STARTCHAR dcroat
ENCODING -1
SWIDTH 634 0
DWIDTH 39 0
BBX 35 48 3 -1
BITMAP
000000FC00
000000FC00
000000FC00
000000FC00
0003FFFFE0
0003FFFFE0
0003FFFFE0
0003FFFFE0
000000FC00
000000FC00
000000FC00
000000FC00
003F80FC00
00FFF0FC00
03FFF8FC00
07FFFCFC00
0FFFFEFC00
1FF03FFC00
1FC00FFC00
3F8007FC00
3F0003FC00
7F0003FC00
7E0001FC00
7E0001FC00
FE0001FC00
FC0000FC00
FC0000FC00
FC0000FC00
FC0000FC00
FC0000FC00
FC0000FC00
FC0000FC00
FC0000FC00
FC0000FC00
FC0000FC00
FE0001FC00
7E0001FC00
7E0001FC00
7F0003FC00
3F0003FC00
3F8007FC00
1FC00FFC00
1FF03FFC00
0FFFFEFC00
07FFFCFC00
03FFF8FC00
00FFF0FC00
003F800000
ENDCHAR
STARTCHAR periodcentered
ENCODING -1
SWIDTH 317 0
DWIDTH 20 0
BBX 6 8 7 17
BITMAP
FC
FC
FC
FC
FC
FC
FC
FC
ENDCHAR
STARTCHAR Euro
ENCODING -1
SWIDTH 636 0
DWIDTH 39 0
BBX 35 47 0 -1
BITMAP
00001FF000
0000FFFE00
0001FFFF80
0007FFFFC0
000FFFFFE0
001FF80FE0
003FC003E0
003F8000E0
007F000060
00FE000020
00FE000000
00FC000000
01FC000000
01F8000000
01F8000000
01F8000000
7FFFFFFC00
7FFFFFF800
7FFFFFF800
FFFFFFF800
03F0000000
03F0000000
03F0000000
03F0000000
03F0000000
03F0000000
7FFFFFC000
7FFFFF8000
7FFFFF8000
FFFFFF0000
01F8000000
01F8000000
01F8000000
01F8000000
00FC000000
00FC000000
00FE000000
007E000020
007F000060
003F8000E0
001FE003E0
001FF80FE0
000FFFFFE0
0007FFFFC0
0001FFFF80
00007FFE00
00000FF000
ENDCHAR
STARTCHAR c6459
ENCODING -1
SWIDTH 500 0
DWIDTH 31 0
BBX 18 6 7 39
BITMAP
FC0FC0
FC0FC0
FC0FC0
FC0FC0
FC0FC0
FC0FC0
ENDCHAR
STARTCHAR c6460
ENCODING -1
SWIDTH 500 0
DWIDTH 31 0
BBX 11 8 11 38
BITMAP
03E0
07C0
0F80
1F80
1F00
3E00
7C00
F800
ENDCHAR
STARTCHAR c6461
ENCODING -1
SWIDTH 500 0
DWIDTH 31 0
BBX 20 7 6 39
BITMAP
1F00F0
3FC0F0
7FF1F0
7FFFE0
F8FFE0
F07FC0
F00F80
ENDCHAR
STARTCHAR c6462
ENCODING -1
SWIDTH 500 0
DWIDTH 31 0
BBX 11 8 8 38
BITMAP
FC00
7E00
3F00
1F00
0F80
07C0
03C0
01E0
ENDCHAR
STARTCHAR c6463
ENCODING -1
SWIDTH 500 0
DWIDTH 31 0
BBX 18 8 6 38
BITMAP
03F000
07F800
0FFC00
1F3E00
1E1E00
3C0F00
780780
F807C0
ENDCHAR
STARTCHAR c6466
ENCODING -1
SWIDTH 500 0
DWIDTH 31 0
BBX 18 8 6 38
BITMAP
F807C0
780780
3C0F00
1E1E00
1F3E00
0FFC00
07F800
03F000
ENDCHAR
STARTCHAR c6467
ENCODING -1
SWIDTH 400 0
DWIDTH 25 0
BBX 21 25 2 21
BITMAP
000F80
001F80
003F80
007F80
00F780
00F780
01E780
03C780
078780
070780
0F0780
1E0780
3C0780
780780
700780
F00780
FFFFF8
FFFFF8
FFFFF8
000780
000780
000780
000780
000780
000780
ENDCHAR
STARTCHAR c6468
ENCODING -1
SWIDTH 500 0
DWIDTH 31 0
BBX 19 7 6 39
BITMAP
F001E0
F803E0
7C07C0
7FFFC0
3FFF80
1FFF00
07FC00
ENDCHAR
STARTCHAR c6469
ENCODING -1
SWIDTH 500 0
DWIDTH 31 0
BBX 6 6 12 39
BITMAP
FC
FC
FC
FC
FC
FC
ENDCHAR
ENDFONT
